<svg xmlns="http://www.w3.org/2000/svg" xmlns:xlink="http://www.w3.org/1999/xlink" width="18" height="18" viewBox="0 0 18 18">
    <defs>
        <path id="a" d="M3 0h12a3 3 0 0 1 3 3v12a3 3 0 0 1-3 3H3a3 3 0 0 1-3-3V3a3 3 0 0 1 3-3z"/>
        <path id="c" d="M15.503 5.377l-8.438 8.438a.84.84 0 0 1-.597.247.84.84 0 0 1-.596-.247L2.497 10.44A.844.844 0 0 1 3.69 9.247l2.778 2.778 7.842-7.84a.844.844 0 0 1 1.193 1.192"/>
    </defs>
    <g fill="none" fill-rule="evenodd">
        <mask id="b" fill="#fff">
            <use xlink:href="#a"/>
        </mask>
        <use fill="#979797" fill-rule="nonzero" xlink:href="#a"/>
        <g fill="#1E8FE1" mask="url(#b)">
            <path d="M0 0h18v18H0z"/>
        </g>
        <mask id="d" fill="#fff">
            <use xlink:href="#c"/>
        </mask>
        <use fill="#D8D8D8" xlink:href="#c"/>
        <g fill="#FFF" mask="url(#d)">
            <path d="M0 0h18v18H0z"/>
        </g>
    </g>
</svg>
