<svg xmlns="http://www.w3.org/2000/svg" xmlns:xlink="http://www.w3.org/1999/xlink" width="18" height="18" viewBox="0 0 18 18">
    <defs>
        <path id="a" d="M3 1.2A1.8 1.8 0 0 0 1.2 3v12A1.8 1.8 0 0 0 3 16.8h12a1.8 1.8 0 0 0 1.8-1.8V3A1.8 1.8 0 0 0 15 1.2H3zM3 0h12a3 3 0 0 1 3 3v12a3 3 0 0 1-3 3H3a3 3 0 0 1-3-3V3a3 3 0 0 1 3-3z"/>
    </defs>
    <g fill="none" fill-rule="evenodd">
        <mask id="b" fill="#fff">
            <use xlink:href="#a"/>
        </mask>
        <use fill="#979797" fill-rule="nonzero" xlink:href="#a"/>
        <g fill="#9B9B9B" mask="url(#b)">
            <path d="M0 0h18v18H0z"/>
        </g>
    </g>
</svg>
