<svg xmlns="http://www.w3.org/2000/svg" xmlns:xlink="http://www.w3.org/1999/xlink" width="16" height="16" viewBox="0 0 16 16">
    <defs>
        <path id="a" d="M5.5 9a1.5 1.5 0 1 1 0-3 1.5 1.5 0 0 1 0 3zm0 6a1.5 1.5 0 1 1 0-3 1.5 1.5 0 0 1 0 3zm0-12a1.5 1.5 0 1 1 0-3 1.5 1.5 0 0 1 0 3zm5 6a1.5 1.5 0 1 1 0-3 1.5 1.5 0 0 1 0 3zm0 6a1.5 1.5 0 1 1 0-3 1.5 1.5 0 0 1 0 3zm0-12a1.5 1.5 0 1 1 0-3 1.5 1.5 0 0 1 0 3z"/>
    </defs>
    <g fill="none" fill-rule="evenodd">
        <mask id="b" fill="#fff">
            <use xlink:href="#a"/>
        </mask>
        <use fill="#9b9b9b" xlink:href="#a"/>
        <g fill="#9b9b9b" mask="url(#b)">
            <path d="M0 0h16v16H0z"/>
        </g>
    </g>
</svg>
