<svg xmlns="http://www.w3.org/2000/svg" xmlns:xlink="http://www.w3.org/1999/xlink" width="250" height="293" viewBox="0 0 250 293">
    <defs>
        <path id="b" d="M0 15.006C0 6.72 6.722 0 14.996 0h103.708c8.282 0 15.015 6.716 15.037 15.006l.646 234.982c.023 8.288-6.671 15.006-14.956 15.006H14.997C6.714 264.994 0 258.278 0 249.988V15.006z"/>
        <filter id="a" width="138.7%" height="119.6%" x="-19.3%" y="-6%" filterUnits="objectBoundingBox">
            <feOffset dy="10" in="SourceAlpha" result="shadowOffsetOuter1"/>
            <feGaussianBlur in="shadowOffsetOuter1" result="shadowBlurOuter1" stdDeviation="7"/>
            <feColorMatrix in="shadowBlurOuter1" values="0 0 0 0 0 0 0 0 0 0 0 0 0 0 0 0 0 0 0.1 0"/>
        </filter>
        <circle id="d" cx="92.65" cy="92.594" r="92.35"/>
        <filter id="c" width="113%" height="113%" x="-6.5%" y="-6.5%" filterUnits="objectBoundingBox">
            <feOffset in="SourceAlpha" result="shadowOffsetOuter1"/>
            <feGaussianBlur in="shadowOffsetOuter1" result="shadowBlurOuter1" stdDeviation="4"/>
            <feComposite in="shadowBlurOuter1" in2="SourceAlpha" operator="out" result="shadowBlurOuter1"/>
            <feColorMatrix in="shadowBlurOuter1" values="0 0 0 0 0 0 0 0 0 0 0 0 0 0 0 0 0 0 0.211163949 0"/>
        </filter>
        <linearGradient id="e" x1="0%" y1="0%" y2="100%">
            <stop offset="0%" stop-color="#698EFF"/>
            <stop offset="49.422%" stop-color="#15BEFD"/>
            <stop offset="100%" stop-color="#8EFBCE"/>
        </linearGradient>
        <path id="g" d="M24.898 69.259c11.435 0 21.132-7.813 24.019-18.363-.807.183-1.637.329-2.486.438a26.03 26.03 0 0 1-3.383.224h-8.615c-2.189 2.888-5.652 4.761-9.535 4.761-6.58 0-11.96-5.381-11.96-11.959 0-6.579 5.38-11.96 11.96-11.96h11.961v2.904h6.189a10.194 10.194 0 0 0 5.807-1.802l.94-.644V19.462H24.898C11.203 19.462 0 30.667 0 44.36s11.203 24.899 24.898 24.899"/>
        <filter id="f" width="102%" height="104%" x="-1%" y="-1%" filterUnits="objectBoundingBox">
            <feOffset dy="1" in="SourceAlpha" result="shadowOffsetOuter1"/>
            <feColorMatrix in="shadowOffsetOuter1" values="0 0 0 0 1 0 0 0 0 1 0 0 0 0 1 0 0 0 0.4 0"/>
        </filter>
        <path id="i" d="M43.047.105c-11.434 0-21.131 7.813-24.019 18.364a26.57 26.57 0 0 1 2.487-.441 26.418 26.418 0 0 1 3.382-.222h8.615c2.188-2.89 5.653-4.764 9.535-4.764 6.579 0 11.962 5.382 11.962 11.96 0 6.578-5.383 11.963-11.962 11.963h-11.96v-2.907h-6.19a10.217 10.217 0 0 0-5.808 1.802l-.938.647v13.394h24.896c13.695 0 24.898-11.206 24.898-24.899C67.945 11.308 56.742.105 43.047.105"/>
        <filter id="h" width="102%" height="104%" x="-1%" y="-1%" filterUnits="objectBoundingBox">
            <feOffset dy="1" in="SourceAlpha" result="shadowOffsetOuter1"/>
            <feColorMatrix in="shadowOffsetOuter1" values="0 0 0 0 1 0 0 0 0 1 0 0 0 0 1 0 0 0 0.4 0"/>
        </filter>
    </defs>
    <g fill="none" fill-rule="evenodd">
        <g transform="translate(14 4)">
            <use fill="#000" filter="url(#a)" xlink:href="#b"/>
            <use fill="#4A4A4A" xlink:href="#b"/>
            <path fill="#3D3D3D" d="M78.845 251.094c0 5.691-4.513 10.305-10.08 10.305s-10.08-4.614-10.08-10.305 4.513-10.305 10.08-10.305 10.08 4.614 10.08 10.305"/>
            <path fill="#08121F" d="M7.26 18.15h120.002v219.356H7.26z"/>
            <rect width="26.177" height="26.177" x="16.335" y="26.62" fill="#FF4848" rx="6"/>
            <rect width="26.177" height="26.177" x="53.24" y="26.62" fill="#51DD75" rx="6"/>
            <rect width="26.177" height="26.177" x="90.75" y="26.62" fill="#195877" rx="6"/>
            <rect width="26.177" height="26.177" x="16.335" y="201.464" fill="#FF4848" rx="6"/>
            <rect width="26.177" height="26.177" x="53.24" y="201.464" fill="#F39C12" rx="6"/>
            <rect width="26.177" height="26.177" x="90.75" y="201.464" fill="#195877" rx="6"/>
            <rect width="26.177" height="26.177" x="16.335" y="61.71" fill="#195877" rx="6"/>
            <rect width="26.177" height="26.177" x="53.24" y="61.71" fill="#00BAE0" rx="6"/>
            <rect width="26.177" height="26.177" x="90.75" y="61.71" fill="#FF4848" rx="6"/>
            <rect width="26.177" height="26.177" x="16.335" y="96.8" fill="#51DD75" rx="6"/>
            <rect width="26.177" height="26.177" x="53.24" y="96.8" fill="#F39C12" rx="6"/>
            <rect width="26.177" height="26.177" x="90.75" y="96.8" fill="#9B94FF" rx="6"/>
            <rect width="26.177" height="26.177" x="16.335" y="132.494" fill="#00BAE0" rx="6"/>
            <rect width="26.177" height="26.177" x="53.24" y="132.494" fill="#FF4848" rx="6"/>
            <rect width="26.177" height="26.177" x="90.75" y="132.494" fill="#195877" rx="6"/>
            <rect width="26.177" height="26.177" x="16.335" y="166.979" fill="#9B94FF" rx="6"/>
            <rect width="26.177" height="26.177" x="53.24" y="166.979" fill="#51DD75" rx="6"/>
            <rect width="26.177" height="26.177" x="90.75" y="166.979" fill="#F39C12" rx="6"/>
        </g>
        <g transform="translate(57 43)">
            <use fill="#000" filter="url(#c)" xlink:href="#d"/>
            <use fill="#08121F" xlink:href="#d"/>
            <circle cx="92.65" cy="92.594" r="91.35" stroke="#CFD8DC" stroke-width="2"/>
            <rect width="101.481" height="101.481" x="40.508" y="35.425" fill="url(#e)" rx="20"/>
            <g>
                <g transform="translate(57 52)">
                    <use fill="#000" filter="url(#f)" xlink:href="#g"/>
                    <use fill="#19487B" xlink:href="#g"/>
                </g>
                <g transform="translate(57 52)">
                    <use fill="#000" filter="url(#h)" xlink:href="#i"/>
                    <use fill="#19487B" xlink:href="#i"/>
                </g>
            </g>
            <text fill="#FFF" font-family="Roboto-Medium, Roboto" font-size="12" font-weight="400">
                <tspan x="64.311" y="156">App Name</tspan>
            </text>
        </g>
    </g>
</svg>
