<svg xmlns="http://www.w3.org/2000/svg" width="17" height="30" viewBox="0 0 17 30">
    <path fill="#FFF" fill-rule="evenodd" d="M1.163 24.163l3.248 1.602-3.242 2.48-.006-4.082zm15.21 4.675H2.305L5.86 26.12l.005-.005a.569.569 0 0 0 .076-.07l.015-.02a.59.59 0 0 0 .046-.064l.016-.028.01-.018 10.53-21.349a2.908 2.908 0 0 0-1.32-3.89L14.48.301a2.885 2.885 0 0 0-2.218-.145c-.735.249-1.329.77-1.672 1.465L.06 22.971l-.006.015c-.008.018-.015.037-.021.056-.006.018-.012.035-.016.052l-.01.055a.563.563 0 0 0-.005.06L0 23.23l.009 6.19.001.017c0 .02.004.042.007.062.001.013.001.026.004.039 0 .004.003.009.004.013.004.019.01.036.017.055.004.013.007.027.012.04l.008.014.024.045.022.04.012.014.008.014c.016.02.032.039.05.056v.002a.591.591 0 0 0 .079.065l.008.006.004.002a.553.553 0 0 0 .086.047l.009.004c.003.002.006.002.01.003.03.013.062.023.094.03l.005.001.01.001A.58.58 0 0 0 .59 30h15.783a.581.581 0 0 0 0-1.162z"/>
</svg>
