<svg xmlns="http://www.w3.org/2000/svg" width="20" height="33" viewBox="0 0 20 33">
    <path fill="#FFF" fill-rule="evenodd" d="M17.22 23.82c0 .734-.59 1.33-1.314 1.33H3.116a1.324 1.324 0 0 1-1.314-1.33V9.52c0-.733.59-1.33 1.315-1.33h12.789c.725 0 1.314.597 1.314 1.33v14.3zm2.568-14.063h-.765v-.236c0-1.733-1.399-3.143-3.117-3.143h-.201c-.565-.846-.844-2.043-.844-3.16 0-1.58-.002-2.77-2.023-3.039C11.478 0 10.208 0 9.511 0c-.697 0-1.967-.002-3.327.18-2.021.268-2.022 1.458-2.022 3.038 0 1.117-.28 2.314-.845 3.16h-.2C1.398 6.378 0 7.788 0 9.52v14.3c0 1.732 1.398 3.142 3.117 3.142h.536c.34.763.509 1.679.509 2.546 0 1.58 0 2.77 2.022 3.039 1.36.18 2.63.179 3.327.179.697 0 1.968.002 3.327-.18 2.021-.268 2.023-1.458 2.023-3.038 0-.867.169-1.783.508-2.546h.537c1.718 0 3.117-1.41 3.117-3.143v-.886h.505a.137.137 0 0 0 .138-.138v-5.998a.137.137 0 0 0-.138-.138h-.505v-2.957h.765a.212.212 0 0 0 .212-.211V9.969a.212.212 0 0 0-.212-.212zm-8.407 3.004c-.747 0-1.465.39-1.87.976a2.313 2.313 0 0 0-1.87-.976c-1.164 0-2.282.949-2.282 2.264 0 3.048 4.152 4.941 4.152 4.941s4.152-1.893 4.152-4.941c0-1.315-1.118-2.264-2.282-2.264"/>
</svg>
