<svg xmlns="http://www.w3.org/2000/svg" width="27" height="30" viewBox="0 0 27 30">
    <path fill="#D3DFE4" fill-rule="evenodd" d="M16.704 6a.883.883 0 0 1-.895-.87c0-.482.4-.87.895-.87s.896.388.896.87c0 .48-.4.87-.896.87zM9.546 6a.883.883 0 0 1-.896-.87c0-.482.4-.87.896-.87.494 0 .895.388.895.87 0 .48-.4.87-.895.87zm7.688-3.488l.333-.49.334-.484.743-1.087A.284.284 0 0 0 18.56.05a.299.299 0 0 0-.411.081l-1.135 1.653-.34.498a10.043 10.043 0 0 0-3.549-.635c-1.267 0-2.47.227-3.549.635l-.338-.498-.336-.488L8.105.13A.305.305 0 0 0 7.69.05a.287.287 0 0 0-.084.401l.743 1.087.334.483.335.49C6.486 3.66 4.774 5.836 4.774 8.325h16.702c0-2.49-1.712-4.664-4.242-5.812zM4.902 9.484h-.128v12.774c0 1.015.846 1.84 1.89 1.84h1.363a1.635 1.635 0 0 0-.073.483v3.678c0 .961.803 1.741 1.791 1.741.988 0 1.79-.78 1.79-1.741v-3.678c0-.169-.027-.33-.072-.483h3.324c-.045.153-.07.314-.07.483v3.678c0 .961.8 1.741 1.788 1.741.99 0 1.792-.78 1.792-1.741v-3.678c0-.169-.027-.33-.074-.483h1.365c1.044 0 1.888-.825 1.888-1.84V9.484H4.902zm-3.111 0C.8 9.484 0 10.264 0 11.225v7.453c0 .96.801 1.74 1.79 1.74.988 0 1.79-.78 1.79-1.74v-7.453c0-.961-.802-1.74-1.79-1.74zm22.67 0c-.99 0-1.79.78-1.79 1.741v7.453c0 .96.8 1.74 1.79 1.74.988 0 1.789-.78 1.789-1.74v-7.453c0-.961-.801-1.74-1.789-1.74z"/>
</svg>
