<svg xmlns="http://www.w3.org/2000/svg" width="46" height="33" viewBox="0 0 46 33">
    <g fill="none" fill-rule="evenodd">
        <path fill="#FFF" d="M43.22 23.82c0 .734-.59 1.33-1.314 1.33h-12.79a1.324 1.324 0 0 1-1.314-1.33V9.52c0-.733.59-1.33 1.315-1.33h12.789c.725 0 1.314.597 1.314 1.33v14.3zm2.568-14.063h-.765v-.236c0-1.733-1.399-3.143-3.117-3.143h-.201c-.565-.846-.844-2.043-.844-3.16 0-1.58-.002-2.77-2.023-3.039C37.478 0 36.208 0 35.511 0c-.697 0-1.967-.002-3.327.18-2.021.268-2.022 1.458-2.022 3.038 0 1.117-.28 2.314-.845 3.16h-.2C27.398 6.378 26 7.788 26 9.52v14.3c0 1.732 1.398 3.142 3.117 3.142h.536c.34.763.509 1.679.509 2.546 0 1.58 0 2.77 2.022 3.039 1.36.18 2.63.179 3.327.179.697 0 1.968.002 3.327-.18 2.021-.268 2.023-1.458 2.023-3.038 0-.867.169-1.783.508-2.546h.537c1.718 0 3.117-1.41 3.117-3.143v-.886h.505a.137.137 0 0 0 .138-.138v-5.998a.137.137 0 0 0-.138-.138h-.505v-2.957h.765a.212.212 0 0 0 .212-.211V9.969a.212.212 0 0 0-.212-.212zm-8.407 3.004c-.747 0-1.465.39-1.87.976a2.313 2.313 0 0 0-1.87-.976c-1.164 0-2.282.949-2.282 2.264 0 3.048 4.152 4.941 4.152 4.941s4.152-1.893 4.152-4.941c0-1.315-1.118-2.264-2.282-2.264"/>
        <path fill="#34537D" stroke="#34537D" d="M28.508 28.892c0 1.351-1.1 2.45-2.45 2.45H3.45c-1.35 0-2.45-1.099-2.45-2.45V13.45C1 12.1 2.1 11 3.45 11h22.607c1.351 0 2.45 1.1 2.45 2.45v15.442z"/>
        <path fill="#FFF" d="M28.754 29.138c0 1.351-1.1 2.45-2.45 2.45H3.696c-1.352 0-2.45-1.099-2.45-2.45V13.697c0-1.352 1.098-2.45 2.45-2.45h22.606c1.352 0 2.45 1.098 2.45 2.45v15.441zM26.304 10H3.696A3.7 3.7 0 0 0 0 13.697v15.441a3.7 3.7 0 0 0 3.697 3.696H26.303A3.7 3.7 0 0 0 30 29.138V13.697A3.7 3.7 0 0 0 26.303 10zm-.805 11.384h-6.364a.347.347 0 0 1-.268-.118l-.175-.215-.556.96c-.057.1-.182.16-.315.151-.133-.008-.246-.081-.285-.186l-.262-.698-1.364 3.986c-.039.115-.166.193-.31.193a.33.33 0 0 1-.023 0c-.152-.01-.277-.105-.297-.229l-1.54-9.31-1.297 5.852c-.025.111-.133.197-.27.214-.136.017-.27-.039-.334-.139l-.457-.716-.111.167a.339.339 0 0 1-.284.138H4.501c-.178 0-.322-.118-.322-.264 0-.146.144-.264.322-.264h6.294l.309-.465a.338.338 0 0 1 .283-.138h.003c.119 0 .228.055.283.141l.303.474 1.492-6.735c.028-.128.166-.22.325-.217.158.003.29.1.312.229l1.605 9.696 1.24-3.622c.038-.113.163-.191.306-.193h.004c.142 0 .267.076.308.187l.34.907.444-.767a.33.33 0 0 1 .268-.15.35.35 0 0 1 .292.117l.396.486h6.19c.179 0 .323.118.323.264 0 .145-.144.264-.322.264m-.307-9.114H4.808a2.058 2.058 0 0 0-2.055 2.056v10.771c0 1.134.922 2.056 2.055 2.056h20.384a2.058 2.058 0 0 0 2.055-2.056V14.326a2.058 2.058 0 0 0-2.055-2.056M5.344 28.18c-.658 0-1.194.535-1.194 1.193s.536 1.194 1.194 1.194c.659 0 1.194-.536 1.194-1.194 0-.658-.535-1.194-1.194-1.194m3.411 0c-.658 0-1.194.536-1.194 1.194 0 .658.536 1.194 1.194 1.194.659 0 1.194-.536 1.194-1.194 0-.658-.535-1.194-1.194-1.194"/>
    </g>
</svg>
