<svg xmlns="http://www.w3.org/2000/svg" width="22" height="36" viewBox="0 0 22 36">
    <path fill="#FFF" fill-rule="evenodd" d="M18.942 26.202c0 .807-.648 1.463-1.446 1.463H3.428a1.456 1.456 0 0 1-1.446-1.463v-15.73c0-.806.649-1.463 1.446-1.463h14.068c.798 0 1.446.657 1.446 1.464v15.73zm2.825-15.469h-.842v-.26c0-1.907-1.538-3.457-3.429-3.457h-.22c-.622-.93-.93-2.248-.93-3.477 0-1.737 0-3.046-2.224-3.342C12.627-.002 11.23 0 10.462 0c-.767 0-2.164-.002-3.66.197C4.58.493 4.578 1.802 4.578 3.54c0 1.229-.307 2.547-.929 3.477h-.22C1.537 7.016 0 8.566 0 10.473v15.73c0 1.905 1.538 3.456 3.428 3.456h.59c.374.84.56 1.847.56 2.801 0 1.738.001 3.047 2.224 3.342 1.496.2 2.893.198 3.66.198.767 0 2.165.001 3.66-.198 2.223-.295 2.225-1.604 2.225-3.342 0-.954.186-1.962.56-2.8h.59c1.89 0 3.428-1.552 3.428-3.458v-.975h.556a.151.151 0 0 0 .151-.151v-6.599a.151.151 0 0 0-.151-.15h-.556v-3.253h.842A.233.233 0 0 0 22 14.84v-3.875a.233.233 0 0 0-.233-.233zm-9.248 3.304c-.822 0-1.611.428-2.057 1.073a2.544 2.544 0 0 0-2.056-1.073c-1.282 0-2.51 1.044-2.51 2.49 0 3.354 4.566 5.436 4.566 5.436s4.567-2.082 4.567-5.436c0-1.446-1.229-2.49-2.51-2.49"/>
</svg>
