<svg xmlns="http://www.w3.org/2000/svg" width="30" height="30" viewBox="0 0 30 30">
    <path fill="#FFF" fill-rule="evenodd" d="M21.562 15.939h-3.85l-.222-.273a.352.352 0 0 0-.3-.124.341.341 0 0 0-.28.163l-.155.27-.129-.343c-.046-.124-.176-.207-.327-.207-.15.002-.28.088-.323.214l-.651 1.904-.974-5.885c-.024-.146-.163-.254-.33-.257-.162-.006-.31.099-.342.243l-.916 4.134-.032-.05a.352.352 0 0 0-.297-.154.354.354 0 0 0-.294.149l-.165.25H8.458c-.591-1.017-.974-2.153-.974-3.397 0-2.38 2.023-4.098 4.131-4.098 1.353 0 2.653.705 3.385 1.767.733-1.062 2.032-1.767 3.385-1.767 2.108 0 4.131 1.719 4.131 4.098 0 1.23-.374 2.356-.954 3.363M15 21.522s-3.992-1.821-6.157-4.946h3.328c.098 0 .19-.037.253-.1l.2.312c.069.109.203.167.344.15.143-.018.259-.115.287-.24l.71-3.207.907 5.478c.023.142.153.248.337.258.151 0 .282-.086.326-.214l.782-2.287.047.124a.334.334 0 0 0 .3.206.354.354 0 0 0 .327-.163l.273-.472a.357.357 0 0 0 .274.122h3.643C19.02 19.688 15 21.522 15 21.522M23.292 0H6.708A6.716 6.716 0 0 0 0 6.708v16.584A6.716 6.716 0 0 0 6.708 30h16.584c3.7 0 6.708-3.01 6.708-6.708V6.708A6.715 6.715 0 0 0 23.292 0"/>
</svg>
