<svg xmlns="http://www.w3.org/2000/svg" width="30" height="27" viewBox="0 0 30 27">
    <path fill="#FFF" fill-rule="evenodd" d="M29.235 21.124c0 .52-.422.941-.941.941h-3.168v3.168c0 .519-.422.94-.94.94h-2.3a.942.942 0 0 1-.94-.94v-3.168h-3.168a.942.942 0 0 1-.941-.94v-2.3c0-.519.422-.941.94-.941h3.168v-3.168c0-.518.422-.94.941-.94h2.3c.518 0 .94.422.94.94v3.168h3.168c.519 0 .94.422.94.94v2.3zm-11.738 1.681h0zm-.742-.318l.024.017-.024-.017zm-.438-.486l.015.025-.015-.024zm8.405-8.903l-.018-.007.018.007zm.155.06l-.012-.005a.172.172 0 0 1 .012.005zm.359.217l-.006-.005.006.005zm-.214-.144l-.002-.001.002.001zm3.272 3.888h-2.402v-2.403a1.7 1.7 0 0 0-.472-1.174c.776-1.637 1.334-3.466 1.364-5.372.045-2.85-1.099-5.416-3.4-7.624A1.977 1.977 0 0 0 20.63.57l-4.92 4.92a1.948 1.948 0 0 0-.575 1.412c.006.533.222 1.03.608 1.397l1.636 1.559c.448.427.671 1.036.597 1.629-.1.8-.61 2.148-2.476 4.014-.418.418-.809.764-1.174 1.057l-1.445.957c-.572.291-1.038.418-1.395.463a1.938 1.938 0 0 1-1.63-.598L8.3 15.744a1.948 1.948 0 0 0-1.397-.608 1.958 1.958 0 0 0-1.412.575L.57 20.63a1.979 1.979 0 0 0-.155 2.601c.51.613 1.57 1.446 1.57 1.446 1.816 1.398 3.834 2.108 6.023 2.108.054 0 .108 0 .162-.002 3.757-.059 7.219-2.167 9.492-3.96.038.003.076.006.116.006h2.402v2.403c0 .94.765 1.706 1.706 1.706h2.3c.94 0 1.706-.765 1.706-1.706V22.83h2.402c.94 0 1.706-.765 1.706-1.706v-2.3c0-.94-.765-1.705-1.706-1.705z"/>
</svg>
