<svg xmlns="http://www.w3.org/2000/svg" xmlns:xlink="http://www.w3.org/1999/xlink" width="16" height="16" viewBox="0 0 16 16">
    <defs>
        <path id="a" d="M13.613 11.74a1.324 1.324 0 0 1-1.871 1.871L8 9.87 4.258 13.61a1.32 1.32 0 0 1-1.871 0 1.324 1.324 0 0 1 0-1.87l3.742-3.742-3.742-3.741a1.324 1.324 0 0 1 1.871-1.871L8 6.128l3.742-3.741a1.324 1.324 0 0 1 1.871 1.87L9.871 8l3.742 3.741z"/>
    </defs>
    <g fill="none" fill-rule="evenodd">
        <mask id="b" fill="#fff">
            <use xlink:href="#a"/>
        </mask>
        <g fill="#4a4a4a" mask="url(#b)">
            <path d="M0 0h16v16H0z"/>
        </g>
    </g>
</svg>
