<svg xmlns="http://www.w3.org/2000/svg" xmlns:xlink="http://www.w3.org/1999/xlink" width="24" height="24" viewBox="0 0 24 24">
    <defs>
        <path id="a" d="M15 12.333a.64.64 0 0 1-.198.47l-4.667 4.666a.64.64 0 0 1-.468.198.64.64 0 0 1-.47-.198A.64.64 0 0 1 9 17V7.667a.64.64 0 0 1 .198-.47A.64.64 0 0 1 9.667 7a.64.64 0 0 1 .468.198l4.667 4.667a.64.64 0 0 1 .198.468z"/>
    </defs>
    <g fill="none" fill-rule="evenodd">
        <path d="M0 0h24v24H0z"/>
        <mask id="b" fill="#fff">
            <use xlink:href="#a"/>
        </mask>
        <g fill="#666669" mask="url(#b)">
            <path d="M0 0h24v24H0z"/>
        </g>
    </g>
</svg>
