<svg xmlns="http://www.w3.org/2000/svg" width="20" height="12" viewBox="0 0 20 12">
    <path fill="#1E8FE1" fill-rule="evenodd" d="M14.646 7.992C15.482 8.455 16 9.365 16 10.365v.426c0 .666-.512 1.209-1.143 1.209H5.142C4.512 12 4 11.457 4 10.791v-.426c0-1 .518-1.91 1.353-2.373 1.09-.605 2.78-1.325 4.647-1.325 1.866 0 3.557.72 4.646 1.325zM5.03 7.41a3.26 3.26 0 0 0-1.326 1.406.334.334 0 0 1-.298.185H.857C.385 9 0 8.57 0 8.041v-.304c0-.744.353-1.422.923-1.772C1.643 5.525 2.761 5 4 5c1.221 0 2.325.512 3.037.943a.332.332 0 1 1-.064.6c-.662.228-1.334.528-1.944.866zm14.047-1.444c.57.35.924 1.028.924 1.772v.304c0 .529-.385.959-.857.959h-2.548a.333.333 0 0 1-.298-.185 3.254 3.254 0 0 0-1.328-1.406 12.385 12.385 0 0 0-1.942-.866.332.332 0 0 1-.064-.6C13.673 5.512 14.777 5 16 5c1.24 0 2.357.525 3.076.965zM10 6C8.346 6 7 4.654 7 3s1.346-3 3-3 3 1.346 3 3-1.346 3-3 3zm6-1.333a2.336 2.336 0 0 1-2.333-2.334A2.336 2.336 0 0 1 16 0a2.336 2.336 0 0 1 2.333 2.333A2.336 2.336 0 0 1 16 4.667zm-12 0a2.336 2.336 0 0 1-2.333-2.334A2.336 2.336 0 0 1 4 0a2.336 2.336 0 0 1 2.333 2.333A2.336 2.336 0 0 1 4 4.667z"/>
</svg>
