<svg xmlns="http://www.w3.org/2000/svg" width="125" height="86" viewBox="0 0 125 86">
    <g fill="none" fill-rule="evenodd">
        <path fill="#93A9C4" d="M48.361 66.646c-1.511-1.501-3.33-2.252-5.455-2.252-2.136 0-3.954.75-5.455 2.252-1.26 1.27-1.994 2.76-2.202 4.47a5.24 5.24 0 0 0-2.054-.396c-1.435 0-2.657.505-3.665 1.513-1.018 1.018-1.528 2.245-1.528 3.68s.51 2.657 1.528 3.665c.976.986 2.153 1.495 3.533 1.528h19.653c1.391-.022 2.58-.532 3.566-1.528 1.008-1.008 1.511-2.23 1.511-3.665s-.503-2.662-1.511-3.68c-1.02-1.008-2.246-1.513-3.681-1.513-.734 0-1.413.132-2.038.395-.208-1.71-.942-3.199-2.202-4.47"/>
        <path fill="#93A9C4" d="M66.075 64.394c-2.125 0-3.938.75-5.439 2.252-1.27 1.26-2.01 2.75-2.218 4.469a5.019 5.019 0 0 0-2.038-.41c-1.435 0-2.662.509-3.68 1.528-1.008 1.007-1.512 2.229-1.512 3.664 0 1.446.504 2.673 1.511 3.68.986.986 2.17 1.496 3.55 1.529h19.636c1.391-.033 2.58-.543 3.566-1.529 1.018-1.007 1.528-2.234 1.528-3.68 0-1.435-.51-2.657-1.528-3.664-1.008-1.02-2.23-1.529-3.665-1.529a5.06 5.06 0 0 0-2.054.411c-.197-1.72-.93-3.21-2.201-4.47-1.501-1.5-3.32-2.25-5.456-2.25"/>
        <path fill="#A6BFDD" d="M122.93 75.749a3.77 3.77 0 0 0-.313-.28c1.425-2.749 2.136-5.794 2.136-9.135 0-4.59-1.33-8.627-3.993-12.111.614 1.928.92 3.982.92 6.162 0 5.346-1.883 9.903-5.652 13.672a20.419 20.419 0 0 1-3.894 3.072c-.405.241-.81.466-1.216.674-2.607 1.281-5.472 1.923-8.594 1.923-4.48 0-8.413-1.331-11.798-3.994a7.44 7.44 0 0 1-.986 1.167c-1.643 1.643-3.62 2.465-5.932 2.465-1.314 0-2.514-.258-3.599-.773-.558 1.622-1.495 3.09-2.81 4.405a12.308 12.308 0 0 1-3.154 2.283c-1.534.734-3.216 1.101-5.045 1.101-.044 0-.082.039-.115.115h49.756c1.336-.032 2.52-.438 3.55-1.216.262-.197.508-.41.739-.64 1.226-1.227 1.84-2.706 1.84-4.437 0-1.742-.614-3.226-1.84-4.453M-11.91 60.385c0-2.18.311-4.234.936-6.162-2.622 3.417-3.958 7.366-4.01 11.848v.788c.075 3.126.782 5.996 2.12 8.61l-.296.28C-14.386 76.976-15 78.46-15 80.202c0 1.73.614 3.21 1.84 4.437.23.23.477.443.74.64 1.03.778 2.212 1.184 3.549 1.216h49.74c-.033-.076-.072-.115-.116-.115-1.83 0-3.505-.367-5.028-1.1a12.58 12.58 0 0 1-3.171-2.284c-1.315-1.315-2.246-2.783-2.794-4.405-1.095.515-2.3.773-3.615.773-2.3 0-4.272-.822-5.915-2.465a7.404 7.404 0 0 1-.986-1.167c-3.374 2.663-7.307 3.994-11.798 3.994-5.346 0-9.914-1.89-13.704-5.67-2.144-2.144-3.678-4.543-4.601-7.197a30.77 30.77 0 0 1-.263-.788c-.526-1.785-.789-3.68-.789-5.686"/>
        <path fill="#F3F2EC" d="M5.704 46.171H4.62c-5.3.13-9.841 2.07-13.622 5.817a.487.487 0 0 1-.066.082 23.454 23.454 0 0 0-1.906 2.153c-.625 1.928-.937 3.982-.937 6.162 0 2.006.263 3.901.789 5.686.084.265.172.528.263.788.923 2.654 2.457 5.053 4.6 7.198 3.791 3.779 8.36 5.669 13.705 5.669 4.492 0 8.424-1.331 11.798-3.994.274.406.603.795.986 1.167 1.643 1.643 3.615 2.465 5.916 2.465 1.314 0 2.52-.258 3.615-.773.547 1.622 1.478 3.09 2.793 4.405a12.568 12.568 0 0 0 3.171 2.283c1.523.734 3.199 1.101 5.029 1.101.043 0 .082.039.115.115h28.016c.033-.076.071-.115.115-.115 1.83 0 3.511-.367 5.045-1.1a12.306 12.306 0 0 0 3.155-2.284c1.314-1.315 2.25-2.783 2.81-4.405 1.084.515 2.283.773 3.598.773 2.311 0 4.289-.822 5.932-2.465a7.44 7.44 0 0 0 .986-1.167c3.385 2.663 7.318 3.994 11.798 3.994 3.122 0 5.986-.642 8.594-1.923.405-.208.81-.433 1.216-.674a20.429 20.429 0 0 0 3.894-3.072c3.769-3.769 5.653-8.326 5.653-13.672 0-2.18-.307-4.234-.92-6.162a25.29 25.29 0 0 0-1.923-2.153c-2.015-2.026-4.25-3.527-6.704-4.502-.405-.164-.81-.312-1.216-.444-1.917-.613-3.955-.93-6.113-.953h-.723c-5.357.12-9.941 2.087-13.753 5.9-3.429 3.428-5.363 7.481-5.8 12.159a7.106 7.106 0 0 0-.97-.066c-1.885 0-3.495.669-4.831 2.005-1.337 1.336-2.005 2.947-2.005 4.831 0 1.008.197 1.939.592 2.794h-.148c-1.085 0-2.005.372-2.76 1.117-.746.756-1.118 1.676-1.118 2.76 0 .362.038.707.114 1.035-.372.034-.755.06-1.15.083h-.624c-3.308-.077-6.151-1.298-8.528-3.664-2.388-2.4-3.599-5.297-3.631-8.693l.016-20.26V.013h-9.17v66.417a38.058 38.058 0 0 1-.098 1.595c-.35 2.705-1.533 5.072-3.549 7.099-2.377 2.355-5.214 3.576-8.512 3.664H37.5a35.079 35.079 0 0 1-1.134-.083 3.89 3.89 0 0 0 .132-1.034c0-1.085-.378-2.005-1.134-2.761a3.894 3.894 0 0 0-1.348-.87 3.993 3.993 0 0 0-1.413-.247h-.148c.395-.811.592-1.742.592-2.794 0-1.413-.367-2.662-1.101-3.747a6.423 6.423 0 0 0-.904-1.084c-1.281-1.282-2.81-1.944-4.584-1.988a1.71 1.71 0 0 0-.247-.017c-.34 0-.663.022-.97.066a18.297 18.297 0 0 0-.196-1.578c-.69-3.987-2.558-7.514-5.604-10.582-3.254-3.253-7.065-5.165-11.436-5.734a7.807 7.807 0 0 1-.23-.017 20.989 20.989 0 0 0-2.07-.148"/>
    </g>
</svg>
