<svg xmlns="http://www.w3.org/2000/svg" xmlns:xlink="http://www.w3.org/1999/xlink" width="24" height="24" viewBox="0 0 24 24">
    <defs>
        <path id="a" d="M15.75 12a.72.72 0 0 1-.223.527l-5.25 5.25A.72.72 0 0 1 9.75 18a.72.72 0 0 1-.527-.223A.72.72 0 0 1 9 17.25V6.75a.72.72 0 0 1 .223-.527A.72.72 0 0 1 9.75 6a.72.72 0 0 1 .527.223l5.25 5.25a.72.72 0 0 1 .223.527z"/>
    </defs>
    <g fill="none" fill-rule="evenodd">
        <path d="M0 0h24v24H0z"/>
        <mask id="b" fill="#fff">
            <use xlink:href="#a"/>
        </mask>
        <use fill="#000" opacity=".6" xlink:href="#a"/>
        <g fill="#d3dfe4" mask="url(#b)">
            <path d="M0 0h24v24H0z"/>
        </g>
    </g>
</svg>
