<svg xmlns="http://www.w3.org/2000/svg" xmlns:xlink="http://www.w3.org/1999/xlink" width="16" height="16" viewBox="0 0 16 16">
    <defs>
        <path id="a" d="M8 0C3.59 0 0 3.589 0 8s3.59 8 8 8c4.411 0 8-3.589 8-8s-3.589-8-8-8"/>
        <path id="c" d="M6.567 11.817a.623.623 0 0 1-.884 0l-2.5-2.5a.625.625 0 0 1 .884-.884l2.057 2.058 5.81-5.808a.625.625 0 0 1 .883.884l-6.25 6.25z"/>
    </defs>
    <g fill="none" fill-rule="evenodd">
        <mask id="b" fill="#fff">
            <use xlink:href="#a"/>
        </mask>
        <g fill="#2ECD71" mask="url(#b)">
            <path d="M0 0h16v16H0z"/>
        </g>
        <mask id="d" fill="#fff">
            <use xlink:href="#c"/>
        </mask>
        <g fill="#FFF" mask="url(#d)">
            <path d="M0 0h16v16H0z"/>
        </g>
    </g>
</svg>
