<svg xmlns="http://www.w3.org/2000/svg" xmlns:xlink="http://www.w3.org/1999/xlink" width="22" height="22" viewBox="0 0 22 22">
    <defs>
        <rect id="a" width="21.667" height="21.667" x="2.167" y="2.167" rx="2"/>
        <path id="c" d="M4.167 2.167h17.666a2 2 0 0 1 2 2v17.666a2 2 0 0 1-2 2H4.167a2 2 0 0 1-2-2V4.167a2 2 0 0 1 2-2zM4.25 3.25a1 1 0 0 0-1 1v17.5a1 1 0 0 0 1 1h17.5a1 1 0 0 0 1-1V4.25a1 1 0 0 0-1-1H4.25z"/>
        <path id="e" d="M18.734 7.9a1.083 1.083 0 1 1 1.532 1.533l-9.286 9.285a1.083 1.083 0 0 1-1.532 0l-3.714-3.714a1.083 1.083 0 0 1 1.532-1.532l2.948 2.948 8.52-8.52z"/>
    </defs>
    <g fill="none" fill-rule="evenodd" transform="translate(-2 -2)">
        <path d="M0 0h26v26H0z"/>
        <mask id="b" fill="#fff">
            <use xlink:href="#a"/>
        </mask>
        <use fill="#D8D8D8" xlink:href="#a"/>
        <g fill="#4C8CE4" mask="url(#b)">
            <path d="M0 0h26v26H0z"/>
        </g>
        <mask id="d" fill="#fff">
            <use xlink:href="#c"/>
        </mask>
        <use fill="#FFF" xlink:href="#c"/>
        <g fill="#4C8CE4" mask="url(#d)">
            <path d="M0 0h26v26H0z"/>
        </g>
        <mask id="f" fill="#fff">
            <use xlink:href="#e"/>
        </mask>
        <use fill="#303C42" fill-rule="nonzero" xlink:href="#e"/>
        <g fill="#FFF" mask="url(#f)">
            <path d="M0 0h26v26H0z"/>
        </g>
    </g>
</svg>
