<?xml version="1.0" encoding="UTF-8"?>
<svg width="24px" height="18px" viewBox="0 0 24 18" version="1.1" xmlns="http://www.w3.org/2000/svg" xmlns:xlink="http://www.w3.org/1999/xlink">
    <!-- Generator: Sketch 46.2 (44496) - http://www.bohemiancoding.com/sketch -->
    <title>ICN_Checkmark_2</title>
    <desc>Created with Sketch.</desc>
    <defs></defs>
    <g id="Review-and-Approve" stroke="none" stroke-width="1" fill="none" fill-rule="evenodd">
        <g id="Documentation---Desktop-HD" transform="translate(-195.000000, -323.000000)" fill="#2ECC71">
            <g id="Checkbox" transform="translate(192.000000, 317.000000)">
                <path d="M26.2444196,9.92633929 C26.2444196,10.313246 26.1090043,10.6421117 25.8381696,10.9129464 L13.3604911,23.390625 C13.0896564,23.6614597 12.7607906,23.796875 12.3738839,23.796875 C11.9869772,23.796875 11.6581115,23.6614597 11.3872768,23.390625 L4.16183036,16.1651786 C3.89099567,15.8943439 3.75558036,15.5654781 3.75558036,15.1785714 C3.75558036,14.7916647 3.89099567,14.462799 4.16183036,14.1919643 L6.13504464,12.21875 C6.40587933,11.9479153 6.73474509,11.8125 7.12165179,11.8125 C7.50855848,11.8125 7.83742424,11.9479153 8.10825893,12.21875 L12.3738839,16.4988839 L21.8917411,6.96651786 C22.1625758,6.69568317 22.4914415,6.56026786 22.8783482,6.56026786 C23.2652549,6.56026786 23.5941207,6.69568317 23.8649554,6.96651786 L25.8381696,8.93973214 C26.1090043,9.21056683 26.2444196,9.53943259 26.2444196,9.92633929 Z" id="ICN_Checkmark_2"></path>
            </g>
        </g>
    </g>
</svg>