<svg xmlns="http://www.w3.org/2000/svg" xmlns:xlink="http://www.w3.org/1999/xlink" width="24" height="24" viewBox="0 0 24 24">
    <defs>
        <path id="a" d="M4 15h16a1 1 0 0 1 0 2H4a1 1 0 0 1 0-2zm0-4h16a1 1 0 0 1 0 2H4a1 1 0 0 1 0-2zm0-4h16a1 1 0 0 1 0 2H4a1 1 0 1 1 0-2z"/>
    </defs>
    <g fill="none" fill-rule="evenodd">
        <path d="M0 0h24v24H0z"/>
        <mask id="b" fill="#fff">
            <use xlink:href="#a"/>
        </mask>
        <path stroke="#979797" d="M4 15.5a.5.5 0 1 0 0 1h16a.5.5 0 1 0 0-1H4zm0-4a.5.5 0 1 0 0 1h16a.5.5 0 1 0 0-1H4zm0-4a.5.5 0 0 0 0 1h16a.5.5 0 1 0 0-1H4z"/>
        <g fill="#666669" mask="url(#b)">
            <path d="M0 0h24v24H0z"/>
        </g>
    </g>
</svg>
