<svg xmlns="http://www.w3.org/2000/svg" xmlns:xlink="http://www.w3.org/1999/xlink" width="18" height="18" viewBox="0 0 18 18">
    <defs>
        <path id="a" d="M16.45 12.8a.7.7 0 0 1-.7.7H15V4.7c0-.937-.763-1.7-1.7-1.7H4.5v-.612a.7.7 0 0 1 .7-.7h10.55a.7.7 0 0 1 .7.7V12.8zm-3.006 3.008a.64.64 0 0 1-.64.64h-10.6a.64.64 0 0 1-.64-.64v-10.6a.64.64 0 0 1 .64-.64h10.6a.64.64 0 0 1 .64.64v10.6zM4.7 0C3.763 0 3 .763 3 1.7V3H1.7C.763 3 0 3.763 0 4.7v11.6c0 .937.763 1.7 1.7 1.7h11.6c.937 0 1.7-.763 1.7-1.7V15h1.3c.937 0 1.7-.763 1.7-1.7V1.7c0-.937-.763-1.7-1.7-1.7H4.7z"/>
    </defs>
    <g fill="none" fill-rule="evenodd">
        <mask id="b" fill="#fff">
            <use xlink:href="#a"/>
        </mask>
        <use fill="#231F20" xlink:href="#a"/>
        <g fill="#B0BAC9" mask="url(#b)">
            <path d="M0 0h18v18H0z"/>
        </g>
    </g>
</svg>
