<svg xmlns="http://www.w3.org/2000/svg" xmlns:xlink="http://www.w3.org/1999/xlink" width="16" height="16" viewBox="0 0 16 16">
    <defs>
        <path id="a" d="M8.615 8.615v2.462a.616.616 0 0 1-1.23 0V8.615H4.923a.616.616 0 0 1 0-1.23h2.462V4.923a.616.616 0 0 1 1.23 0v2.462h2.462a.616.616 0 0 1 0 1.23H8.615zM8 0C3.59 0 0 3.589 0 8s3.59 8 8 8c4.411 0 8-3.589 8-8s-3.589-8-8-8"/>
    </defs>
    <g fill="none" fill-rule="evenodd">
        <mask id="b" fill="#fff">
            <use xlink:href="#a"/>
        </mask>
        <g fill="#1E8FE1" mask="url(#b)">
            <path d="M0 0h16v16H0z"/>
        </g>
    </g>
</svg>
