<svg xmlns="http://www.w3.org/2000/svg" width="30" height="28" viewBox="0 0 30 28">
    <path fill="#34537D" fill-rule="evenodd" d="M21.658 12.983a1.414 1.414 0 1 1 0-2.827 1.414 1.414 0 0 1 0 2.827m-6.658 0a1.414 1.414 0 1 1 0-2.827 1.414 1.414 0 0 1 0 2.827m-6.658 0a1.414 1.414 0 1 1 0-2.827 1.414 1.414 0 0 1 0 2.827M27.061 0H2.939A2.942 2.942 0 0 0 0 2.94v17.122c0 1.62 1.318 2.94 2.94 2.94h19.885c.435 0 .86.176 1.165.485l3.613 3.655a1.395 1.395 0 0 0 1.529.311c.527-.217.868-.725.868-1.295V2.939C30 1.32 28.681 0 27.06 0"/>
</svg>
