<svg xmlns="http://www.w3.org/2000/svg" width="62" height="57" viewBox="0 0 62 57">
    <g fill="none" fill-rule="evenodd">
        <path fill="#FF7171" d="M0 3.219A3.173 3.173 0 0 1 3.172.047h36.31a3.172 3.172 0 0 1 3.173 3.172v22.059a3.172 3.172 0 0 1-3.172 3.172H26.717c-6.574 0-13 2.853-18.457 6.521l-.023.016a.45.45 0 0 1-.7-.373V28.45H3.172A3.172 3.172 0 0 1 0 25.278V3.219z"/>
        <path fill="#F7E07E" d="M61.641 18.303a3.836 3.836 0 0 0-3.836-3.836H18.256a3.836 3.836 0 0 0-3.836 3.836v26.674a3.836 3.836 0 0 0 3.836 3.836h11.077c7.95 0 15.72 3.45 22.32 7.886a.56.56 0 0 0 .874-.466v-7.42h5.278a3.836 3.836 0 0 0 3.836-3.836V18.303z"/>
        <path fill="#D9C25D" d="M54.972 25.017c0 .75-.608 1.36-1.359 1.36H22.448a1.36 1.36 0 0 1-1.36-1.36v-.318c0-.75.61-1.36 1.36-1.36h31.165c.75 0 1.36.61 1.36 1.36v.318zM54.972 32.064c0 .75-.608 1.359-1.359 1.359H22.448a1.36 1.36 0 0 1-1.36-1.36v-.317c0-.751.61-1.36 1.36-1.36h31.165c.75 0 1.36.609 1.36 1.36v.318zM47.762 39.11c0 .751-.608 1.36-1.36 1.36H22.449a1.36 1.36 0 0 1-1.36-1.36v-.318c0-.75.61-1.359 1.36-1.359h23.955c.75 0 1.36.609 1.36 1.36v.317z"/>
    </g>
</svg>
