<svg xmlns="http://www.w3.org/2000/svg" width="140" height="59" viewBox="0 0 140 59">
    <g fill="none" fill-rule="evenodd">
        <path fill="#D1B953" d="M137.416 1.91v55.045l-33.205-29.108zM48.707 1.91l33.205 25.937-33.205 29.108z"/>
        <path fill="#E6CD64" d="M136.474 57.107h-88.71L80.97 28l11.148 8.705L103.268 28z"/>
        <path fill="#D1B953" d="M135.507 56.955h3.818V1.91h-3.818zM46.798 56.955h3.818V1.909h-3.818z"/>
        <path fill="#F7E07E" d="M105.387 29.352l-2.352-3.009L131.87 3.818H54.252l28.835 22.525-2.35 3.009L47.53 3.414A1.908 1.908 0 0 1 48.707 0h88.709a1.908 1.908 0 1 1 1.176 3.413l-33.205 25.939z"/>
        <path fill="#E6CD64" d="M53.78 55.045h78.563l-28.204-24.721-9.904 7.733c-.691.54-1.66.54-2.35 0l-9.903-7.733L53.78 55.045zm83.636 3.819H48.707a1.911 1.911 0 0 1-1.788-1.237 1.912 1.912 0 0 1 .528-2.108l33.205-29.107a1.91 1.91 0 0 1 2.434-.07l9.974 7.789 9.976-7.788a1.908 1.908 0 0 1 2.433.069l33.206 29.107a1.908 1.908 0 0 1-1.259 3.345z"/>
        <path fill="#B8C7CE" d="M35.088 23.252H21.61a1.909 1.909 0 1 1 0-3.818h13.478a1.909 1.909 0 1 1 0 3.818M35.088 33.448H11.76a1.909 1.909 0 1 1 0-3.819h23.33a1.909 1.909 0 1 1 0 3.819M35.088 43.654H1.91a1.909 1.909 0 1 1 0-3.818h33.18a1.909 1.909 0 1 1 0 3.818"/>
        <path fill="#F7E07E" d="M138.343 3.294L104.13 30.02l-11.49 8.97-11.485-8.97L46.94 3.294z"/>
    </g>
</svg>
