<svg xmlns="http://www.w3.org/2000/svg" width="31" height="32" viewBox="0 0 31 32">
    <g fill="none" fill-rule="evenodd">
        <path fill="#FF4848" d="M2.749 32.011c.762.135 1.663-.031 2.625-.55l16.884-9.09-4.912-4.89-14.597 14.53z"/>
        <path fill="#00BAE0" d="M1.089 1.3C.667 1.9.425 2.726.425 3.743v24.761c0 .991.23 1.8.63 2.395L15.94 16.083 1.09 1.3z"/>
        <path fill="#67E888" d="M22.226 9.827L5.377.781C4.441.279 3.564.106 2.817.22l14.53 14.463 4.88-4.857z"/>
        <path fill="#F7E07E" d="M24.083 21.389l4.875-2.626c2.723-1.465 2.721-3.861-.003-5.324l-4.902-2.632-5.301 5.276 5.33 5.306z"/>
    </g>
</svg>
