<svg xmlns="http://www.w3.org/2000/svg" width="37" height="37" viewBox="0 0 37 37">
    <g fill="none" fill-rule="evenodd">
        <path fill="#1F95F2" d="M18.257 0C8.19 0 0 8.19 0 18.257c0 10.067 8.19 18.258 18.257 18.258 10.067 0 18.258-8.19 18.258-18.258C36.515 8.19 28.325 0 18.257 0"/>
        <path fill="#FFF" d="M31.729 19.614c0 .336-.275.61-.613.61h-3.233a1.864 1.864 0 0 0-.192-.553c-.083-.15-.296-.554-.593-1.119a417.897 417.897 0 0 0-1.701-3.204h5.719c.338 0 .613.276.613.61v3.656zm-1.433 9.388c-.202-.64-1.735-.682-2.42-1.647-.689-.962-.12-1.456.12-1.685 2.782-1.561 2.3 3.332 2.3 3.332zm-3.537-3.965l-.962-1.511a.598.598 0 0 1 .226-.869l.917-.469a.676.676 0 0 1 .899.298l.759 1.452a.716.716 0 0 1-.256.935l-.655.39a.691.691 0 0 1-.928-.226zm-2.092-3.36c-.637-.318-3.82-7.625-4.635-9.533-.816-1.906-3.279-6.98-2.482-7.375.567-.284 2.601 3.712 4.128 6.112 1.523 2.4 4.71 8.585 5.1 9.29.392.707-.373 1.295-.8 1.472-.425.177-.672.352-1.31.035zm-9.16-1.454l2.812-4.875h1.619l2.285 4.875h-6.717zm-5.624 5.53l-1.595-.912a.606.606 0 0 1-.225-.83l7.388-12.808a.617.617 0 0 1 .837-.225l1.597.91a.61.61 0 0 1 .224.833L10.72 25.53a.617.617 0 0 1-.838.224zm-.495 1.348l-2.062 1.396c-.277.189-.473.07-.435-.263l.275-2.39c.04-.334.308-.47.6-.303l1.597.912c.29.167.302.46.025.648zm-4.602-7.487v-3.656c0-.334.275-.61.613-.61h6.46l-2.813 4.875H5.399a.611.611 0 0 1-.613-.61z"/>
    </g>
</svg>
