<svg xmlns="http://www.w3.org/2000/svg" width="42" height="76" viewBox="0 0 42 76">
    <g fill="none" fill-rule="evenodd">
        <path fill="#D3DFE4" d="M0 5.001A5 5 0 0 1 5.003 0h30.793a5.016 5.016 0 0 1 5.017 5.001L41.006 71A4.983 4.983 0 0 1 36.011 76H5.01A5.002 5.002 0 0 1 0 70.999V5z"/>
        <path fill="#F5FBFF" d="M3 7h34.81L38 67H3z"/>
        <rect width="24.963" height="5.941" x="8" y="54" fill="#8BE48F" rx="2.97"/>
        <rect width="16" height="1.5" x="13" y="46" fill="#CFD8DC" rx=".75"/>
        <rect width="23" height="1.5" x="9" y="42" fill="#CFD8DC" rx=".75"/>
        <rect width="20" height="1.5" x="11" y="38" fill="#CFD8DC" rx=".75"/>
        <rect width="14" height="1.5" x="14" y="34" fill="#CFD8DC" rx=".75"/>
        <circle cx="21" cy="25" r="7" fill="#FF7171"/>
    </g>
</svg>
