<svg xmlns="http://www.w3.org/2000/svg" xmlns:xlink="http://www.w3.org/1999/xlink" width="217" height="401" viewBox="0 0 217 401">
    <defs>
        <path id="b" d="M0 19.998C0 8.953 8.947 0 20 0h148.132c11.045 0 20.024 8.964 20.055 19.998l.914 332.882c.03 11.044-8.894 19.998-19.942 19.998H19.997C8.953 372.878 0 363.914 0 352.88V19.998z"/>
        <filter id="a" width="127.5%" height="113.9%" x="-13.7%" y="-4.3%" filterUnits="objectBoundingBox">
            <feOffset dy="10" in="SourceAlpha" result="shadowOffsetOuter1"/>
            <feGaussianBlur in="shadowOffsetOuter1" result="shadowBlurOuter1" stdDeviation="7"/>
            <feColorMatrix in="shadowBlurOuter1" values="0 0 0 0 0 0 0 0 0 0 0 0 0 0 0 0 0 0 0.1 0"/>
        </filter>
        <path id="c" d="M0 51.303h45.98V.486H0z"/>
    </defs>
    <g fill="none" fill-rule="evenodd" transform="translate(14 4)">
        <use fill="#000" filter="url(#a)" xlink:href="#b"/>
        <use fill="#4A4A4A" xlink:href="#b"/>
        <path fill="#3D3D3D" d="M108.368 353.5c0 8.009-6.351 14.502-14.184 14.502C86.35 368.002 80 361.509 80 353.5S86.35 339 94.184 339c7.833 0 14.184 6.493 14.184 14.5"/>
        <path fill="#F5FBFF" d="M10 26h170v308.66H10z"/>
        <rect width="95.771" height="21.517" x="47" y="290" fill="#83C6A8" rx="10.759"/>
        <text fill="#FFF" font-family="Roboto-Regular, Roboto" font-size="10">
            <tspan x="82.659" y="301">Share</tspan>
        </text>
        <path stroke="#D7E1E7" stroke-linecap="square" stroke-width=".5" d="M10 56.125h170"/>
        <g transform="translate(71 88)">
            <path fill="#83C6A8" d="M43 40.73L26.036 50.5a6.022 6.022 0 0 1-5.984.014L3.045 40.816a5.933 5.933 0 0 1-3.002-5.138L0 16.21a5.933 5.933 0 0 1 2.98-5.15l16.965-9.77a6.022 6.022 0 0 1 5.984-.014l17.006 9.698a5.933 5.933 0 0 1 3.003 5.138l.043 19.469a5.933 5.933 0 0 1-2.98 5.15"/>
            <mask id="d" fill="#fff">
                <use xlink:href="#c"/>
            </mask>
            <path fill="#FEFEFE" d="M36.578 36.452h3.08V27.18h-3.08zM5.177 30.135h3.064v-9.258H5.177zM30.276 26.966h2.978v-9.25h-2.978zM17.689 30.142h2.951v-9.296H17.69zM26.991 25.508c-.004.868-.768 1.63-1.613 1.608-.789-.02-1.544-.787-1.558-1.582-.015-.855.752-1.657 1.59-1.662.855-.005 1.586.75 1.581 1.636M33.342 31.675c0 .89-.743 1.647-1.587 1.621-.85-.027-1.615-.83-1.584-1.664.03-.807.769-1.54 1.576-1.563.864-.023 1.595.713 1.595 1.606M11.331 16.096c0-.806.735-1.557 1.545-1.581.837-.026 1.663.764 1.661 1.588-.002.79-.758 1.556-1.558 1.58-.863.028-1.648-.728-1.648-1.587M14.538 28.68c.002.76-.778 1.548-1.551 1.567-.892.023-1.644-.688-1.65-1.56-.007-.858.778-1.62 1.641-1.593.773.024 1.558.823 1.56 1.586M38.083 14.537c.798-.026 1.574.687 1.627 1.493.053.798-.659 1.606-1.455 1.652-.77.045-1.666-.765-1.715-1.55-.045-.717.78-1.57 1.543-1.595M19.166 14.535c.814-.009 1.547.709 1.578 1.544.032.846-.65 1.593-1.489 1.63-.877.038-1.628-.702-1.62-1.6.007-.886.668-1.566 1.53-1.574M11.34 34.872c.025-.874.797-1.571 1.685-1.52.828.046 1.533.794 1.509 1.602-.024.78-.813 1.547-1.591 1.544-.87-.004-1.626-.77-1.602-1.626M12.894 20.892c.85-.008 1.613.695 1.616 1.49.003.823-.713 1.519-1.575 1.53-.895.01-1.572-.623-1.594-1.491-.022-.854.655-1.52 1.553-1.529M38.128 20.895c.823 0 1.59.727 1.585 1.502-.006.857-.689 1.515-1.571 1.514-.844 0-1.593-.705-1.601-1.508-.01-.813.722-1.507 1.587-1.508M20.679 34.935c.008.916-.602 1.538-1.512 1.542-.9.004-1.535-.63-1.531-1.53.004-.947.582-1.53 1.52-1.534.935-.003 1.514.576 1.523 1.522" mask="url(#d)"/>
        </g>
        <text fill="#666669" font-family="Roboto-Regular, Roboto" font-size="11">
            <tspan x="32.319" y="202">Unfortunately, you are not </tspan> <tspan x="25.036" y="216">eligible for this study. Please </tspan> <tspan x="28.592" y="230">feel free to share this study </tspan> <tspan x="22.673" y="244">with any friends or family that </tspan> <tspan x="57.077" y="258">may be eligible.</tspan>
        </text>
        <text fill="#4C6473" font-family="Roboto-Medium, Roboto" font-size="14" font-weight="400">
            <tspan x="52.274" y="166">Thank you for </tspan> <tspan x="54.154" y="183">your interest!</tspan>
        </text>
        <text fill="#666669" font-family="Roboto-Medium, Roboto" font-size="10" font-weight="400">
            <tspan x="74.803" y="45">Eligibility</tspan>
        </text>
        <path fill="#4C6473" d="M23.385 36.177L22.214 35 16 41.24l6.214 6.239 1.171-1.177-5.042-5.063 5.042-5.062z"/>
    </g>
</svg>
