<svg xmlns="http://www.w3.org/2000/svg" width="82" height="45" viewBox="0 0 82 45">
    <g fill="#7ECBF7" fill-rule="evenodd">
        <path d="M42.022 14.044c.108-.655.18-1.324.18-2.01C42.202 5.384 36.813 0 30.164 0c-4.444 0-8.318 2.415-10.402 6a7.616 7.616 0 0 0-11.84 6.342c0 .012.003.025.003.038C3.487 12.765 0 16.483 0 21.024c0 4.794 3.89 8.682 8.685 8.682H36.87c4.796 0 8.687-3.888 8.687-8.682 0-2.866-1.395-5.398-3.534-6.98" opacity=".2"/>
        <path d="M76.464 24.017c.142-.854.235-1.727.235-2.622 0-8.675-7.03-15.7-15.705-15.7-5.799 0-10.853 3.15-13.572 7.828a9.889 9.889 0 0 0-5.51-1.666c-5.485 0-9.937 4.445-9.937 9.94 0 .016.004.033.004.05-5.79.502-10.34 5.353-10.34 11.277 0 6.255 5.076 11.328 11.331 11.328h36.771c6.258 0 11.334-5.073 11.334-11.328 0-3.74-1.82-7.042-4.611-9.107"/>
    </g>
</svg>
