<svg xmlns="http://www.w3.org/2000/svg" xmlns:xlink="http://www.w3.org/1999/xlink" width="64" height="58" viewBox="0 0 64 58">
    <defs>
        <path id="a" d="M0 .426V57.29h63.77V.426H0z"/>
    </defs>
    <g fill="none" fill-rule="evenodd">
        <g transform="translate(0 .09)">
            <mask id="b" fill="#fff">
                <use xlink:href="#a"/>
            </mask>
            <path fill="#C97C8B" d="M62.687 29.706a1.056 1.056 0 0 1-.135-.782c.323-1.439.498-2.914.498-4.467 0-5.164-1.884-9.897-5-13.534a1.087 1.087 0 0 0-.048-.05.774.774 0 0 0-.044-.056C54.296 6.6 48.955 3.87 42.982 3.66c-1.734-.874-4.043-1.666-6.435-2.256-2.414-.594-4.895-.978-6.943-.98a28.166 28.166 0 0 0-14.307 3.903c-.118.07-.247.122-.38.155C6.978 6.47 1.103 13.62.992 22.142a7.774 7.774 0 0 0 6.78 11.574h8.047c.275 0 .493.216.515.491a7.68 7.68 0 0 0 7.654 7.065h12c.421 0 .797.251.955.64l4.728 11.634a6.044 6.044 0 0 0 3.284 3.28 6.043 6.043 0 0 0 5.04-.18c2.875-1.438 4.037-4.951 2.808-7.921l-.34-.82a.518.518 0 0 1 .195-.628c2-1.35 3.513-3.367 4.212-5.735a.519.519 0 0 1 .421-.367 7.68 7.68 0 0 0 6.48-7.583 7.433 7.433 0 0 0-1.085-3.886" mask="url(#b)"/>
        </g>
        <path fill="#E99BA7" d="M60.208 37.8a5.798 5.798 0 0 1-4.118 1.705H23.99c-1.611 0-3.06-.65-4.117-1.705a5.8 5.8 0 0 1-1.705-4.117 5.8 5.8 0 0 1 2.724-4.929.93.93 0 0 0 .272-.161 5.787 5.787 0 0 1 2.826-.732c4.77-.001 9.494-.696 13.482-3.075a16.537 16.537 0 0 1 8.586-2.375c.83 0 1.647.06 2.444.175.46.066.933-.175 1.076-.618a.93.93 0 0 0-.746-1.211 18.921 18.921 0 0 0-2.774-.204c-3.51-.001-6.734.96-9.54 2.638-3.55 2.127-7.931 2.814-12.528 2.812a7.663 7.663 0 0 0-2.974.598.515.515 0 0 1-.536-.08 8.223 8.223 0 0 0-5.45-1.93c-.468.01-.896.343-.955.808a.93.93 0 0 0 .949 1.05 6.31 6.31 0 0 1 3.51.95.51.51 0 0 1 .086.795 7.676 7.676 0 0 0-2.012 3.37.518.518 0 0 1-.496.384H7.773a5.895 5.895 0 0 1-4.183-1.732 5.894 5.894 0 0 1-1.732-4.182c0-1.637.66-3.11 1.732-4.183a5.892 5.892 0 0 1 4.164-1.732c.449-.001.862-.327.935-.77a.93.93 0 0 0-.916-1.088 7.738 7.738 0 0 0-3.732.954.516.516 0 0 1-.75-.567 16.646 16.646 0 0 1 7.92-10.598c.326-.187.358.088.306.156-.604.803-1.833 1.547-2.536 3.122-.202.454-.065 1.027.371 1.263a.927.927 0 0 0 1.29-.428c.564-1.161 1.639-2.15 2.098-2.577.132-.123.236-.268.318-.428.618-1.2 1.67-2.28 2.753-2.886l.015-.004.127-.077a26.322 26.322 0 0 1 13.652-3.817c1.816-.001 4.197.358 6.5.926.22.054.442.111.663.169.51.135.515.857.006.995a20.834 20.834 0 0 0-11.263 7.704 1.033 1.033 0 0 1-.648.4 13.546 13.546 0 0 0-9.244 6.498.516.516 0 0 1-.383.25 6.411 6.411 0 0 0-4.707 3.12c-.244.416-.182.971.2 1.263a.93.93 0 0 0 1.375-.276 4.553 4.553 0 0 1 3.599-2.288c.275-.022.539-.124.774-.268.271-.167.488-.407.643-.684a11.725 11.725 0 0 1 5.525-5.007c.438-.192.882.246.682.681a20.643 20.643 0 0 0-1.55 4.891c-.086.46.165.944.61 1.091a.93.93 0 0 0 1.21-.715 18.84 18.84 0 0 1 2.883-7.106.917.917 0 0 0 .192-.28c3.423-4.921 9.119-8.144 15.568-8.143 3.386 0 6.562.888 9.312 2.443 0 0 .255.14.232.309-.021.16-.752.044-.752.044-.458-.06-.923.209-1.051.652a.93.93 0 0 0 .772 1.186 12.174 12.174 0 0 1 6.67 3.1 3.5 3.5 0 0 1 .532.622 18.854 18.854 0 0 1 3.237 10.597c0 1.695-.226 3.269-.645 4.84 0 0-.033.33-.01.443.023.112.172.364.172.364.766.998 1.201 2.147 1.204 3.488a5.8 5.8 0 0 1-1.705 4.117"/>
        <path fill="#D0BFB8" d="M50.875 48.88a.513.513 0 0 0-.64-.29c-1.01.353-1.899.49-3.053.434-2.509-.122-2.452-2.127-5.887-3.277a.519.519 0 0 0-.647.687l2.636 6.374c.867 2.092 3.2 3.27 5.347 2.546a4.264 4.264 0 0 0 2.578-5.667l-.334-.806z"/>
        <path fill="#E2AEAE" d="M45.698 46.089c-1.188-1.392-2.688-1.706-4.032-2.104-1.122-.333-2.135-.726-2.771-1.855a.518.518 0 0 1 .455-.767h14.949c.375 0 .636.393.47.73-.748 1.523-2.248 3.075-3.875 4.034-1.888 1.113-3.946 1.426-5.196-.038"/>
        <path fill="#C97C8B" d="M35.749 31.833a.93.93 0 0 0-1.284.28 6.457 6.457 0 0 1-1.913 1.924 6.438 6.438 0 0 1-3.528 1.052 6.516 6.516 0 0 1-2.926-.696.929.929 0 1 0-.835 1.66 8.375 8.375 0 0 0 3.761.894h.003c1.558 0 3.14-.44 4.54-1.353a8.304 8.304 0 0 0 2.462-2.477.929.929 0 0 0-.28-1.284M19.417 8.459c.15 0 .302-.037.444-.114A16.817 16.817 0 0 1 27.91 6.3c.862 0 1.721.066 2.571.196a.93.93 0 0 0 .281-1.837 18.825 18.825 0 0 0-2.852-.217c-3.054 0-6.132.743-8.939 2.272a.93.93 0 0 0 .445 1.745M54.193 20.955c0 .782-.14 1.527-.397 2.215-.16.431.004.947.406 1.17a.931.931 0 0 0 1.322-.483 8.198 8.198 0 0 0 .528-2.902c0-4.401-3.464-8.02-7.816-8.197-.592-.024-.613-.1-.75-.273-1.534-1.934-3.866-3.228-6.526-3.228a8.185 8.185 0 0 0-5.766 2.368.511.511 0 0 1-.45.14 8.137 8.137 0 0 0-1.572-.12c-.467.011-.891.344-.95.806a.93.93 0 0 0 .947 1.053l.174-.002c.965 0 1.942.22 2.865.688a6.314 6.314 0 0 1 2.995 3.235.93.93 0 0 0 1.315.455c.432-.24.56-.797.366-1.252a8.177 8.177 0 0 0-3.188-3.729.513.513 0 0 1 0-.87c.64-.411 1.746-.923 3.264-.914a6.375 6.375 0 0 1 5.439 3.072s.205.294.331.364c.194.107.547.081.547.081a6.324 6.324 0 0 1 5.057 1.834 6.325 6.325 0 0 1 1.86 4.49M59.782 32.277a.93.93 0 0 0-1.413.045 6.321 6.321 0 0 1-2.762 1.984 6.393 6.393 0 0 1-4.47-.025c-1.057-.394-1.965-1.105-2.685-1.974-.827-.998-1.748-2-2.863-2.788-1.139-.807-2.51-1.38-4.104-1.407a8.181 8.181 0 0 0-1.902.187.519.519 0 0 1-.512-.174 5.726 5.726 0 0 0-.156-.18c-.315-.35-.85-.454-1.24-.191a.929.929 0 0 0-.171 1.4c.503.55.899 1.181 1.18 1.859a.929.929 0 0 0 1.302.461c.435-.235.578-.794.382-1.248-.025-.058-.09-.234.148-.269a6.16 6.16 0 0 1 .924-.062c1.17.058 2.154.494 3.079 1.142.92.647 1.763 1.555 2.561 2.527a8.227 8.227 0 0 0 6.338 2.992h.002a8.2 8.2 0 0 0 2.828-.506 8.176 8.176 0 0 0 3.52-2.504c.303-.37.338-.917.014-1.269"/>
    </g>
</svg>
