<svg xmlns="http://www.w3.org/2000/svg" width="66" height="104" viewBox="0 0 66 104">
    <defs>
        <filter id="a" width="176.1%" height="141.7%" x="-38%" y="-14.9%" filterUnits="objectBoundingBox">
            <feOffset dy="5" in="SourceAlpha" result="shadowOffsetOuter1"/>
            <feGaussianBlur in="shadowOffsetOuter1" result="shadowBlurOuter1" stdDeviation="5"/>
            <feColorMatrix in="shadowBlurOuter1" result="shadowMatrixOuter1" values="0 0 0 0 0 0 0 0 0 0 0 0 0 0 0 0 0 0 0.2 0"/>
            <feMerge>
                <feMergeNode in="shadowMatrixOuter1"/>
                <feMergeNode in="SourceGraphic"/>
            </feMerge>
        </filter>
    </defs>
    <g fill="none" fill-rule="evenodd" filter="url(#a)" transform="translate(10 5)">
        <path fill="#597584" d="M0 3.995A3.998 3.998 0 0 1 4.002 0H41.32a4.016 4.016 0 0 1 4.014 3.995l.223 76.01A3.981 3.981 0 0 1 41.564 84H4.004A4.002 4.002 0 0 1 0 80.005V3.995z"/>
        <path fill="#FFF" d="M2.603 7.81h40.142l.219 66.387H2.604z"/>
        <rect width="27.336" height="6.508" x="9.966" y="62.644" fill="#1F95F2" rx="3.254"/>
        <g fill="#597584" transform="translate(10.414 43.2)">
            <rect width="25.13" height="1.535" y="11.715" rx=".767"/>
            <rect width="20.4" height="1.535" x="2.603" y="7.81" rx=".767"/>
            <rect width="15.078" height="1.535" x="10.414" y="3.905" rx=".767"/>
            <rect width="7.687" height="1.535" y="3.905" rx=".767"/>
            <rect width="15.374" height="1.535" x="5.207" rx=".767"/>
        </g>
        <path fill="#D4F2FF" d="M34.17 26.339c0 5.897-4.782 10.678-10.678 10.678-5.897 0-10.678-4.781-10.678-10.678 0-5.897 4.78-10.678 10.678-10.678 5.896 0 10.677 4.781 10.677 10.678"/>
    </g>
</svg>
