<svg xmlns="http://www.w3.org/2000/svg" width="11" height="10" viewBox="0 0 11 10">
    <g fill="#34537D" fill-rule="evenodd" stroke="#34537D" stroke-width=".3">
        <path d="M1.695 4.6l7.382 3.144.837-7.012-8.22 3.869zM9.25 8.233a.22.22 0 0 1-.085-.017L1.123 4.79A.198.198 0 0 1 1 4.613a.197.197 0 0 1 .116-.18L10.07.218a.216.216 0 0 1 .211.015.194.194 0 0 1 .087.184l-.912 7.64a.197.197 0 0 1-.103.149.214.214 0 0 1-.103.026z"/>
        <path d="M4.902 9.465a.225.225 0 0 1-.057-.007.2.2 0 0 1-.15-.192l.025-3.16c0-.047.019-.092.051-.128L10.003.266a.215.215 0 0 1 .293-.02.191.191 0 0 1 .02.28L5.135 6.182l-.02 2.373 1.143-1.784a.214.214 0 0 1 .286-.066.192.192 0 0 1 .068.272L5.08 9.37a.21.21 0 0 1-.177.094"/>
    </g>
</svg>
