<svg xmlns="http://www.w3.org/2000/svg" width="16" height="16" viewBox="0 0 16 16">
    <path fill="#D3DFE4" fill-rule="evenodd" d="M11.122 10.367a.267.267 0 0 1 0 .378l-.377.377a.267.267 0 0 1-.377 0L8 8.754l-2.367 2.368a.267.267 0 0 1-.378 0l-.377-.377a.267.267 0 0 1 0-.378L7.246 8 4.878 5.632a.267.267 0 0 1 0-.377l.377-.377a.267.267 0 0 1 .378 0L8 7.245l2.368-2.367a.267.267 0 0 1 .377 0l.377.377a.267.267 0 0 1 0 .377L8.755 8l2.367 2.367zM8 0C3.589 0 0 3.589 0 8s3.589 8 8 8 8-3.589 8-8-3.589-8-8-8z"/>
</svg>
