<svg xmlns="http://www.w3.org/2000/svg" width="14" height="14" viewBox="0 0 14 14">
    <path fill="#34537D" fill-rule="evenodd" d="M13.814.186a.626.626 0 0 0-.891 0L8.909 4.211V2.404a.656.656 0 0 0-.645-.65h-.005a.644.644 0 0 0-.638.643l-.002 3.348a.62.62 0 0 0 .635.622h3.343a.636.636 0 1 0 0-1.273H9.791l4.023-4.016a.626.626 0 0 0 0-.892M6.13 7.844c.119.12.187.3.187.469l.003 3.33c0 .352-.279.61-.63.61h.012c-.351 0-.611-.23-.611-.582V9.863l-3.98 3.954A.69.69 0 0 1 .636 14a.641.641 0 0 1-.45-.193.652.652 0 0 1 0-.913l3.955-3.982H2.335a.636.636 0 1 1 0-1.273h3.343a.66.66 0 0 1 .452.205"/>
</svg>
