<svg xmlns="http://www.w3.org/2000/svg" width="36" height="61" viewBox="0 0 36 61">
    <g fill="none" fill-rule="evenodd" stroke-width="1.5">
        <path fill="#5BC4F2" stroke="#48A9D3" d="M17.53 15.85a2.301 2.301 0 0 1 1.154-1.348 2.32 2.32 0 0 1 3.116 1.017l3.881 7.648 8.251 5.791a2.324 2.324 0 0 1 .567 3.232 2.322 2.322 0 0 1-1.9.987c-.477 0-.936-.145-1.33-.42l-8.723-6.124a2.325 2.325 0 0 1-.735-.849l-4.144-8.164a2.307 2.307 0 0 1-.137-1.77"/>
        <path fill="#5AC4F3" stroke="#44A7D2" d="M17.727 11.66a5.323 5.323 0 0 1-4.015-.867 5.387 5.387 0 0 1-1.365-7.481 5.377 5.377 0 0 1 7.476-1.357 5.331 5.331 0 0 1 2.226 3.454 5.345 5.345 0 0 1-.87 4.02 5.34 5.34 0 0 1-3.452 2.232M8.74 23.477L5.548 34.76a2.328 2.328 0 0 1-2.23 1.688c-.214 0-.428-.03-.63-.088a2.301 2.301 0 0 1-1.394-1.1 2.306 2.306 0 0 1-.207-1.764l3.4-12.02c.134-.475.41-.887.803-1.196l7.887-6.01c.393-.333 1.149-.501 2.26-.501h2.984a4.138 4.138 0 0 1 4.131 4.136c-.02 3.663-.067 13.056-.056 14l4.726 12.57c.032.08.062.162.086.243L30.82 56.4a2.777 2.777 0 0 1-2.65 3.572h-.004a2.79 2.79 0 0 1-2.653-1.974l-3.47-11.536-4.793-9.785h-.08l-2.482 9.696c-.07.369-.21.716-.421 1.03l-7.591 11.34a2.769 2.769 0 0 1-3.844.76 2.778 2.778 0 0 1-.76-3.848l7.271-10.861c.789-4.931 1.954-12.33 1.977-12.789V21.587l-2.582 1.89z"/>
    </g>
</svg>
