<svg xmlns="http://www.w3.org/2000/svg" width="19" height="19" viewBox="0 0 19 19">
    <path fill="#4C8CE4" fill-rule="evenodd" d="M12.73 7.902c-.25 7.058-5.853 8.35-8.546 8.97a.784.784 0 0 1-.352-1.529c3.446-.794 7.14-2.093 7.331-7.497.016-.454-.209-.786-.4-.984-.356-.369-.877-.58-1.429-.58-.537 0-1.033.195-1.382.534-.268.262-.374.688-.483 1.218C7.038 10.1 5.6 12.6 1.202 12.782a.785.785 0 0 1-.065-1.567c2.76-.115 4.329-1.26 4.795-3.501.124-.592.292-1.404.925-2.021a3.541 3.541 0 0 1 2.455-.98c.997 0 1.93.386 2.579 1.059.57.59.868 1.346.84 2.13zm4.125 5.422a.784.784 0 0 1-.588 1.455c-1.778-.719-2.67-2.064-2.653-3.999.005-.509.039-.85.07-1.18.04-.418.083-.85.07-1.7-.033-2.194-2.02-3.98-4.43-3.98-2.24 0-3.927 1.345-4.403 3.511-.317 1.438-1.253 3.1-3.93 2.858l-.313-.043a.784.784 0 1 1 .213-1.554l.26.036c.895.078 1.874.018 2.237-1.633.634-2.882 2.964-4.744 5.936-4.744 3.261 0 5.952 2.48 5.999 5.526.014.938-.034 1.435-.077 1.873-.03.311-.058.605-.063 1.045-.011 1.277.504 2.057 1.672 2.53zm1.173-2.09a.785.785 0 0 1-.925 1.267c-.319-.233-1.044-.918-.887-2.245.101-.862.158-2.357.159-2.372 0-3.469-3.164-6.315-7.051-6.315-2.889 0-5.532 1.634-6.577 4.068-.112.26-.214.628-.304.952-.081.295-.145.528-.221.704a.785.785 0 0 1-1.44-.62c.032-.078.097-.312.15-.5.097-.355.219-.796.373-1.156C2.595 2.017 5.817 0 9.324 0c4.752 0 8.619 3.55 8.619 7.914-.003.093-.06 1.602-.17 2.526-.057.487.135.707.255.794zm-7.92-3.346c-.244 5.615-5.502 6.621-7.746 7.05a.784.784 0 0 1-.295-1.54c3.04-.582 6.298-1.54 6.473-5.578a.794.794 0 0 1 .818-.75.784.784 0 0 1 .75.818zm5 7.38a.784.784 0 0 1-.56 1.465l-.155-.06c-.847-.33-1.75-.941-2.41-1.635a.785.785 0 0 1 1.136-1.082c.502.527 1.21 1.008 1.846 1.255l.144.057zm-2.477 1.504a.785.785 0 0 1-.66 1.423c-.517-.24-.942-.399-1.335-.399-.477 0-1.257.226-2.337.539l-.658.19a.782.782 0 0 1-.97-.538.784.784 0 0 1 .539-.97l.653-.188c1.248-.363 2.073-.602 2.773-.602.68 0 1.29.218 1.995.545z"/>
</svg>
