<svg xmlns="http://www.w3.org/2000/svg" width="68" height="36" viewBox="0 0 68 36">
    <g fill="#666" fill-rule="evenodd">
        <path d="M48.967 21.359a7.651 7.651 0 0 1 12.341-8.651 7.651 7.651 0 0 1-9.011 12.16l-3.236 3.237c4.714 3.236 11.209 2.76 15.398-1.429 4.726-4.726 4.725-12.389-.003-17.116-4.727-4.728-12.39-4.729-17.117-.003-4.093 4.093-4.64 10.389-1.644 15.073l3.272-3.271zM26.995 13.452c1.878 4.015 1.16 8.943-2.155 12.258-4.232 4.232-11.095 4.231-15.328-.002-4.233-4.233-4.234-11.097-.002-15.328 3.456-3.457 8.668-4.09 12.768-1.9l4.584-4.585C20.184-.69 10.982-.015 5.05 5.919c-6.695 6.695-6.694 17.551.003 24.249 6.697 6.697 17.554 6.698 24.249.003 5.798-5.798 6.575-14.717 2.33-21.353l-4.636 4.634z"/>
    </g>
</svg>
