<svg xmlns="http://www.w3.org/2000/svg" width="24" height="30" viewBox="0 0 24 30">
    <g fill="none" fill-rule="evenodd" opacity=".5">
        <path fill="#D3DFE4" d="M.938.938h17.109l.234 3.984 4.219.703v23.672H.937z"/>
        <path fill="#959FA4" fill-rule="nonzero" d="M1.158 1.974v26.023c0 .515.42.936.938.936h19.246c.516 0 .938-.419.938-.936V6.529a.938.938 0 0 0-.938-.937h-2.716a.938.938 0 0 1-.938-.938V1.976a.937.937 0 0 0-.936-.938H2.094a.937.937 0 0 0-.936.936zm-.938 0C.22.94 1.06.1 2.094.1h14.658c1.035 0 1.874.84 1.874 1.876v2.678h2.716c1.036 0 1.875.84 1.875 1.875v21.468a1.876 1.876 0 0 1-1.875 1.874H2.096A1.876 1.876 0 0 1 .22 27.997V1.974z"/>
        <path fill="#959FA4" d="M4.85 11.797L3.524 10.47a.49.49 0 0 1 .692-.693l.632.634 1.61-1.613a.49.49 0 0 1 .692.693L4.85 11.796zM4.85 17.674L3.524 16.35a.49.49 0 0 1 .692-.693l.632.633 1.61-1.613a.49.49 0 0 1 .692.693L4.85 17.674zM4.85 23.552l-1.325-1.326a.49.49 0 0 1 .692-.692l.632.633 1.61-1.613a.49.49 0 0 1 .692.693L4.85 23.552z"/>
        <rect width="2.985" height="1.033" x="13.129" y="22.308" fill="#959FA4" rx=".517"/>
        <rect width="2.985" height="1.033" x="9.226" y="22.308" fill="#959FA4" rx=".517"/>
        <rect width="9.758" height="1.033" x="9.226" y="20.357" fill="#959FA4" rx=".517"/>
        <rect width="7.921" height="1.033" x="9.226" y="16.454" fill="#959FA4" rx=".517"/>
        <rect width="5.855" height="1.033" x="13.129" y="14.502" fill="#959FA4" rx=".517"/>
        <rect width="2.985" height="1.033" x="9.226" y="14.502" fill="#959FA4" rx=".517"/>
        <rect width="5.969" height="1.033" x="9.226" y="10.599" fill="#959FA4" rx=".517"/>
        <rect width="9.758" height="1.033" x="9.226" y="8.648" fill="#959FA4" rx=".517"/>
        <path fill="#959FA4" d="M18.016 1.324l-.01-.738 4.822 4.821-.533.262-1.216-.685-2.988-2.988z"/>
    </g>
</svg>
