<svg xmlns="http://www.w3.org/2000/svg" xmlns:xlink="http://www.w3.org/1999/xlink" width="79" height="61" viewBox="0 0 79 61">
    <defs>
        <path id="a" d="M2.262.398v15.088H.307V.398h1.955z"/>
    </defs>
    <g fill="none" fill-rule="evenodd">
        <path fill="#F2533E" d="M.977 22.551A.977.977 0 0 0 0 23.53v13.133a.977.977 0 1 0 1.955 0V23.529a.977.977 0 0 0-.978-.978M4.399 17.054a.977.977 0 0 0-.978.978v24.127a.977.977 0 1 0 1.955 0V18.032a.978.978 0 0 0-.977-.978M8.353 19.15a.977.977 0 0 0-.978.977v19.936a.978.978 0 0 0 1.955 0V20.127a.977.977 0 0 0-.977-.977M12.307 20.469a.978.978 0 0 0-.978.977v17.298a.977.977 0 1 0 1.955 0V21.446a.977.977 0 0 0-.977-.977M15.728 13.454a.977.977 0 0 0-.978.978v31.327a.978.978 0 0 0 1.955 0V14.432a.977.977 0 0 0-.977-.978M19.682 16.128a.977.977 0 0 0-.978.978v25.978a.977.977 0 1 0 1.955 0V17.106a.978.978 0 0 0-.977-.978M23.636 15.846a.978.978 0 0 0-.978.978v26.543a.977.977 0 0 0 1.955 0V16.824a.978.978 0 0 0-.977-.978M27.59 17.563a.978.978 0 0 0-.978.978V41.65a.977.977 0 1 0 1.955 0V18.54a.977.977 0 0 0-.977-.978M31.01 8.431a.977.977 0 0 0-.977.978v41.373a.978.978 0 0 0 1.955 0V9.409a.977.977 0 0 0-.977-.978M34.965 11.913a.977.977 0 0 0-.978.977V47.3a.977.977 0 1 0 1.955 0V12.89a.978.978 0 0 0-.977-.977"/>
        <g transform="translate(76.074 22.153)">
            <mask id="b" fill="#fff">
                <use xlink:href="#a"/>
            </mask>
            <path fill="#F2533E" d="M1.285.398a.977.977 0 0 0-.978.977v13.133a.978.978 0 0 0 1.955 0V1.375a.977.977 0 0 0-.977-.977" mask="url(#b)"/>
        </g>
        <path fill="#F2533E" d="M73.938 17.054a.978.978 0 0 0-.978.978v24.127a.977.977 0 1 0 1.955 0V18.032a.978.978 0 0 0-.977-.978M69.984 19.15a.977.977 0 0 0-.978.977v19.936a.978.978 0 0 0 1.955 0V20.127a.977.977 0 0 0-.977-.977M66.03 20.469a.977.977 0 0 0-.978.977v17.298a.977.977 0 1 0 1.955 0V21.446a.978.978 0 0 0-.977-.977M62.609 13.454a.977.977 0 0 0-.978.978v31.327a.978.978 0 0 0 1.955 0V14.432a.977.977 0 0 0-.977-.978M58.654 16.128a.977.977 0 0 0-.977.978v25.978a.977.977 0 1 0 1.955 0V17.106a.978.978 0 0 0-.978-.978M54.7 15.846a.978.978 0 0 0-.977.978v26.543a.977.977 0 0 0 1.955 0V16.824a.978.978 0 0 0-.977-.978M50.747 17.563a.978.978 0 0 0-.978.978V41.65a.978.978 0 1 0 1.956 0V18.54a.978.978 0 0 0-.978-.978M47.326 8.431a.978.978 0 0 0-.978.978v41.373a.978.978 0 0 0 1.955 0V9.409a.977.977 0 0 0-.977-.978M43.372 11.913a.978.978 0 0 0-.978.977V47.3a.978.978 0 0 0 1.955 0V12.89a.978.978 0 0 0-.977-.977M39.168 0a.977.977 0 0 0-.977.978v58.235a.977.977 0 1 0 1.955 0V.978A.978.978 0 0 0 39.168 0"/>
    </g>
</svg>
