<svg xmlns="http://www.w3.org/2000/svg" width="24" height="23" viewBox="0 0 24 23">
    <g fill="none" fill-rule="evenodd">
        <path fill="#FC9606" d="M8.861 9.421l1.094.948c.236.205.6.191.818-.027l-.288.288a.614.614 0 0 0 .027-.818l-1.074-1.24.375-.55c1.244-1.832 3.525-2.044 5.086-.484l1.014 1.014c1.564 1.564 1.352 3.838-.484 5.086l-4.234 2.878-1.727-1.53a.512.512 0 0 0-.69.02l.245-.245a.512.512 0 0 0-.02.689l1.414 1.595-6.693 4.55c-.917.623-2.297.491-2.996-.208l1.335 1.336c-.737-.738-.834-2.074-.207-2.996l1.888-2.777.873.757c.237.205.601.192.819-.026l-.288.288a.614.614 0 0 0 .026-.818l-.878-1.014 4.565-6.716z"/>
        <path fill="#4BD763" d="M16.503 8.004l6.56-2.921-.767-1.724-3.641 1.621L20.74 1.06 19.074.173l-3.43 6.45-.19.331z"/>
    </g>
</svg>
