<svg xmlns="http://www.w3.org/2000/svg" width="114" height="99" viewBox="0 0 114 99">
    <g fill="none" fill-rule="evenodd" stroke="#2A8C53" stroke-linecap="round" stroke-linejoin="round" stroke-width="3">
        <path d="M36.138 38.667h34.138M17.172 26.444h64.483M39.931 15.444h34.138M89.241 2v17.069c0 3.14 2.55 5.69 5.69 5.69H112M17.172 66.483c4.268-3.11 9.6-7.65 9.483-13.28-.083-3.998-1.104-5.625-3.793-5.682-2.845-.06-3.865 3.02-3.793 5.682.178 6.699 6.281 13.28 9.483 13.28 3.201 0 4.168-7.586 5.69-7.586 1.52 0 3.402 7.586 5.689 7.586s11.38-11.376 11.38-11.376M96.828 62.69c0 8.379-6.794 15.172-15.173 15.172-8.379 0-15.172-6.793-15.172-15.172 0-8.38 6.793-15.173 15.172-15.173 8.38 0 15.173 6.794 15.173 15.173z"/>
        <path d="M93.034 81.655h13.276c3.141 0 5.69-2.549 5.69-5.69V24.555L89.241 2H7.69A5.692 5.692 0 0 0 2 7.69v68.276c0 3.14 2.549 5.69 5.69 5.69h62.586"/>
        <path d="M70.276 72.71v24.116l11.38-11.38 11.378 11.38V72.71"/>
    </g>
</svg>
