<svg xmlns="http://www.w3.org/2000/svg" width="35" height="59" viewBox="0 0 35 59">
    <g fill="none" fill-rule="evenodd">
        <path fill="#FFD3A4" d="M17.467 57.796C8.019 57.796.333 50.11.333 40.663v-3.105c0-.02.004-.037.007-.055l.003-.024.002-.035v-5.349c0-2.095 1.704-3.8 3.8-3.8h3.311L2.921 6.95c-.381-2.063.983-4.058 3.044-4.44a3.8 3.8 0 0 1 4.428 3.047l2.615 12.125.659-.07V4.133c0-2.095 1.704-3.8 3.8-3.8 2.095 0 3.8 1.705 3.8 3.8v15.058l.538-.42a3.758 3.758 0 0 1 2.328-.804c1.384 0 2.66.757 3.331 1.974l.224.407.314-.342a3.809 3.809 0 0 1 2.798-1.239c2.096 0 3.8 1.705 3.8 3.8v18.096c0 9.447-7.686 17.133-17.133 17.133"/>
        <path fill="#D89568" d="M17.467 56.529c-8.75 0-15.867-7.118-15.867-15.867v-.715c.005-.037.012-.075.012-.113v-7.739a2.535 2.535 0 0 1 2.532-2.533h8.134c.263 0 .49.094.638.263.15.171.213.41.177.674-.261 1.955-1.53 3.196-3.993 3.903-.695.2-1.293.224-1.478.227H7.538a.8.8 0 0 0-.343.078.798.798 0 0 0 .272 1.55 14.24 14.24 0 0 1 11.466 5.834.8.8 0 1 0 1.293-.943 15.85 15.85 0 0 0-8.765-5.968c1.87-.987 2.952-2.482 3.218-4.469.098-.728-.1-1.416-.558-1.94-.457-.521-1.112-.809-1.843-.809H8.68L4.164 6.707a2.536 2.536 0 0 1 2.03-2.952A2.542 2.542 0 0 1 9.152 5.81l4.2 19.473a.8.8 0 0 0 1.58-.193l.002-.017V4.133A2.536 2.536 0 0 1 17.467 1.6 2.536 2.536 0 0 1 20 4.133v27.488a4.138 4.138 0 0 0 4.133 4.134c1.369 0 2.581-.672 3.334-1.7a4.112 4.112 0 0 0 5.867.825v5.782c0 8.75-7.118 15.867-15.867 15.867m6.666-37.295a2.536 2.536 0 0 1 2.534 2.533V31.621a2.536 2.536 0 0 1-2.534 2.534A2.536 2.536 0 0 1 21.6 31.62v-9.854a2.536 2.536 0 0 1 2.533-2.533m6.667.8a2.536 2.536 0 0 1 2.534 2.533v9.054a2.536 2.536 0 0 1-2.534 2.534 2.536 2.536 0 0 1-2.533-2.534v-9.054a2.536 2.536 0 0 1 2.533-2.533m0-1.6a4.117 4.117 0 0 0-3.044 1.347 4.137 4.137 0 0 0-3.623-2.147c-.955 0-1.833.328-2.533.874V4.133A4.138 4.138 0 0 0 17.467 0a4.138 4.138 0 0 0-4.134 4.133v13.478L10.72 5.496a4.14 4.14 0 0 0-4.816-3.314c-2.241.414-3.727 2.575-3.309 4.836l4.45 20.944h-2.9A4.137 4.137 0 0 0 .01 32.095v5.349c-.005.037-.011.075-.011.114v3.104C0 50.294 7.835 58.13 17.467 58.13c9.631 0 17.466-7.835 17.466-17.467V22.567a4.138 4.138 0 0 0-4.133-4.133" opacity=".5"/>
    </g>
</svg>
