<svg xmlns="http://www.w3.org/2000/svg" width="71" height="32" viewBox="0 0 71 32">
    <g fill="#666" fill-rule="evenodd">
        <path d="M46.3 20.29a9.567 9.567 0 0 1 1.902-10.817c3.734-3.734 9.79-3.733 13.525.002 3.735 3.736 3.736 9.791.002 13.525-3.05 3.05-7.649 3.61-11.266 1.676l-4.045 4.046c5.892 4.045 14.011 3.45 19.247-1.786 5.907-5.907 5.906-15.486-.003-21.396-5.91-5.909-15.489-5.91-21.396-.003-5.116 5.116-5.801 12.986-2.056 18.84l4.09-4.088z" opacity=".3"/>
        <path d="M23.81 12.004A9.567 9.567 0 0 1 21.91 22.82c-3.734 3.734-9.79 3.734-13.525-.002-3.735-3.735-3.736-9.79-.002-13.525 3.05-3.05 7.648-3.608 11.266-1.676l4.045-4.046C17.801-.473 9.682.121 4.446 5.357c-5.908 5.908-5.907 15.487.003 21.397 5.91 5.909 15.488 5.91 21.396.002 5.116-5.116 5.801-12.985 2.055-18.84l-4.09 4.088z" opacity=".8"/>
    </g>
</svg>
