<svg xmlns="http://www.w3.org/2000/svg" width="50" height="50" viewBox="0 0 50 50">
    <g fill="none" fill-rule="evenodd">
        <path fill="#C2A017" fill-rule="nonzero" d="M21.5 50C9.626 50 0 40.374 0 28.5S9.626 7 21.5 7 43 16.626 43 28.5 33.374 50 21.5 50z"/>
        <path fill="#F6CD28" fill-rule="nonzero" d="M21.5 48C32.27 48 41 39.27 41 28.5S32.27 9 21.5 9 2 17.73 2 28.5 10.73 48 21.5 48z"/>
        <path fill="#A5870E" d="M34.717 28.308c.229.14.53-.02.532-.289v-.007a2.916 2.916 0 0 0-5.833 0v.006c0 .27.302.43.53.289a4.528 4.528 0 0 1 2.386-.677c.875 0 1.692.248 2.385.678M13.901 28.308c.229.14.53-.02.532-.289v-.007a2.916 2.916 0 0 0-5.833 0v.006c0 .27.302.43.531.289a4.522 4.522 0 0 1 2.385-.677c.875 0 1.692.248 2.385.678M12.583 35.892c-.589-.248-1.192.61-.905 1.304 1.262 3.057 3.702 5.34 6.827 5.947 3.124.607 6.24-.595 8.557-2.956.526-.538.289-1.558-.35-1.549-2.208.033-4.657-.183-7.2-.677-2.543-.495-4.894-1.212-6.929-2.069"/>
        <g transform="translate(20)">
            <path fill="#D34E3E" fill-rule="nonzero" d="M4 0h22a4 4 0 0 1 4 4v6a4 4 0 0 1-4 4H4a4 4 0 0 1-4-4V4a4 4 0 0 1 4-4z"/>
            <path fill="#FF7261" fill-rule="nonzero" d="M4 2a2 2 0 0 0-2 2v6a2 2 0 0 0 2 2h22a2 2 0 0 0 2-2V4a2 2 0 0 0-2-2H4z"/>
            <path fill="#FFF" fill-rule="nonzero" d="M12.093 7.658h-1.05V10h-1.32V3.602h2.378c.756 0 1.34.168 1.75.505.41.337.615.813.615 1.428 0 .437-.095.8-.284 1.092-.189.292-.475.524-.859.697l1.384 2.614V10h-1.415l-1.2-2.342zm-1.05-1.068h1.063c.33 0 .587-.084.769-.253.181-.168.272-.4.272-.696 0-.302-.085-.54-.257-.712-.171-.173-.434-.26-.789-.26h-1.059v1.92zm8.274.637h-2.531v1.714h2.97V10h-4.288V3.602h4.28v1.067h-2.962v1.525h2.531v1.033zm6.236.642c-.05.688-.304 1.23-.762 1.626-.459.395-1.063.593-1.813.593-.82 0-1.466-.276-1.936-.828-.47-.553-.705-1.31-.705-2.275v-.39c0-.616.108-1.158.325-1.627.217-.468.526-.828.93-1.079.402-.25.87-.375 1.403-.375.739 0 1.333.197 1.785.593.45.395.711.95.782 1.665h-1.319c-.032-.413-.147-.712-.345-.898-.197-.186-.498-.28-.903-.28-.44 0-.768.158-.986.473-.218.315-.33.804-.336 1.466v.483c0 .692.104 1.197.314 1.516.21.32.54.48.99.48.408 0 .712-.094.913-.28.2-.186.315-.474.345-.863h1.318z"/>
            <circle cx="6" cy="7" r="2" fill="#FFF"/>
        </g>
    </g>
</svg>
