<svg xmlns="http://www.w3.org/2000/svg" width="53" height="39" viewBox="0 0 53 39">
    <g fill="none" fill-rule="evenodd" stroke="#2A8C53" stroke-linecap="round" stroke-linejoin="round" stroke-width="3">
        <path d="M12.983 44.241H2V22.276h10.983c1.4 0 2.534 1.135 2.534 2.534v16.897a2.534 2.534 0 0 1-2.534 2.534z"/>
        <path d="M15.517 25.655l1.69-1.983 8.448-13.224V2.992S26.5 2 29.035 2c2.534 0 5.068 3.885 5.068 7.603 0 3.72-1.69 9.294-1.69 9.294H47.44c1.683 0 3.242 1.15 3.514 2.811a3.383 3.383 0 0 1-3.333 3.947 3.384 3.384 0 0 1 3.333 3.947c-.272 1.661-1.831 2.812-3.514 2.812h-1.087c1.797 0 3.218 1.6 2.917 3.453-.237 1.454-1.602 2.46-3.075 2.46h-1.531c1.796 0 3.217 1.6 2.916 3.454-.236 1.453-1.602 2.46-3.075 2.46h-22.23a8.447 8.447 0 0 1-6.758-3.379"/>
    </g>
</svg>
