<svg xmlns="http://www.w3.org/2000/svg" width="20" height="20" viewBox="0 0 20 20">
    <path fill="#FFF" fill-rule="evenodd" d="M5.022 11.676a.322.322 0 0 1 .3-.207h.964c.079 0 .155.03.215.084L8.857 13.7V3.326c0-.18.144-.326.322-.326h.642c.178 0 .322.146.322.326V13.7l2.356-2.148a.321.321 0 0 1 .215-.084h.964c.133 0 .252.082.3.207a.329.329 0 0 1-.082.359l-4.179 3.88a.319.319 0 0 1-.434 0l-4.179-3.88a.329.329 0 0 1-.082-.359M10 20c5.514 0 10-4.486 10-10S15.514 0 10 0C4.485 0 0 4.486 0 10s4.485 10 10 10"/>
</svg>
