<svg xmlns="http://www.w3.org/2000/svg" width="49" height="61" viewBox="0 0 49 61">
    <g fill="none" fill-rule="evenodd">
        <path fill="#8A999E" d="M40.447 16.647l-2.592-1.815-1.073 1.533c.46.26.912.55 1.355.859.433.3.844.62 1.238.952l1.072-1.529z"/>
        <path fill="#A6B8BA" d="M24.646 10.586h-2.072v2.48a22.701 22.701 0 0 1 2.072-.093c.72 0 1.433.035 2.134.098v-2.485h-2.134zM8.849 16.647l2.593-1.82 1.07 1.534c-.46.263-.912.55-1.354.863-.432.3-.843.616-1.238.947l-1.071-1.524z"/>
        <path fill="#FCD421" stroke="#D4B322" stroke-width="2" d="M24.499 60C11.519 60 1 49.476 1 36.5 1 23.52 11.52 13 24.499 13 37.479 13 48 23.52 48 36.5 48 49.476 37.48 60 24.499 60"/>
        <path fill="#FFF" d="M24.5 56.002C13.73 56.002 5 47.269 5 36.5 5 25.729 13.73 17 24.5 17S44 25.73 44 36.5c0 10.769-8.73 19.502-19.5 19.502"/>
        <path fill="#4D4D4D" d="M41.024 17.054l-3.71-2.602a.796.796 0 0 1-.197-1.108l.832-1.19a.797.797 0 0 1 1.108-.196l3.715 2.602a.8.8 0 0 1 .197 1.108l-.836 1.189a.8.8 0 0 1-1.109.197"/>
        <path fill="#8A999E" d="M30.952.93A3.159 3.159 0 0 0 28.716 0h-8.142c-.87 0-1.66.356-2.234.93a3.157 3.157 0 0 0-.934 2.235v2.441c0 .87.356 1.662.93 2.236a3.16 3.16 0 0 0 2.238.934V7.049a1.443 1.443 0 0 1-1.441-1.443v-2.44a1.441 1.441 0 0 1 1.441-1.44h8.142a1.443 1.443 0 0 1 1.443 1.44v2.44c0 .396-.162.757-.424 1.02a1.438 1.438 0 0 1-1.019.423v1.727a3.16 3.16 0 0 0 2.24-.93 3.16 3.16 0 0 0 .93-2.24v-2.44c0-.87-.358-1.662-.934-2.237"/>
        <path fill="#666" d="M27.659 5.24H21.63c-.581 0-1.057.473-1.057 1.054v3.232c0 .581.476 1.06 1.057 1.06H27.66c.583 0 1.057-.479 1.057-1.06V6.294c0-.58-.474-1.055-1.057-1.055M8.27 17.05l3.712-2.598a.799.799 0 0 0 .197-1.108l-.834-1.19a.8.8 0 0 0-1.11-.2l-3.713 2.6a.803.803 0 0 0-.196 1.11l.835 1.193a.795.795 0 0 0 1.109.192"/>
        <path fill="#4D4D4D" d="M37.202 24.43L26.75 35.76a2.232 2.232 0 0 0-1.377-1.371l11.334-10.456.496.496z"/>
        <path fill="#4D4D4D" d="M24.646 38.71a2.225 2.225 0 0 0 0-4.447 2.225 2.225 0 0 0 0 4.448"/>
        <path fill="#FFF" d="M24.646 37.483a.996.996 0 1 0 0-1.993.996.996 0 0 0 0 1.993"/>
        <path fill="#4D4D4D" d="M39.692 27.357l.389.666-1.86 1.073-.384-.666zM33.112 21.059l.666.384-1.068 1.86-.673-.389zM32.037 50.065l.673-.389 1.073 1.86-.67.384zM37.837 44.549l.384-.67 1.86 1.072-.385.67zM39.54 36.874h3.263V36.1H39.54z"/>
        <path fill="#000" d="M23.92 38.59l-3.945 3.943L18.6 41.16l3.945-3.947a2.235 2.235 0 0 0 1.375 1.377"/>
        <path fill="#666" d="M23.92 38.59l-3.945 3.943L18.6 41.16l3.945-3.947a2.235 2.235 0 0 0 1.375 1.377M24.646 18.332h-.387v3.263h.774v-3.263zM15.514 21.443l.668-.384 1.073 1.855-.668.389zM9.215 28.028l.385-.671 1.857 1.073-.384.666zM11.073 43.878l.384.67L9.6 45.623l-.387-.671zM16.584 49.676l.67.389-1.072 1.855-.668-.384zM6.49 36.874h3.264V36.1H6.491zM24.646 51.38h-.387v3.262h.774V51.38z"/>
    </g>
</svg>
