<svg xmlns="http://www.w3.org/2000/svg" width="64" height="144" viewBox="0 0 64 144">
    <defs>
        <filter id="a" width="125%" height="110.2%" x="-12.5%" y="-3.6%" filterUnits="objectBoundingBox">
            <feOffset dy="2" in="SourceAlpha" result="shadowOffsetOuter1"/>
            <feGaussianBlur in="shadowOffsetOuter1" result="shadowBlurOuter1" stdDeviation="2"/>
            <feColorMatrix in="shadowBlurOuter1" result="shadowMatrixOuter1" values="0 0 0 0 0 0 0 0 0 0 0 0 0 0 0 0 0 0 0.1 0"/>
            <feMerge>
                <feMergeNode in="shadowMatrixOuter1"/>
                <feMergeNode in="SourceGraphic"/>
            </feMerge>
        </filter>
    </defs>
    <g fill="none" fill-rule="evenodd" filter="url(#a)" transform="translate(4 2)">
        <path fill="#FCCE50" d="M18.458 101.54c-2.6 2.601-3.9 5.735-3.9 9.403 0 2.827.773 5.334 2.32 7.521l10.982 17.804 10.962-17.804h.02c1.547-2.187 2.32-4.694 2.32-7.521 0-3.668-1.306-6.802-3.92-9.402-2.094-2.108-4.555-3.361-7.382-3.761v3h-4v-3c-2.828.4-5.295 1.653-7.402 3.76"/>
        <path fill="#E6E5DD" d="M35.522 43.429c-1.943 1.943-4.25 2.996-6.922 3.16h-.2c-.102.011-.209.018-.32.02H27.66c-2.9-.046-5.387-1.106-7.461-3.18-2.108-2.12-3.161-4.674-3.161-7.662 0-2.987 1.053-5.534 3.16-7.641 2.075-2.075 4.562-3.135 7.462-3.181H28.08c.111.003.218.003.32 0l.62.06c2.356.23 4.422 1.177 6.202 2.84.092.08.192.174.3.28 2.107 2.108 3.16 4.655 3.16 7.642 0 2.988-1.053 5.541-3.16 7.662m10.622-7.722c-1.04-5.04-2.514-9.829-4.421-14.363a90.32 90.32 0 0 0-1.36-3.02H15.338c-2.575 5.414-4.501 11.209-5.782 17.383C7.81 43.99 7.43 52.024 8.416 59.812a67.534 67.534 0 0 0 3.78 15.123l4.022 10.222h9.642V61.813l2-2 2 2v23.344h9.663l4-10.222a67.533 67.533 0 0 0 3.78-15.123c.974-7.788.588-15.823-1.16-24.105"/>
        <path fill="#8BE48F" d="M34.161 85.157h-4.3V95.4h4.3l3.421-8.682.6-1.56zM17.538 85.157l.62 1.56 3.4 8.683h4.302V85.158h-4.301z"/>
        <path fill="#FF7171" d="M28.12.28a14.043 14.043 0 0 0-.2-.22L27.9.04a.942.942 0 0 1-.04-.04v18.324h12.502C37.23 11.757 33.15 5.743 28.12.28M47.304 59.812a67.533 67.533 0 0 1-3.78 15.123l-4.001 10.222 15.623 15.624V67.654l-7.842-7.842zM32.68 40.588c-.44.44-.906.807-1.4 1.1-1.013.6-2.153.9-3.42.9-1.88 0-3.488-.666-4.821-2-1.334-1.333-2-2.94-2-4.82 0-1.881.666-3.481 2-4.802.44-.44.914-.807 1.42-1.1 1-.6 2.134-.9 3.4-.9 1.734 0 3.242.573 4.522 1.72.107.094.207.187.3.28 1.32 1.32 1.98 2.921 1.98 4.801 0 1.88-.66 3.488-1.98 4.821m2.54-12.742c-1.779-1.665-3.846-2.611-6.2-2.84l-.621-.06a6.095 6.095 0 0 1-.32 0H27.66c-2.9.045-5.387 1.105-7.462 3.18-2.107 2.107-3.16 4.654-3.16 7.641 0 2.988 1.053 5.542 3.16 7.662 2.075 2.074 4.562 3.135 7.462 3.18H28.08c.111-.002.218-.009.32-.02h.2c2.672-.164 4.979-1.217 6.922-3.16 2.107-2.12 3.16-4.674 3.16-7.662 0-2.987-1.053-5.534-3.16-7.641a5.734 5.734 0 0 0-.3-.28M27.86 100.78h2V61.814l-2-2z"/>
        <path fill="#D86085" d="M27.86 59.812l-2 2V100.78h2z"/>
        <path fill="#DD6262" d="M15.917 17.144c-.2.386-.393.78-.58 1.18H27.86V0c-4.854 5.201-8.835 10.915-11.943 17.144"/>
        <path fill="#FF7171" d="M16.218 85.157l-4.021-10.222a67.555 67.555 0 0 1-3.781-15.123L.574 67.654v33.127l15.644-15.624z"/>
        <path fill="#6D7D91" d="M23.88 31.787c.36-.36.746-.66 1.16-.9.826-.494 1.766-.74 2.82-.74 1.427 0 2.674.473 3.74 1.42.08.066.16.14.24.22 1.095 1.093 1.641 2.42 1.641 3.98 0 1.547-.546 2.874-1.64 3.981-.36.36-.747.66-1.16.9-.84.494-1.78.74-2.821.74-1.56 0-2.887-.546-3.98-1.64-1.108-1.107-1.661-2.434-1.661-3.98 0-1.56.553-2.888 1.66-3.981m.58-1.92c-.506.292-.98.66-1.42 1.1-1.334 1.32-2 2.92-2 4.8s.666 3.488 2 4.821c1.333 1.334 2.94 2 4.82 2 1.268 0 2.408-.3 3.422-.9.493-.293.96-.66 1.4-1.1 1.32-1.333 1.98-2.94 1.98-4.82 0-1.881-.66-3.481-1.98-4.802a5.866 5.866 0 0 0-.3-.28c-1.28-1.147-2.788-1.72-4.521-1.72-1.267 0-2.4.3-3.4.9"/>
        <path fill="#FFF" d="M25.04 30.886c-.414.24-.8.54-1.16.9-1.108 1.094-1.661 2.421-1.661 3.981 0 1.547.553 2.874 1.66 3.981 1.094 1.094 2.42 1.64 3.981 1.64 1.04 0 1.98-.246 2.82-.74.414-.24.8-.54 1.16-.9 1.094-1.107 1.641-2.434 1.641-3.98 0-1.56-.547-2.888-1.64-3.981-.08-.08-.16-.154-.24-.22-1.067-.947-2.314-1.42-3.74-1.42-1.054 0-1.995.246-2.822.74"/>
        <path fill="#DD6262" d="M8.416 59.812l-1.52 1.5a70.277 70.277 0 0 0 3.86 14.964l4.041 10.282 1.42-1.4-4.02-10.223a67.555 67.555 0 0 1-3.781-15.123"/>
        <path fill="#F8E07E" d="M25.86 100.78v-1.72c-1.087.323-2.06.91-2.921 1.76-1.36 1.36-2.04 3.001-2.04 4.922 0 1.48.406 2.793 1.22 3.94l5.741 9.322 5.741-9.322c.814-1.147 1.22-2.46 1.22-3.94 0-1.92-.68-3.561-2.04-4.921-.861-.85-1.834-1.438-2.92-1.76v1.72H25.86z"/>
        <path fill="#DD6262" d="M44.983 76.276a70.319 70.319 0 0 0 3.856-14.929l-1.518-1.517a67.539 67.539 0 0 1-3.778 15.105l-4.02 10.222 1.42 1.4 4.04-10.281z"/>
    </g>
</svg>
