<svg xmlns="http://www.w3.org/2000/svg" width="40" height="61" viewBox="0 0 40 61">
    <g fill="none" fill-rule="evenodd">
        <path fill="#F7D6C6" stroke="#E3BFAD" stroke-width="2" d="M1.019 20.648c.125 2.724 1.103 5.34 2.684 7.561a14.639 14.639 0 0 1 2.713 8.49V48.68c0 5.789 4.693 10.482 10.483 10.482 5.523 0 10.104-4.285 10.456-9.797a16.314 16.314 0 0 1 4.745-10.49 23.402 23.402 0 0 0 6.855-16.55v-1.938C38.955 9.68 30.425 1 19.567 1 8.71 1 .557 10.59 1.019 20.648z"/>
        <path fill="#F0C0AF" d="M19.977 8.755c-6.424 0-11.632 5.208-11.632 11.633v1.8c0 2.132 1.66 3.97 3.792 4.015a3.878 3.878 0 0 0 3.957-4.08c-.09-1.76.633-3.486 2.112-4.444 4.641-3.01 9.527.248 9.527 4.648v1.938c0 2.173-1.785 3.835-3.957 3.878a3.878 3.878 0 0 0-3.799 3.877v5.817a5.816 5.816 0 0 1-5.816 5.816 1.938 1.938 0 1 0 0 3.878h1.273a8.42 8.42 0 0 0 8.421-8.42c0-2.058.817-4.03 2.271-5.484a18.723 18.723 0 0 0 5.484-13.24c0-6.424-5.208-11.632-11.633-11.632"/>
    </g>
</svg>
