<svg width="59" height="30" viewBox="0 0 59 30" fill="none" xmlns="http://www.w3.org/2000/svg">
<g opacity="0.8">
<mask id="mask0" mask-type="alpha" maskUnits="userSpaceOnUse" x="0" y="0" width="32" height="30">
<rect width="32" height="30" rx="15" fill="white"/>
</mask>
<g mask="url(#mask0)">
<rect width="32" height="30" fill="#D3DFE4"/>
<path d="M17.1999 10.5H18.3999C18.559 10.5 18.7116 10.4407 18.8241 10.3352C18.9366 10.2298 18.9999 10.0867 18.9999 9.9375C18.9999 9.78832 18.9366 9.64524 18.8241 9.53975C18.7116 9.43426 18.559 9.375 18.3999 9.375H17.1999C17.0407 9.375 16.8881 9.43426 16.7756 9.53975C16.6631 9.64524 16.5999 9.78832 16.5999 9.9375C16.5999 10.0867 16.6631 10.2298 16.7756 10.3352C16.8881 10.4407 17.0407 10.5 17.1999 10.5Z" fill="white"/>
<path d="M19.5999 7.125H12.3999C11.9225 7.125 11.4646 7.30279 11.1271 7.61926C10.7895 7.93572 10.5999 8.36495 10.5999 8.8125V21.1875C10.5999 21.6351 10.7895 22.0643 11.1271 22.3807C11.4646 22.6972 11.9225 22.875 12.3999 22.875H19.5999C20.0772 22.875 20.5351 22.6972 20.8726 22.3807C21.2102 22.0643 21.3999 21.6351 21.3999 21.1875V8.8125C21.3999 8.36495 21.2102 7.93572 20.8726 7.61926C20.5351 7.30279 20.0772 7.125 19.5999 7.125ZM12.3999 8.25H19.5999C19.759 8.25 19.9116 8.30926 20.0241 8.41475C20.1366 8.52024 20.1999 8.66332 20.1999 8.8125V19.5H11.7999V8.8125C11.7999 8.66332 11.8631 8.52024 11.9756 8.41475C12.0881 8.30926 12.2407 8.25 12.3999 8.25ZM20.1999 21.1875C20.1999 21.3367 20.1366 21.4798 20.0241 21.5852C19.9116 21.6907 19.759 21.75 19.5999 21.75H12.3999C12.2407 21.75 12.0881 21.6907 11.9756 21.5852C11.8631 21.4798 11.7999 21.3367 11.7999 21.1875V20.625H20.1999V21.1875Z" fill="white"/>
<path d="M13.6 18.3751H18.4C18.5591 18.3751 18.7117 18.3158 18.8243 18.2104C18.9368 18.1049 19 17.9618 19 17.8126V16.1251C18.9965 15.7789 18.8795 15.442 18.6648 15.1603C18.4501 14.8785 18.1482 14.6655 17.8 14.5501C17.9822 14.2507 18.0774 13.9116 18.076 13.5669C18.0746 13.2222 17.9766 12.8838 17.792 12.5857C17.6073 12.2876 17.3424 12.0402 17.0237 11.8682C16.705 11.6962 16.3437 11.6057 15.976 11.6057C15.6083 11.6057 15.247 11.6962 14.9283 11.8682C14.6096 12.0402 14.3447 12.2876 14.16 12.5857C13.9754 12.8838 13.8774 13.2222 13.876 13.5669C13.8746 13.9116 13.9698 14.2507 14.152 14.5501C13.8128 14.6728 13.5211 14.889 13.3155 15.1701C13.1099 15.4513 12.9999 15.7842 13 16.1251V17.8126C13 17.9618 13.0632 18.1049 13.1757 18.2104C13.2883 18.3158 13.4409 18.3751 13.6 18.3751ZM17.8 17.2501H14.2V16.1251C14.2 15.9759 14.2632 15.8328 14.3757 15.7274C14.4883 15.6219 14.6409 15.5626 14.8 15.5626H17.2C17.3591 15.5626 17.5117 15.6219 17.6243 15.7274C17.7368 15.8328 17.8 15.9759 17.8 16.1251V17.2501ZM16 12.7501C16.178 12.7501 16.352 12.7996 16.5 12.8923C16.648 12.985 16.7634 13.1168 16.8315 13.271C16.8996 13.4251 16.9174 13.5948 16.8827 13.7585C16.848 13.9221 16.7623 14.0725 16.6364 14.1905C16.5105 14.3085 16.3502 14.3888 16.1756 14.4214C16.001 14.454 15.82 14.4372 15.6556 14.3734C15.4911 14.3095 15.3506 14.2014 15.2517 14.0626C15.1528 13.9239 15.1 13.7607 15.1 13.5939C15.1 13.3701 15.1948 13.1555 15.3636 12.9972C15.5324 12.839 15.7613 12.7501 16 12.7501Z" fill="white"/>
</g>
</g>
<g opacity="0.8">
<mask id="mask1" mask-type="alpha" maskUnits="userSpaceOnUse" x="27" y="0" width="32" height="30">
<rect x="27" width="32" height="30" rx="15" fill="white"/>
</mask>
<g mask="url(#mask1)">
<rect x="27" width="32" height="30" fill="#D3DFE4"/>
<path d="M44.5554 17.625V21.125H41.4443V17.625H44.5554Z" fill="white"/>
<path d="M38.022 22.0001H47.9776C48.2251 22.0001 48.4625 21.9079 48.6375 21.7438C48.8126 21.5797 48.9109 21.3571 48.9109 21.1251V11.7917C48.9109 11.5597 48.8126 11.3371 48.6375 11.173C48.4625 11.0089 48.2251 10.9167 47.9776 10.9167H45.7998V12.0834H47.6664V20.8334H38.3331V12.0834H40.1998V10.9167H38.022C37.7745 10.9167 37.5371 11.0089 37.362 11.173C37.187 11.3371 37.0887 11.5597 37.0887 11.7917V21.1251C37.0887 21.3571 37.187 21.5797 37.362 21.7438C37.5371 21.9079 37.7745 22.0001 38.022 22.0001Z" fill="white"/>
<path d="M44.5554 10.6251V11.7917H41.4443V10.6251H44.5554Z" fill="white"/>
<path d="M43.6221 12.6667H42.3777V9.75008H43.6221V12.6667Z" fill="white"/>
<path d="M40.511 14.4167H45.4888C45.7363 14.4167 45.9737 14.3245 46.1488 14.1604C46.3238 13.9963 46.4221 13.7737 46.4221 13.5417V8.875C46.4221 8.64294 46.3238 8.42038 46.1488 8.25628C45.9737 8.09219 45.7363 8 45.4888 8H40.511C40.2635 8 40.0261 8.09219 39.851 8.25628C39.676 8.42038 39.5777 8.64294 39.5777 8.875V13.5417C39.5777 13.7737 39.676 13.9963 39.851 14.1604C40.0261 14.3245 40.2635 14.4167 40.511 14.4167ZM45.1777 13.25H40.8221V9.16667H45.1777V13.25Z" fill="white"/>
</g>
</g>
</svg>
