<svg width="30" height="30" viewBox="0 0 30 30" fill="none" xmlns="http://www.w3.org/2000/svg">
<mask id="mask0" mask-type="alpha" maskUnits="userSpaceOnUse" x="0" y="0" width="30" height="30">
<rect width="30" height="30" rx="15" fill="white"/>
</mask>
<g mask="url(#mask0)">
<rect width="30" height="30" fill="#4C8CE4"/>
</g>
<path d="M16.4584 16.625V20.125H13.5417V16.625H16.4584Z" fill="white"/>
<path d="M10.3333 21.0001H19.6666C19.8987 21.0001 20.1213 20.9079 20.2853 20.7438C20.4494 20.5797 20.5416 20.3571 20.5416 20.1251V10.7917C20.5416 10.5597 20.4494 10.3371 20.2853 10.173C20.1213 10.0089 19.8987 9.91675 19.6666 9.91675H17.625V11.0834H19.375V19.8334H10.625V11.0834H12.375V9.91675H10.3333C10.1012 9.91675 9.87867 10.0089 9.71458 10.173C9.55048 10.3371 9.4583 10.5597 9.4583 10.7917V20.1251C9.4583 20.3571 9.55048 20.5797 9.71458 20.7438C9.87867 20.9079 10.1012 21.0001 10.3333 21.0001Z" fill="white"/>
<path d="M16.4584 9.62508V10.7917H13.5417V9.62508H16.4584Z" fill="white"/>
<path d="M15.5833 11.6667H14.4166V8.75008H15.5833V11.6667Z" fill="white"/>
<path d="M12.6667 13.4167H17.3334C17.5654 13.4167 17.788 13.3245 17.9521 13.1604C18.1162 12.9963 18.2084 12.7737 18.2084 12.5417V7.875C18.2084 7.64294 18.1162 7.42038 17.9521 7.25628C17.788 7.09219 17.5654 7 17.3334 7H12.6667C12.4346 7 12.2121 7.09219 12.048 7.25628C11.8839 7.42038 11.7917 7.64294 11.7917 7.875V12.5417C11.7917 12.7737 11.8839 12.9963 12.048 13.1604C12.2121 13.3245 12.4346 13.4167 12.6667 13.4167ZM17.0417 12.25H12.9584V8.16667H17.0417V12.25Z" fill="white"/>
</svg>
