<svg width="30" height="30" viewBox="0 0 30 30" fill="none" xmlns="http://www.w3.org/2000/svg">
<mask id="mask0" mask-type="alpha" maskUnits="userSpaceOnUse" x="0" y="0" width="30" height="30">
<rect width="30" height="30" rx="15" fill="white"/>
</mask>
<g mask="url(#mask0)">
<rect width="30" height="30" fill="#D3DFE4"/>
</g>
<path d="M16.4585 16.625V20.125H13.5418V16.625H16.4585Z" fill="white"/>
<path d="M10.3332 21.0001H19.6665C19.8986 21.0001 20.1211 20.9079 20.2852 20.7438C20.4493 20.5797 20.5415 20.3571 20.5415 20.1251V10.7917C20.5415 10.5597 20.4493 10.3371 20.2852 10.173C20.1211 10.0089 19.8986 9.91675 19.6665 9.91675H17.6248V11.0834H19.3748V19.8334H10.6248V11.0834H12.3748V9.91675H10.3332C10.1011 9.91675 9.87855 10.0089 9.71446 10.173C9.55036 10.3371 9.45817 10.5597 9.45817 10.7917V20.1251C9.45817 20.3571 9.55036 20.5797 9.71446 20.7438C9.87855 20.9079 10.1011 21.0001 10.3332 21.0001Z" fill="white"/>
<path d="M16.4585 9.62508V10.7917H13.5418V9.62508H16.4585Z" fill="white"/>
<path d="M15.5832 11.6667H14.4165V8.75008H15.5832V11.6667Z" fill="white"/>
<path d="M12.6668 13.4167H17.3335C17.5656 13.4167 17.7881 13.3245 17.9522 13.1604C18.1163 12.9963 18.2085 12.7737 18.2085 12.5417V7.875C18.2085 7.64294 18.1163 7.42038 17.9522 7.25628C17.7881 7.09219 17.5656 7 17.3335 7H12.6668C12.4348 7 12.2122 7.09219 12.0481 7.25628C11.884 7.42038 11.7918 7.64294 11.7918 7.875V12.5417C11.7918 12.7737 11.884 12.9963 12.0481 13.1604C12.2122 13.3245 12.4348 13.4167 12.6668 13.4167ZM17.0418 12.25H12.9585V8.16667H17.0418V12.25Z" fill="white"/>
</svg>
