<svg width="30" height="30" viewBox="0 0 30 30" fill="none" xmlns="http://www.w3.org/2000/svg">
<mask id="mask0" mask-type="alpha" maskUnits="userSpaceOnUse" x="0" y="0" width="30" height="30">
<rect width="30" height="30" rx="15" fill="white"/>
</mask>
<g mask="url(#mask0)">
<rect width="30" height="30" fill="#D3DFE4"/>
<path d="M16.125 10.5H17.25C17.3992 10.5 17.5423 10.4407 17.6477 10.3352C17.7532 10.2298 17.8125 10.0867 17.8125 9.9375C17.8125 9.78832 17.7532 9.64524 17.6477 9.53975C17.5423 9.43426 17.3992 9.375 17.25 9.375H16.125C15.9758 9.375 15.8327 9.43426 15.7273 9.53975C15.6218 9.64524 15.5625 9.78832 15.5625 9.9375C15.5625 10.0867 15.6218 10.2298 15.7273 10.3352C15.8327 10.4407 15.9758 10.5 16.125 10.5Z" fill="white"/>
<path d="M18.375 7.125H11.625C11.1774 7.125 10.7482 7.30279 10.4318 7.61926C10.1153 7.93572 9.9375 8.36495 9.9375 8.8125V21.1875C9.9375 21.6351 10.1153 22.0643 10.4318 22.3807C10.7482 22.6972 11.1774 22.875 11.625 22.875H18.375C18.8226 22.875 19.2518 22.6972 19.5682 22.3807C19.8847 22.0643 20.0625 21.6351 20.0625 21.1875V8.8125C20.0625 8.36495 19.8847 7.93572 19.5682 7.61926C19.2518 7.30279 18.8226 7.125 18.375 7.125ZM11.625 8.25H18.375C18.5242 8.25 18.6673 8.30926 18.7727 8.41475C18.8782 8.52024 18.9375 8.66332 18.9375 8.8125V19.5H11.0625V8.8125C11.0625 8.66332 11.1218 8.52024 11.2273 8.41475C11.3327 8.30926 11.4758 8.25 11.625 8.25ZM18.9375 21.1875C18.9375 21.3367 18.8782 21.4798 18.7727 21.5852C18.6673 21.6907 18.5242 21.75 18.375 21.75H11.625C11.4758 21.75 11.3327 21.6907 11.2273 21.5852C11.1218 21.4798 11.0625 21.3367 11.0625 21.1875V20.625H18.9375V21.1875Z" fill="white"/>
<path d="M12.75 18.3751H17.25C17.3992 18.3751 17.5423 18.3158 17.6477 18.2104C17.7532 18.1049 17.8125 17.9618 17.8125 17.8126V16.1251C17.8092 15.7789 17.6995 15.442 17.4983 15.1603C17.297 14.8785 17.0139 14.6655 16.6875 14.5501C16.8583 14.2507 16.9476 13.9116 16.9462 13.5669C16.9449 13.2222 16.8531 12.8838 16.68 12.5857C16.5068 12.2876 16.2585 12.0402 15.9597 11.8682C15.6609 11.6962 15.3222 11.6057 14.9775 11.6057C14.6328 11.6057 14.2941 11.6962 13.9953 11.8682C13.6965 12.0402 13.4482 12.2876 13.275 12.5857C13.1019 12.8838 13.0101 13.2222 13.0088 13.5669C13.0074 13.9116 13.0967 14.2507 13.2675 14.5501C12.9495 14.6728 12.6761 14.889 12.4833 15.1701C12.2905 15.4513 12.1874 15.7842 12.1875 16.1251V17.8126C12.1875 17.9618 12.2468 18.1049 12.3523 18.2104C12.4577 18.3158 12.6008 18.3751 12.75 18.3751ZM16.6875 17.2501H13.3125V16.1251C13.3125 15.9759 13.3718 15.8328 13.4773 15.7274C13.5827 15.6219 13.7258 15.5626 13.875 15.5626H16.125C16.2742 15.5626 16.4173 15.6219 16.5227 15.7274C16.6282 15.8328 16.6875 15.9759 16.6875 16.1251V17.2501ZM15 12.7501C15.1669 12.7501 15.33 12.7996 15.4688 12.8923C15.6075 12.985 15.7157 13.1168 15.7795 13.271C15.8434 13.4251 15.8601 13.5948 15.8275 13.7585C15.795 13.9221 15.7146 14.0725 15.5966 14.1905C15.4786 14.3085 15.3283 14.3888 15.1646 14.4214C15.0009 14.454 14.8313 14.4372 14.6771 14.3734C14.5229 14.3095 14.3912 14.2014 14.2984 14.0626C14.2057 13.9239 14.1563 13.7607 14.1563 13.5939C14.1563 13.3701 14.2451 13.1555 14.4034 12.9972C14.5616 12.839 14.7762 12.7501 15 12.7501Z" fill="white"/>
</g>
</svg>
