<svg xmlns="http://www.w3.org/2000/svg" xmlns:xlink="http://www.w3.org/1999/xlink" width="217" height="401" viewBox="0 0 217 401">
    <defs>
        <path id="b" d="M0 19.998C0 8.953 8.947 0 20 0h148.132c11.045 0 20.024 8.964 20.055 19.998l.914 332.882c.03 11.044-8.894 19.998-19.942 19.998H19.997C8.953 372.878 0 363.914 0 352.88V19.998z"/>
        <filter id="a" width="127.5%" height="113.9%" x="-13.7%" y="-4.3%" filterUnits="objectBoundingBox">
            <feOffset dy="10" in="SourceAlpha" result="shadowOffsetOuter1"/>
            <feGaussianBlur in="shadowOffsetOuter1" result="shadowBlurOuter1" stdDeviation="7"/>
            <feColorMatrix in="shadowBlurOuter1" values="0 0 0 0 0 0 0 0 0 0 0 0 0 0 0 0 0 0 0.1 0"/>
        </filter>
        <path id="c" d="M0 22.93h19.993V.217H0z"/>
    </defs>
    <g fill="none" fill-rule="evenodd" transform="translate(14 4)">
        <use fill="#000" filter="url(#a)" xlink:href="#b"/>
        <use fill="#4A4A4A" xlink:href="#b"/>
        <path fill="#3D3D3D" d="M108.368 353.5c0 8.009-6.351 14.502-14.184 14.502C86.35 368.002 80 361.509 80 353.5S86.35 339 94.184 339c7.833 0 14.184 6.493 14.184 14.5"/>
        <path fill="#F5FBFF" d="M10 26h170v308.66H10z"/>
        <path fill="#4C6473" d="M10 261h170v74H10z"/>
        <rect width="95.771" height="21.517" x="47" y="290" fill="#83C6A8" rx="10.759"/>
        <path fill="#CFD8DC" d="M35 184h120v65H35z"/>
        <path fill="#FFF" d="M94.61 230.67c-7.504 0-13.61-6.206-13.61-13.835C81 209.206 87.106 203 94.61 203c7.506 0 13.612 6.206 13.612 13.835 0 7.629-6.106 13.835-13.611 13.835" opacity=".87"/>
        <path fill="#CFD8DC" d="M102.397 216.809l-11.848 6.94v-13.88z"/>
        <rect width="95" height="4" x="47" y="171" fill="#CFD8DC" rx="2"/>
        <rect width="95" height="4" x="47" y="161" fill="#CFD8DC" rx="2"/>
        <rect width="115" height="4" x="37" y="151" fill="#CFD8DC" rx="2"/>
        <rect width="85" height="4" x="52" y="125" fill="#CFD8DC" rx="2"/>
        <rect width="110" height="4" x="40" y="115" fill="#CFD8DC" rx="2"/>
        <rect width="120" height="4" x="35" y="105" fill="#CFD8DC" rx="2"/>
        <rect width="100" height="4" x="45" y="95" fill="#CFD8DC" rx="2"/>
        <text fill="#A9B3B7" font-family="Roboto-Medium, Roboto" font-size="12" font-weight="400">
            <tspan x="36.979" y="81">How this study works</tspan>
        </text>
        <g transform="translate(85 37)">
            <path fill="#83C6A8" d="M18.697 18.204l-7.376 4.367a2.557 2.557 0 0 1-2.602.006l-7.395-4.334a2.665 2.665 0 0 1-1.306-2.297L0 7.245a2.666 2.666 0 0 1 1.296-2.302L8.673.576A2.557 2.557 0 0 1 11.274.57l7.395 4.334a2.665 2.665 0 0 1 1.306 2.297l.019 8.701a2.666 2.666 0 0 1-1.297 2.302"/>
            <mask id="d" fill="#fff">
                <use xlink:href="#c"/>
            </mask>
            <path fill="#FEFEFE" d="M15.905 16.292h1.34v-4.144h-1.34zM2.251 13.469h1.332V9.33H2.251zM13.165 12.053h1.295V7.918h-1.295zM7.691 13.472h1.284V9.317H7.69zM11.736 11.4c-.001.389-.333.73-.7.72-.344-.01-.672-.352-.679-.708-.006-.382.328-.74.692-.743.371-.002.69.336.687.732M14.498 14.157c0 .397-.323.736-.69.725-.37-.012-.702-.371-.689-.744.013-.36.334-.689.685-.699.376-.01.694.319.694.718M4.927 7.194c0-.36.32-.696.672-.707.364-.011.723.342.722.71 0 .353-.33.695-.678.707-.375.012-.716-.326-.716-.71M6.322 12.819c0 .34-.339.691-.675.7a.705.705 0 0 1-.717-.697c-.003-.384.338-.724.713-.712.336.01.678.367.679.709M16.56 6.497c.346-.011.684.307.707.668.023.356-.287.717-.633.738-.335.02-.724-.342-.746-.693-.02-.32.34-.702.671-.713M8.334 6.496c.354-.003.672.317.686.69.014.379-.283.712-.647.729-.382.017-.708-.314-.705-.715.003-.396.29-.7.666-.704M4.931 15.586a.7.7 0 0 1 .733-.68.72.72 0 0 1 .656.716c-.01.35-.354.692-.692.69a.723.723 0 0 1-.697-.726M5.607 9.338c.37-.004.7.31.702.666a.695.695 0 0 1-.685.683.666.666 0 0 1-.693-.666.662.662 0 0 1 .676-.683M16.579 9.339c.358 0 .691.325.69.671a.672.672 0 0 1-.684.677c-.367 0-.692-.315-.696-.674-.004-.363.314-.674.69-.674M8.992 15.614c.003.41-.262.687-.658.69-.39.001-.667-.283-.666-.685.002-.423.254-.684.661-.685.407-.002.659.257.663.68" mask="url(#d)"/>
        </g>
    </g>
</svg>
