<svg xmlns="http://www.w3.org/2000/svg" xmlns:xlink="http://www.w3.org/1999/xlink" width="256" height="401" viewBox="0 0 256 401">
    <defs>
        <path id="b" d="M24.729 19.998C24.729 8.953 33.676 0 44.729 0H192.86c11.045 0 20.024 8.964 20.054 19.998l.915 332.882c.03 11.044-8.894 19.998-19.942 19.998H44.726c-11.044 0-19.997-8.964-19.997-19.998V19.998z"/>
        <filter id="a" width="127.5%" height="113.9%" x="-13.7%" y="-4.3%" filterUnits="objectBoundingBox">
            <feOffset dy="10" in="SourceAlpha" result="shadowOffsetOuter1"/>
            <feGaussianBlur in="shadowOffsetOuter1" result="shadowBlurOuter1" stdDeviation="7"/>
            <feColorMatrix in="shadowBlurOuter1" values="0 0 0 0 0 0 0 0 0 0 0 0 0 0 0 0 0 0 0.1 0"/>
        </filter>
        <path id="c" d="M0 76.13h66.38V.72H0z"/>
        <rect id="f" width="240" height="65" y="162" rx="10"/>
        <filter id="e" width="110%" height="136.9%" x="-5%" y="-18.5%" filterUnits="objectBoundingBox">
            <feOffset in="SourceAlpha" result="shadowOffsetOuter1"/>
            <feGaussianBlur in="shadowOffsetOuter1" result="shadowBlurOuter1" stdDeviation="4"/>
            <feComposite in="shadowBlurOuter1" in2="SourceAlpha" operator="out" result="shadowBlurOuter1"/>
            <feColorMatrix in="shadowBlurOuter1" values="0 0 0 0 0 0 0 0 0 0 0 0 0 0 0 0 0 0 0.211163949 0"/>
        </filter>
    </defs>
    <g fill="none" fill-rule="evenodd" transform="translate(8 4)">
        <use fill="#000" filter="url(#a)" xlink:href="#b"/>
        <use fill="#4A4A4A" xlink:href="#b"/>
        <path fill="#3D3D3D" d="M135.673 353.319c0 8.008-6.351 14.5-14.184 14.5-7.833 0-14.184-6.492-14.184-14.5s6.35-14.501 14.184-14.501c7.833 0 14.184 6.493 14.184 14.5"/>
        <path fill="#F5FBFF" d="M34.944 25.539H203.8v308.66H34.944z"/>
        <g transform="translate(87.725 78.32)">
            <path fill="#83C6A8" d="M62.077 60.44l-24.49 14.498a8.49 8.49 0 0 1-8.639.02L4.397 60.568C1.72 58.997.067 56.091.06 52.942L0 24.053c-.006-3.149 1.634-6.062 4.303-7.643l24.49-14.499a8.49 8.49 0 0 1 8.639-.019l24.55 14.39c2.677 1.57 4.33 4.476 4.337 7.625l.061 28.89c.007 3.149-1.634 6.062-4.303 7.643"/>
            <mask id="d" fill="#fff">
                <use xlink:href="#c"/>
            </mask>
            <path fill="#FEFEFE" d="M52.805 54.092h4.447V40.33h-4.447zM7.474 44.717h4.422V30.979H7.474zM43.708 40.015h4.299V26.288h-4.3zM25.536 44.728h4.261V30.934h-4.26zM38.966 37.85c-.006 1.289-1.109 2.42-2.329 2.388-1.14-.03-2.23-1.168-2.25-2.348-.02-1.269 1.087-2.46 2.296-2.467 1.234-.007 2.289 1.115 2.283 2.428M48.134 47.003c0 1.319-1.072 2.444-2.29 2.405-1.228-.04-2.332-1.231-2.287-2.469.043-1.198 1.11-2.286 2.274-2.319 1.248-.035 2.303 1.057 2.303 2.383M16.358 23.885c0-1.196 1.06-2.31 2.231-2.347 1.208-.037 2.4 1.135 2.397 2.357-.002 1.171-1.094 2.309-2.25 2.346-1.245.04-2.379-1.082-2.378-2.356M20.988 42.559c.003 1.128-1.123 2.296-2.24 2.325-1.287.033-2.372-1.021-2.382-2.315-.01-1.273 1.124-2.404 2.37-2.364 1.116.035 2.25 1.221 2.252 2.354M54.978 21.571c1.152-.038 2.273 1.02 2.35 2.217.075 1.184-.952 2.382-2.102 2.45-1.111.067-2.404-1.134-2.475-2.3-.065-1.064 1.126-2.33 2.227-2.367M27.669 21.568c1.174-.012 2.233 1.052 2.278 2.292.046 1.255-.939 2.363-2.15 2.418-1.266.057-2.35-1.041-2.34-2.372.011-1.316.966-2.325 2.212-2.338M16.372 51.746c.034-1.297 1.15-2.33 2.432-2.256 1.195.07 2.212 1.18 2.178 2.378-.034 1.158-1.174 2.295-2.297 2.291-1.257-.005-2.347-1.142-2.313-2.413M18.614 31.002c1.228-.013 2.329 1.03 2.333 2.212.005 1.22-1.03 2.253-2.274 2.269-1.292.015-2.269-.924-2.3-2.213-.032-1.267.945-2.254 2.241-2.268M55.043 31.006c1.188 0 2.296 1.08 2.288 2.23-.008 1.27-.994 2.247-2.268 2.246-1.218 0-2.299-1.047-2.311-2.239-.013-1.205 1.043-2.236 2.291-2.237M29.853 51.84c.012 1.36-.868 2.282-2.183 2.288-1.298.007-2.215-.936-2.21-2.271.005-1.404.84-2.27 2.194-2.276 1.35-.004 2.187.856 2.199 2.26" mask="url(#d)"/>
        </g>
        <path fill="#4C6473" d="M34.944 260.498H203.8v73.612H34.944z"/>
        <rect width="95.771" height="21.517" x="72.401" y="287.929" fill="#83C6A8" rx="10.759"/>
        <rect width="76.26" height="4.056" x="83" y="235" fill="#CFD8DC" rx="2.028"/>
        <rect width="96.26" height="4.056" x="73" y="225" fill="#CFD8DC" rx="2.028"/>
        <rect width="70" height="4.056" x="86" y="215" fill="#CFD8DC" rx="2.028"/>
        <use fill="#000" filter="url(#e)" xlink:href="#f"/>
        <use fill="#FFF" xlink:href="#f"/>
        <rect width="239" height="64" x=".5" y="162.5" stroke="#CFD8DC" rx="10"/>
        <text fill="#666669" font-family="Roboto-Regular, Roboto" font-size="15">
            <tspan x="29.987" y="187.4">An Asthma Research Study</tspan> <tspan x="53.645" y="209">by Health Institution</tspan> <tspan x="187.355" y="209" letter-spacing=".281"> </tspan>
        </text>
    </g>
</svg>
