<svg xmlns="http://www.w3.org/2000/svg" width="17" height="16" fill="none" viewBox="0 0 17 16">
    <g clip-path="url(#prefix__clip0)">
        <path fill="#4C8CE4" d="M14.422 1.267H2.755C1.555 1.267.622 2.2.622 3.4v6.333c0 1.2.933 2.134 2.133 2.134H4.29v2.2c0 .266.2.533.4.6.066 0 .2.066.266.066.2 0 .334-.066.534-.2L8.222 11.8h6.333c1.2 0 2.134-.933 2.134-2.133V3.333c-.134-1.066-1.067-2.066-2.267-2.066zm-10 6.6c-.667 0-1.267-.6-1.267-1.267 0-.667.6-1.267 1.267-1.267.667 0 1.267.6 1.267 1.267 0 .667-.6 1.267-1.267 1.267zm4.267 0c-.667 0-1.267-.6-1.267-1.267 0-.667.6-1.267 1.267-1.267.666 0 1.266.6 1.266 1.267 0 .667-.6 1.267-1.266 1.267zm4.2 0c-.667 0-1.267-.6-1.267-1.267 0-.667.6-1.267 1.267-1.267.666 0 1.266.6 1.266 1.267 0 .667-.6 1.267-1.266 1.267z"/>
    </g>
    <defs>
        <clipPath id="prefix__clip0">
            <path fill="#fff" d="M0 0H16V16H0z" transform="translate(.622)"/>
        </clipPath>
    </defs>
</svg>
