<svg xmlns="http://www.w3.org/2000/svg" width="20" height="20" viewBox="0 0 20 20">
    <g fill="#666669" fill-rule="evenodd" opacity=".25">
        <path d="M13.5 9.77a.324.324 0 0 0-.302-.086 1.29 1.29 0 0 1-.295.037c-.71 0-1.29-.578-1.29-1.29 0-.09.012-.187.038-.295a.325.325 0 0 0-.086-.302l-.306-.305c-.5-.5-1.372-.5-1.872 0l-.111.11-4.76-4.823v-.478a.963.963 0 0 0-.455-.821L1.784.094a.322.322 0 0 0-.399.045l-1.29 1.29a.322.322 0 0 0-.046.4l1.423 2.276a.962.962 0 0 0 .822.456h.477l4.7 4.636-6.904 6.92a1.937 1.937 0 0 0 .112 2.841c.347.296.781.441 1.222.441.528 0 1.067-.209 1.476-.618l6.228-6.243c.043.13.073.265.073.41 0 .09-.013.186-.038.295a.323.323 0 0 0 .086.301l5.174 5.174a2.31 2.31 0 0 0 1.644.68c.612 0 1.212-.248 1.644-.68l.486-.486c.439-.44.68-1.023.68-1.645a2.31 2.31 0 0 0-.68-1.643L13.5 9.77z"/>
        <path d="M10.533 6.518c.459.048.868.24 1.182.555l.307.306a.964.964 0 0 1 .256.905.674.674 0 0 0-.02.147c0 .356.29.646.646.646.039 0 .087-.007.146-.021a.96.96 0 0 1 .222-.026l.093.011a.337.337 0 0 0 .149-.021A3.573 3.573 0 0 1 15 8.754a4.36 4.36 0 0 0 4.355-4.355c0-.699-.178-1.384-.528-2.039a.321.321 0 0 0-.269-.17.307.307 0 0 0-.283.143L17.12 4.066a.928.928 0 0 1-.773.414h-.199a1.96 1.96 0 0 1-1.828-1.238.93.93 0 0 1 .067-.822L15.505.556a.323.323 0 0 0-.258-.488L15.175.06A1.19 1.19 0 0 0 15 .044a4.363 4.363 0 0 0-4.354 4.371 3.824 3.824 0 0 1-.37 1.645.322.322 0 0 0 .257.458"/>
    </g>
</svg>
