<svg xmlns="http://www.w3.org/2000/svg" width="20" height="13" viewBox="0 0 20 13">
    <g fill="#4C8CE4" fill-rule="evenodd">
        <path d="M6 6.573c1.654 0 3-1.346 3-3s-1.346-3-3-3-3 1.346-3 3 1.346 3 3 3M14 6.573c1.654 0 3-1.346 3-3s-1.346-3-3-3-3 1.346-3 3 1.346 3 3 3M18.647 8.565C17.557 7.961 15.867 7.24 14 7.24c-.809 0-1.663.14-2.539.415a.333.333 0 0 0-.102.584c.819.625 1.308 1.635 1.308 2.7v.426c0 .257-.051.508-.151.745a.335.335 0 0 0 .307.463h6.034c.631 0 1.143-.542 1.143-1.208v-.426c0-1.001-.518-1.911-1.353-2.374"/>
        <path d="M10.647 8.565C9.557 7.961 7.867 7.24 6 7.24c-1.867 0-3.557.72-4.647 1.325C.52 9.028 0 9.938 0 10.94v.426c0 .666.513 1.208 1.143 1.208h9.714c.631 0 1.143-.542 1.143-1.208v-.426c0-1.001-.518-1.911-1.353-2.374"/>
    </g>
</svg>
