<svg xmlns="http://www.w3.org/2000/svg" width="15" height="20" viewBox="0 0 15 20">
    <path fill="#666669" fill-rule="evenodd" d="M11.333 4a.668.668 0 0 1-.666-.667V1.138L13.529 4h-2.196zM11 9.333H3.667a.333.333 0 0 1 0-.666H11a.333.333 0 0 1 0 .666zm0 2H3.667a.333.333 0 0 1 0-.666H11a.333.333 0 0 1 0 .666zm0 2H3.667a.333.333 0 0 1 0-.666H11a.333.333 0 0 1 0 .666zm-3.333 2h-4a.333.333 0 0 1 0-.666h4a.333.333 0 0 1 0 .666zm6.902-11.236l-4-3.999A.33.33 0 0 0 10.333 0h-9C.598 0 0 .598 0 1.333v17.334C0 19.402.598 20 1.333 20h12c.736 0 1.334-.598 1.334-1.333V4.333a.331.331 0 0 0-.098-.236z" opacity=".25"/>
</svg>
