<svg xmlns="http://www.w3.org/2000/svg" width="14" height="21" viewBox="0 0 14 21">
    <g fill="#666669" fill-rule="evenodd" opacity=".25">
        <path d="M7 3.5a.7.7 0 1 0 0-1.4.7.7 0 0 0 0 1.4"/>
        <path d="M8.05 19.6h-2.1a.35.35 0 0 1 0-.7h2.1a.35.35 0 0 1 0 .7zM12.6 1.4v15.432c-.35-.384-.687-.642-1.028-.755l-.89-.297a1.919 1.919 0 0 1-.967-.717l-.086-.17a.35.35 0 0 0-.312-.193h-.303l-.207-.723a3.659 3.659 0 0 0 .782-1.564c.534-.436.595-1.912.595-1.93 0-.26-.079-.601-.273-.824.138-.265.247-.615.268-1.01l.185-.185a.353.353 0 0 0 .102-.247c0-1.259-1.216-2.617-3.183-2.617-1.092 0-1.648.381-1.868.587-.575.127-1.315.86-1.315 1.746l-.002.276c-.004.636.001 1.079.058 1.382-.243.216-.34.602-.34.893 0 .017.06 1.493.595 1.93.077.391.326 1.037.782 1.563l-.207.723h-.303a.35.35 0 0 0-.312.193l-.065.132c-.235.353-.586.621-.988.755l-.89.297c-.34.113-.678.37-1.028.755V1.4h11.2zm0-1.4H1.4C.628 0 0 .628 0 1.4v18.2c0 .772.628 1.4 1.4 1.4h11.2c.772 0 1.4-.628 1.4-1.4V1.4c0-.772-.628-1.4-1.4-1.4z"/>
    </g>
</svg>
