<svg xmlns="http://www.w3.org/2000/svg" width="20" height="15" viewBox="0 0 20 15">
    <g fill="#4C8CE4" fill-rule="evenodd">
        <path d="M10 12a4.672 4.672 0 0 1-4.667-4.667A4.672 4.672 0 0 1 10 2.667a4.672 4.672 0 0 1 4.666 4.666A4.672 4.672 0 0 1 10 12m0-12A10.485 10.485 0 0 0 .017 7.23a.336.336 0 0 0 0 .207A10.485 10.485 0 0 0 10 14.667c4.553 0 8.564-2.906 9.983-7.23a.336.336 0 0 0 0-.208A10.485 10.485 0 0 0 10 0"/>
        <path d="M10 4.667a2.67 2.67 0 0 0-2.667 2.666A2.67 2.67 0 0 0 10 10a2.67 2.67 0 0 0 2.666-2.667A2.67 2.67 0 0 0 10 4.667"/>
    </g>
</svg>
