<svg xmlns="http://www.w3.org/2000/svg" width="15" height="20" viewBox="0 0 15 20">
    <path fill="#666669" fill-rule="evenodd" d="M8.333 9a1.001 1.001 0 0 1 0-2 1.001 1.001 0 0 1 0 2m5.273 8.361a7.293 7.293 0 0 0 1.06-3.807c0-2.929-1.676-5.518-4.278-6.636a2.322 2.322 0 0 0-1.76-1.221l.344-.678a.335.335 0 0 0-.15-.45l-.079-.04.461-.908.085.042a.332.332 0 0 0 .445-.148l.897-1.77a.332.332 0 0 0-.15-.45L7.925.035a.332.332 0 0 0-.444.148l-.898 1.77a.335.335 0 0 0 .15.45l.08.038-.462.909-.084-.042a.332.332 0 0 0-.445.149l-3.453 6.812a.333.333 0 0 0 .15.45l2.556 1.26a.335.335 0 0 0 .444-.147l1.13-2.227a2.323 2.323 0 0 0 1.684.728c.386 0 .746-.103 1.066-.27 1.178.628 1.934 1.958 1.934 3.45 0 2.106-1.495 3.82-3.333 3.82H4.667V16h1a.333.333 0 0 0 0-.667H.333a.333.333 0 0 0 0 .667h1v1.333c-.735 0-1.333.598-1.333 1.334v1c0 .184.15.333.333.333h14c.184 0 .334-.15.334-.333v-1c0-.642-.456-1.179-1.06-1.306" opacity=".25"/>
</svg>
