<svg xmlns="http://www.w3.org/2000/svg" width="25" height="30" viewBox="0 0 25 30">
    <path fill="#2D3752" fill-rule="evenodd" d="M16.664 4.793C17.718 3.524 18.425 1.761 18.232 0c-1.512.06-3.35 1.009-4.432 2.273-.971 1.126-1.822 2.92-1.597 4.641 1.688.13 3.413-.854 4.461-2.12m5.74 21.475c-1.25 1.83-2.553 3.654-4.603 3.69-2.01.039-2.658-1.19-4.961-1.19-2.302 0-3.02 1.154-4.927 1.229-1.98.077-3.482-1.976-4.748-3.797C.58 22.477-1.39 15.674 1.255 11.087c1.32-2.28 3.67-3.722 6.224-3.76 1.946-.033 3.778 1.302 4.965 1.302 1.189 0 3.414-1.614 5.758-1.377.977.044 3.73.395 5.501 2.976-.146.092-3.287 1.913-3.252 5.71.039 4.538 3.992 6.05 4.039 6.068-.037.102-.634 2.153-2.085 4.263z"/>
</svg>
