<svg xmlns="http://www.w3.org/2000/svg" xmlns:xlink="http://www.w3.org/1999/xlink" width="102" height="218" viewBox="0 0 102 218">
    <defs>
        <path id="a" d="M.829.477h89.87l.49 148.555H.83z"/>
        <filter id="c" width="125%" height="110.2%" x="-12.5%" y="-3.6%" filterUnits="objectBoundingBox">
            <feOffset dy="2" in="SourceAlpha" result="shadowOffsetOuter1"/>
            <feGaussianBlur in="shadowOffsetOuter1" result="shadowBlurOuter1" stdDeviation="2"/>
            <feColorMatrix in="shadowBlurOuter1" result="shadowMatrixOuter1" values="0 0 0 0 0 0 0 0 0 0 0 0 0 0 0 0 0 0 0.1 0"/>
            <feMerge>
                <feMergeNode in="shadowMatrixOuter1"/>
                <feMergeNode in="SourceGraphic"/>
            </feMerge>
        </filter>
    </defs>
    <g fill="none" fill-rule="evenodd">
        <path fill="#D3DFE4" d="M0 41.012a10.003 10.003 0 0 1 10.007-10.007H91.46c5.526 0 10.02 4.47 10.036 10.007l.493 166.41c.017 5.525-4.452 10.005-9.961 10.005H9.99c-5.518 0-9.991-4.47-9.991-10.006V41.011z"/>
        <g transform="translate(5 48.005)">
            <mask id="b" fill="#fff">
                <use xlink:href="#a"/>
            </mask>
            <use fill="#34495E" xlink:href="#a"/>
            <g mask="url(#b)">
                <path fill="#93A9C4" d="M39.361 129.64c-1.511-1.5-3.33-2.251-5.455-2.251-2.136 0-3.954.75-5.455 2.251-1.26 1.271-1.994 2.76-2.202 4.47a5.24 5.24 0 0 0-2.054-.395c-1.435 0-2.657.504-3.665 1.512-1.018 1.02-1.528 2.246-1.528 3.68 0 1.436.51 2.657 1.528 3.665.976.986 2.153 1.495 3.533 1.529h19.653c1.391-.022 2.58-.532 3.566-1.529 1.008-1.008 1.511-2.23 1.511-3.664 0-1.435-.503-2.662-1.511-3.68-1.02-1.009-2.246-1.513-3.681-1.513-.734 0-1.413.132-2.038.395-.208-1.71-.942-3.199-2.202-4.47"/>
                <path fill="#93A9C4" d="M57.075 127.39c-2.125 0-3.938.75-5.439 2.25-1.27 1.26-2.01 2.75-2.218 4.47a5.019 5.019 0 0 0-2.038-.411c-1.435 0-2.662.51-3.68 1.528-1.008 1.008-1.512 2.23-1.512 3.664 0 1.446.504 2.674 1.511 3.681.986.986 2.17 1.496 3.55 1.529h19.636c1.391-.033 2.58-.543 3.566-1.529 1.018-1.007 1.528-2.235 1.528-3.68 0-1.435-.51-2.657-1.528-3.665-1.008-1.019-2.23-1.528-3.665-1.528a5.06 5.06 0 0 0-2.054.41c-.197-1.719-.93-3.209-2.201-4.468-1.501-1.502-3.32-2.252-5.456-2.252"/>
                <path fill="#A6BFDD" d="M113.93 138.744a3.77 3.77 0 0 0-.313-.28c1.425-2.75 2.136-5.794 2.136-9.136 0-4.59-1.33-8.626-3.993-12.11.614 1.928.92 3.982.92 6.162 0 5.346-1.883 9.903-5.652 13.671a20.419 20.419 0 0 1-3.894 3.073c-.405.241-.81.465-1.216.673-2.607 1.282-5.472 1.923-8.594 1.923-4.48 0-8.413-1.33-11.798-3.993a7.44 7.44 0 0 1-.986 1.167c-1.643 1.643-3.62 2.465-5.932 2.465-1.314 0-2.514-.258-3.599-.773-.558 1.622-1.495 3.09-2.81 4.404a12.308 12.308 0 0 1-3.154 2.284c-1.534.734-3.216 1.101-5.045 1.101-.044 0-.082.038-.115.115h49.756c1.336-.033 2.52-.438 3.55-1.216.262-.197.508-.41.739-.64 1.226-1.228 1.84-2.707 1.84-4.437 0-1.742-.614-3.227-1.84-4.453M-20.91 123.38c0-2.18.311-4.234.936-6.162-2.622 3.417-3.958 7.366-4.01 11.847v.789c.075 3.126.782 5.996 2.12 8.61l-.296.28c-1.226 1.226-1.84 2.71-1.84 4.453 0 1.73.614 3.21 1.84 4.437.23.23.477.443.74.64 1.03.778 2.212 1.183 3.549 1.216h49.74c-.033-.077-.072-.115-.116-.115-1.83 0-3.505-.367-5.028-1.101a12.58 12.58 0 0 1-3.171-2.284c-1.315-1.314-2.246-2.782-2.794-4.404-1.095.515-2.3.773-3.615.773-2.3 0-4.272-.822-5.915-2.465a7.404 7.404 0 0 1-.986-1.167c-3.374 2.662-7.307 3.993-11.798 3.993-5.346 0-9.914-1.89-13.704-5.669-2.144-2.144-3.678-4.543-4.601-7.197a30.77 30.77 0 0 1-.263-.789c-.526-1.784-.789-3.679-.789-5.685"/>
                <path fill="#F3F2EC" d="M-3.296 109.166H-4.38c-5.3.13-9.841 2.07-13.622 5.817a.487.487 0 0 1-.066.082 23.454 23.454 0 0 0-1.906 2.153c-.625 1.928-.937 3.982-.937 6.162 0 2.006.263 3.901.789 5.685.084.266.172.529.263.789.923 2.654 2.457 5.053 4.6 7.197 3.791 3.78 8.36 5.67 13.705 5.67 4.492 0 8.424-1.332 11.798-3.994.274.406.603.794.986 1.167 1.643 1.643 3.615 2.465 5.916 2.465 1.314 0 2.52-.258 3.615-.773.547 1.622 1.478 3.09 2.793 4.404a12.568 12.568 0 0 0 3.171 2.284c1.523.734 3.199 1.101 5.029 1.101.043 0 .082.038.115.115h28.016c.033-.077.071-.115.115-.115 1.83 0 3.511-.367 5.045-1.101a12.306 12.306 0 0 0 3.155-2.284c1.314-1.314 2.25-2.782 2.81-4.404 1.084.515 2.283.773 3.598.773 2.311 0 4.289-.822 5.932-2.465a7.44 7.44 0 0 0 .986-1.167c3.385 2.662 7.318 3.993 11.798 3.993 3.122 0 5.986-.64 8.594-1.923.405-.208.81-.432 1.216-.673a20.429 20.429 0 0 0 3.894-3.073c3.769-3.768 5.653-8.325 5.653-13.671 0-2.18-.307-4.234-.92-6.162a25.29 25.29 0 0 0-1.923-2.153c-2.015-2.026-4.25-3.527-6.704-4.502-.405-.165-.81-.312-1.216-.444-1.917-.613-3.955-.93-6.113-.953h-.723c-5.357.12-9.941 2.087-13.753 5.9-3.429 3.428-5.363 7.481-5.8 12.159a7.106 7.106 0 0 0-.97-.066c-1.885 0-3.495.668-4.831 2.005-1.337 1.336-2.005 2.947-2.005 4.831 0 1.008.197 1.939.592 2.793h-.148c-1.085 0-2.005.373-2.76 1.117-.746.756-1.118 1.677-1.118 2.761 0 .362.038.707.114 1.035-.372.033-.755.06-1.15.082h-.624c-3.308-.076-6.151-1.297-8.528-3.664-2.388-2.399-3.599-5.297-3.631-8.692l.016-20.261V63.009h-9.17v66.417a38.058 38.058 0 0 1-.098 1.595c-.35 2.705-1.533 5.072-3.549 7.098-2.377 2.356-5.214 3.577-8.512 3.664H28.5a35.079 35.079 0 0 1-1.134-.082 3.89 3.89 0 0 0 .132-1.035c0-1.084-.378-2.005-1.134-2.76a3.894 3.894 0 0 0-1.348-.871 3.993 3.993 0 0 0-1.413-.247h-.148c.395-.81.592-1.742.592-2.793 0-1.413-.367-2.662-1.101-3.747a6.423 6.423 0 0 0-.904-1.084c-1.281-1.282-2.81-1.945-4.584-1.988a1.71 1.71 0 0 0-.247-.017c-.34 0-.663.022-.97.066a18.297 18.297 0 0 0-.196-1.578c-.69-3.987-2.558-7.514-5.604-10.582-3.254-3.253-7.065-5.165-11.436-5.735a7.807 7.807 0 0 1-.23-.016 20.989 20.989 0 0 0-2.07-.148"/>
            </g>
        </g>
        <g filter="url(#c)" transform="translate(23 2)">
            <path fill="#FCCE50" d="M18.458 101.54c-2.6 2.601-3.9 5.735-3.9 9.403 0 2.827.773 5.334 2.32 7.521l10.982 17.804 10.962-17.804h.02c1.547-2.187 2.32-4.694 2.32-7.521 0-3.668-1.306-6.802-3.92-9.402-2.094-2.108-4.555-3.361-7.382-3.761v3h-4v-3c-2.828.4-5.295 1.653-7.402 3.76"/>
            <path fill="#E6E5DD" d="M35.522 43.429c-1.943 1.943-4.25 2.996-6.922 3.16h-.2c-.102.011-.209.018-.32.02H27.66c-2.9-.046-5.387-1.106-7.461-3.18-2.108-2.12-3.161-4.674-3.161-7.662 0-2.987 1.053-5.534 3.16-7.641 2.075-2.075 4.562-3.135 7.462-3.181H28.08c.111.003.218.003.32 0l.62.06c2.356.23 4.422 1.177 6.202 2.84.092.08.192.174.3.28 2.107 2.108 3.16 4.655 3.16 7.642 0 2.988-1.053 5.541-3.16 7.662m10.622-7.722c-1.04-5.04-2.514-9.829-4.421-14.363a90.32 90.32 0 0 0-1.36-3.02H15.338c-2.575 5.414-4.501 11.209-5.782 17.383C7.81 43.99 7.43 52.024 8.416 59.812a67.534 67.534 0 0 0 3.78 15.123l4.022 10.222h9.642V61.813l2-2 2 2v23.344h9.663l4-10.222a67.533 67.533 0 0 0 3.78-15.123c.974-7.788.588-15.823-1.16-24.105"/>
            <path fill="#8BE48F" d="M34.161 85.157h-4.3V95.4h4.3l3.421-8.682.6-1.56zM17.538 85.157l.62 1.56 3.4 8.683h4.302V85.158h-4.301z"/>
            <path fill="#FF7171" d="M28.12.28a14.043 14.043 0 0 0-.2-.22L27.9.04a.942.942 0 0 1-.04-.04v18.324h12.502C37.23 11.757 33.15 5.743 28.12.28M47.304 59.812a67.533 67.533 0 0 1-3.78 15.123l-4.001 10.222 15.623 15.624V67.654l-7.842-7.842zM32.68 40.588c-.44.44-.906.807-1.4 1.1-1.013.6-2.153.9-3.42.9-1.88 0-3.488-.666-4.821-2-1.334-1.333-2-2.94-2-4.82 0-1.881.666-3.481 2-4.802.44-.44.914-.807 1.42-1.1 1-.6 2.134-.9 3.4-.9 1.734 0 3.242.573 4.522 1.72.107.094.207.187.3.28 1.32 1.32 1.98 2.921 1.98 4.801 0 1.88-.66 3.488-1.98 4.821m2.54-12.742c-1.779-1.665-3.846-2.611-6.2-2.84l-.621-.06a6.095 6.095 0 0 1-.32 0H27.66c-2.9.045-5.387 1.105-7.462 3.18-2.107 2.107-3.16 4.654-3.16 7.641 0 2.988 1.053 5.542 3.16 7.662 2.075 2.074 4.562 3.135 7.462 3.18H28.08c.111-.002.218-.009.32-.02h.2c2.672-.164 4.979-1.217 6.922-3.16 2.107-2.12 3.16-4.674 3.16-7.662 0-2.987-1.053-5.534-3.16-7.641a5.734 5.734 0 0 0-.3-.28M27.86 100.78h2V61.814l-2-2z"/>
            <path fill="#D86085" d="M27.86 59.812l-2 2V100.78h2z"/>
            <path fill="#DD6262" d="M15.917 17.144c-.2.386-.393.78-.58 1.18H27.86V0c-4.854 5.201-8.835 10.915-11.943 17.144"/>
            <path fill="#FF7171" d="M16.218 85.157l-4.021-10.222a67.555 67.555 0 0 1-3.781-15.123L.574 67.654v33.127l15.644-15.624z"/>
            <path fill="#6D7D91" d="M23.88 31.787c.36-.36.746-.66 1.16-.9.826-.494 1.766-.74 2.82-.74 1.427 0 2.674.473 3.74 1.42.08.066.16.14.24.22 1.095 1.093 1.641 2.42 1.641 3.98 0 1.547-.546 2.874-1.64 3.981-.36.36-.747.66-1.16.9-.84.494-1.78.74-2.821.74-1.56 0-2.887-.546-3.98-1.64-1.108-1.107-1.661-2.434-1.661-3.98 0-1.56.553-2.888 1.66-3.981m.58-1.92c-.506.292-.98.66-1.42 1.1-1.334 1.32-2 2.92-2 4.8s.666 3.488 2 4.821c1.333 1.334 2.94 2 4.82 2 1.268 0 2.408-.3 3.422-.9.493-.293.96-.66 1.4-1.1 1.32-1.333 1.98-2.94 1.98-4.82 0-1.881-.66-3.481-1.98-4.802a5.866 5.866 0 0 0-.3-.28c-1.28-1.147-2.788-1.72-4.521-1.72-1.267 0-2.4.3-3.4.9"/>
            <path fill="#8093AA" d="M25.04 30.886c-.414.24-.8.54-1.16.9-1.108 1.094-1.661 2.421-1.661 3.981 0 1.547.553 2.874 1.66 3.981 1.094 1.094 2.42 1.64 3.981 1.64 1.04 0 1.98-.246 2.82-.74.414-.24.8-.54 1.16-.9 1.094-1.107 1.641-2.434 1.641-3.98 0-1.56-.547-2.888-1.64-3.981-.08-.08-.16-.154-.24-.22-1.067-.947-2.314-1.42-3.74-1.42-1.054 0-1.995.246-2.822.74"/>
            <path fill="#DD6262" d="M8.416 59.812l-1.52 1.5a70.277 70.277 0 0 0 3.86 14.964l4.041 10.282 1.42-1.4-4.02-10.223a67.555 67.555 0 0 1-3.781-15.123"/>
            <path fill="#F8E07E" d="M25.86 100.78v-1.72c-1.087.323-2.06.91-2.921 1.76-1.36 1.36-2.04 3.001-2.04 4.922 0 1.48.406 2.793 1.22 3.94l5.741 9.322 5.741-9.322c.814-1.147 1.22-2.46 1.22-3.94 0-1.92-.68-3.561-2.04-4.921-.861-.85-1.834-1.438-2.92-1.76v1.72H25.86z"/>
            <path fill="#DD6262" d="M44.983 76.276a70.319 70.319 0 0 0 3.856-14.929l-1.518-1.517a67.539 67.539 0 0 1-3.778 15.105l-4.02 10.222 1.42 1.4 4.04-10.281z"/>
        </g>
    </g>
</svg>
