<svg xmlns="http://www.w3.org/2000/svg" width="30" height="29" viewBox="0 0 30 29">
    <path fill="#4C8CE3" fill-rule="evenodd" d="M29.883 10.813a2.268 2.268 0 0 0-2.19-1.591h-7.22c-.48 0-.903-.308-1.052-.765l-2.23-6.866A2.269 2.269 0 0 0 15 0a2.268 2.268 0 0 0-2.191 1.591l-2.231 6.866a1.104 1.104 0 0 1-1.052.765h-7.22a2.268 2.268 0 0 0-2.19 1.59 2.269 2.269 0 0 0 .837 2.575l5.84 4.244c.39.282.55.78.402 1.237l-2.23 6.866a2.269 2.269 0 0 0 .836 2.574c.411.3.882.448 1.354.448.47 0 .942-.15 1.353-.448l5.84-4.243a1.104 1.104 0 0 1 1.301 0l5.84 4.243a2.268 2.268 0 0 0 2.708 0 2.269 2.269 0 0 0 .837-2.574l-2.231-6.866a1.104 1.104 0 0 1 .402-1.237l5.84-4.244a2.269 2.269 0 0 0 .837-2.574"/>
</svg>
