<svg xmlns="http://www.w3.org/2000/svg" width="26" height="30" viewBox="0 0 26 30">
    <path fill="#959FA4" fill-rule="evenodd" d="M23.894 0c.978 0 1.773.796 1.773 1.774V5.03a.537.537 0 1 1-1.073 0V1.774a.7.7 0 0 0-.7-.7h-3.257a.537.537 0 0 1 0-1.074h3.257zm1.237 24.433c.296 0 .536.24.536.536v3.257c0 .978-.795 1.774-1.773 1.774h-3.257a.537.537 0 0 1 0-1.073h3.257a.7.7 0 0 0 .7-.7v-3.258c0-.296.24-.536.537-.536zM.537 5.568A.537.537 0 0 1 0 5.03V1.774C0 .796.796 0 1.774 0H5.03a.537.537 0 0 1 0 1.074H1.774a.7.7 0 0 0-.7.7V5.03c0 .296-.24.537-.537.537zM5.03 28.926a.537.537 0 1 1 0 1.074H1.773A1.775 1.775 0 0 1 0 28.226V24.97a.537.537 0 1 1 1.073 0v3.257a.7.7 0 0 0 .7.7H5.03zm2.153-9.1h11.482a.427.427 0 1 1 0 .854H7.183a.427.427 0 1 1 0-.854zm0-2.735h11.482a.427.427 0 1 1 0 .854H7.183a.427.427 0 1 1 0-.854zm0-4.281h5.319a.427.427 0 1 1 0 .854h-5.32a.427.427 0 1 1 0-.854zm0-2.213h5.319a.427.427 0 1 1 0 .854h-5.32a.427.427 0 1 1 0-.854zm0-2.213h5.319a.427.427 0 0 1 0 .854h-5.32a.427.427 0 1 1 0-.854zm-3.454-2.94c0-.664.54-1.203 1.203-1.203h11.66a.425.425 0 0 1 .279.125l4.882 4.882a.426.426 0 0 1 .125.302V24.7c0 .664-.54 1.204-1.203 1.204H4.932c-.663 0-1.203-.54-1.203-1.204V5.444zm13.267.254v3.074c0 .194.157.351.351.351h3.074l-3.425-3.425z"/>
</svg>
