<svg xmlns="http://www.w3.org/2000/svg" width="20" height="36" viewBox="0 0 20 36">
    <path fill="#959FA4" fill-rule="evenodd" d="M17.885 26.218c0 1.842-.668 2.51-2.51 2.51H4.625c-1.842 0-2.51-.668-2.51-2.51V7.733c0-1.841.668-2.51 2.51-2.51h10.75c1.842 0 2.51.669 2.51 2.51v18.485zM10 33.08a1.787 1.787 0 1 1 0-3.574 1.787 1.787 0 0 1 0 3.574zM7.447 2.676h5.106a.668.668 0 1 1 0 1.336H7.447a.668.668 0 1 1 0-1.336zM16.66 0H3.34A3.344 3.344 0 0 0 0 3.34v28.403a3.344 3.344 0 0 0 3.34 3.34h13.32a3.344 3.344 0 0 0 3.34-3.34V3.34A3.344 3.344 0 0 0 16.66 0z"/>
</svg>
