<svg xmlns="http://www.w3.org/2000/svg" width="30" height="30" viewBox="0 0 30 30">
    <path fill="#4C8CE3" fill-rule="evenodd" d="M22.244 18.153a1.108 1.108 0 0 1-.864.412H5.958a1.108 1.108 0 0 1-1.087-1.334 7.983 7.983 0 0 1 4.534-5.608.369.369 0 0 1 .429.094 5.092 5.092 0 0 0 7.67 0 .369.369 0 0 1 .43-.094 7.983 7.983 0 0 1 4.533 5.608c.07.326-.012.663-.223.922M13.67 3.751a4.47 4.47 0 0 1 4.465 4.464 4.47 4.47 0 0 1-4.465 4.465 4.47 4.47 0 0 1-4.465-4.465 4.47 4.47 0 0 1 4.465-4.464m16.154 25.218l-6.365-6.365a13.448 13.448 0 0 0 3.54-9.105C26.999 6.056 20.944 0 13.5 0 6.056 0 0 6.056 0 13.5c0 7.443 6.056 13.499 13.5 13.499 3.504 0 6.701-1.343 9.104-3.541l6.364 6.365a.603.603 0 0 0 .855 0 .604.604 0 0 0 0-.854"/>
</svg>
