<svg xmlns="http://www.w3.org/2000/svg" width="30" height="25" viewBox="0 0 30 25">
    <path fill="#959FA4" fill-rule="evenodd" d="M26.958 4.787h-8.162a.525.525 0 1 1 0-1.05h8.162a.525.525 0 1 1 0 1.05m0 3.258h-8.162a.525.525 0 1 1 0-1.05h8.162a.525.525 0 1 1 0 1.05m0 3.258h-8.162a.525.525 0 1 1 0-1.05h8.162a.525.525 0 1 1 0 1.05m0 3.258h-8.162a.525.525 0 1 1 0-1.05h8.162a.525.525 0 1 1 0 1.05M29.166 0H16.587a.835.835 0 0 0-.834.834v23.833c.246-.417 1.652-3.307 3.978-3.307h9.435c.46 0 .834-.374.834-.834V.834A.835.835 0 0 0 29.166 0M2.518 4.263c0-.29.234-.525.524-.525h8.163a.525.525 0 0 1 0 1.05H3.042a.525.525 0 0 1-.524-.525m0 3.257c0-.29.234-.524.524-.524h8.163a.525.525 0 0 1 0 1.05H3.042a.525.525 0 0 1-.524-.526m0 3.258c0-.29.234-.524.524-.524h8.163a.525.525 0 0 1 0 1.049H3.042a.525.525 0 0 1-.524-.525m0 3.258c0-.29.234-.525.524-.525h8.163a.525.525 0 0 1 0 1.05H3.042a.525.525 0 0 1-.524-.525M0 .834v19.692c0 .46.374.834.834.834h9.435c2.326 0 3.732 2.89 3.978 3.307V.834A.835.835 0 0 0 13.413 0H.834A.835.835 0 0 0 0 .834"/>
</svg>
