<svg xmlns="http://www.w3.org/2000/svg" width="29" height="36" viewBox="0 0 29 36">
    <g fill="#959FA4" fill-rule="evenodd">
        <path d="M25.583 32.345a.66.66 0 0 0-.908.237l-1.394 2.375-1.405-5.563.864-2.88.143.084a1.293 1.293 0 0 0 1.872-.682l.52-1.452a.489.489 0 0 1 .3-.295l2.418 9.591-2.41-1.415zm-5.849 1.378l-1.32-2.449a.661.661 0 0 0-.9-.269l-2.432 1.312 2.31-7.685.461 1.284c.13.364.414.648.776.78.364.133.763.096 1.097-.098l1.332-.778a.488.488 0 0 1 .492 0l.472.276-2.288 7.627zm6.637-9.698l.802-.138a1.292 1.292 0 0 0 .997-1.726l-.535-1.447a.489.489 0 0 1 .085-.484l.998-1.178a1.292 1.292 0 0 0-.346-1.962l-1.34-.765a.489.489 0 0 1-.246-.426l.007-1.543a1.291 1.291 0 0 0-.462-.998 1.29 1.29 0 0 0-1.064-.283l-1.518.275a.487.487 0 0 1-.462-.168l-.987-1.186a1.292 1.292 0 0 0-1.992 0l-.986 1.186a.487.487 0 0 1-.462.168l-1.519-.275a1.291 1.291 0 0 0-1.063.283 1.291 1.291 0 0 0-.463.998l.007 1.543a.49.49 0 0 1-.246.426l-1.34.765a1.293 1.293 0 0 0-.346 1.962l.998 1.178c.113.134.146.32.085.484l-.534 1.447c-.134.363-.1.763.093 1.097.193.335.522.564.903.63l1.272.217-2.5 8.315a.661.661 0 0 0 .218.704c.208.17.496.198.733.07l2.613-1.41 1.418 2.629a.66.66 0 0 0 .652.345.661.661 0 0 0 .567-.47l1.016-3.386 1.16 4.594a.661.661 0 0 0 .644.5.66.66 0 0 0 .571-.327l1.5-2.554 2.582 1.516a.662.662 0 0 0 .98-.734l-2.49-9.872zM20.98 7.088H10.047a.589.589 0 1 0 0 1.177H20.98a.589.589 0 1 0 0-1.177"/>
        <path d="M20.98 13.293H10.047a.589.589 0 1 0 0 1.177H20.98a.589.589 0 1 0 0-1.177M20.98 19.498H10.047a.589.589 0 1 0 0 1.177H20.98a.589.589 0 1 0 0-1.177"/>
        <path d="M22.853 0H3.126A2.947 2.947 0 0 0 .183 2.943v22.24a2.947 2.947 0 0 0 2.943 2.944h12.497c.088-.449.27-.843.532-1.177H3.126a1.768 1.768 0 0 1-1.766-1.766V2.944c0-.975.792-1.767 1.766-1.767h19.727c.973 0 1.766.792 1.766 1.766v20.979c.214-.43.706-.638 1.177-.619V2.943A2.946 2.946 0 0 0 22.853 0"/>
        <path d="M7.57 6.223L5.716 8.078l-.574-.574a.643.643 0 0 0-.91.909l.73.73c.201.2.469.311.754.311.284 0 .552-.11.753-.311l2.01-2.011a.643.643 0 1 0-.909-.91M7.57 12.36l-1.854 1.855-.574-.574a.643.643 0 0 0-.91.909l.73.73c.201.2.469.311.754.311.284 0 .552-.11.753-.312l2.01-2.01a.643.643 0 1 0-.909-.91M7.57 18.497l-1.854 1.855-.574-.574a.643.643 0 0 0-.91.909l.73.73c.201.2.469.311.754.311.284 0 .552-.11.753-.312l2.01-2.01a.643.643 0 1 0-.909-.91"/>
    </g>
</svg>
