<svg xmlns="http://www.w3.org/2000/svg" width="28" height="30" viewBox="0 0 28 30">
    <path fill="#4C8CE3" fill-rule="evenodd" d="M27.053 13.31a.432.432 0 1 1 0 .864h-4.555a.432.432 0 0 1 0-.864h4.555zm-7.12-5.327a.43.43 0 0 1-.305-.737l3.22-3.221a.432.432 0 1 1 .611.61l-3.22 3.221a.43.43 0 0 1-.306.127zm-6.19-2.565a.432.432 0 0 1-.433-.432V.432a.432.432 0 0 1 .864 0v4.554a.432.432 0 0 1-.432.432zM7.245 7.856l-3.221-3.22a.432.432 0 0 1 .61-.611l3.221 3.22a.432.432 0 0 1-.61.611zm-1.828 5.886a.432.432 0 0 1-.432.432H.432a.432.432 0 0 1 0-.864h4.554c.239 0 .432.194.432.432zm1.828 5.886a.432.432 0 0 1 .61.61l-3.22 3.221a.43.43 0 0 1-.611 0 .432.432 0 0 1 0-.61l3.22-3.22zm12.993 0l3.22 3.22a.432.432 0 0 1-.61.611l-3.22-3.22a.432.432 0 0 1 .61-.61zm.425-5.612a6.933 6.933 0 0 1-.801 3.267c-.513.968-.736 1.682-1.087 2.86-.067.224-.128.448-.188.664-.035.13-.07.257-.105.379l-.125.502a11.13 11.13 0 0 1-.563 1.796l-.03.078-.094.24c.27.447.128.96-.099 1.35.395.475.259 1.052.032 1.466a.567.567 0 0 1 .062.568c-.068.147-.21.451-1.425.548a2.679 2.679 0 0 1-2.499 1.717 2.679 2.679 0 0 1-2.499-1.717c-1.216-.097-1.357-.401-1.424-.548a.568.568 0 0 1 .061-.568c-.226-.414-.363-.99.032-1.466-.227-.39-.368-.903-.098-1.35l-.095-.24-.03-.078a11.143 11.143 0 0 1-.563-1.796c-.036-.145-.076-.31-.125-.502l-.105-.379a32.02 32.02 0 0 0-.188-.665c-.35-1.177-.574-1.89-1.087-2.859-.529-.999-.806-2.13-.801-3.267.017-3.744 3.076-6.835 6.82-6.89l.102.002c.034 0 .069-.002.103-.001 3.743.054 6.802 3.145 6.82 6.889zM19.1 16.879a6.07 6.07 0 0 0 .7-2.86c-.014-3.276-2.691-5.981-5.967-6.029l-.09.001-.091-.001c-3.276.048-5.954 2.753-5.969 6.03a6.068 6.068 0 0 0 .702 2.86c.55 1.037.795 1.822 1.15 3.016.07.233.133.461.193.682l.105.378.004.012a70.317 70.317 0 0 1 .16.638c.095.39.112.462.324.594.305.087 1.739.092 3.421.046 1.682.046 3.116.041 3.42-.046.213-.132.23-.204.326-.594l.058-.232a86.374 86.374 0 0 1 .105-.418c.034-.121.07-.248.105-.378.06-.22.123-.449.193-.682.355-1.194.6-1.979 1.15-3.017z"/>
</svg>
