<svg xmlns="http://www.w3.org/2000/svg" width="30" height="23" viewBox="0 0 30 23">
    <path fill="#4C8CE3" fill-rule="evenodd" d="M28.754 19.138c0 1.351-1.1 2.45-2.45 2.45H3.696c-1.352 0-2.45-1.099-2.45-2.45V3.697c0-1.352 1.098-2.45 2.45-2.45h22.606c1.352 0 2.45 1.098 2.45 2.45v15.441zM26.304 0H3.696A3.7 3.7 0 0 0 0 3.697v15.441a3.7 3.7 0 0 0 3.697 3.696H26.303A3.7 3.7 0 0 0 30 19.138V3.697A3.7 3.7 0 0 0 26.303 0zm-.805 11.384h-6.364a.347.347 0 0 1-.268-.118l-.175-.215-.556.96c-.057.1-.182.16-.315.151-.133-.008-.246-.081-.285-.186l-.262-.698-1.364 3.986c-.039.115-.166.193-.31.193a.33.33 0 0 1-.023 0c-.152-.01-.277-.105-.297-.229l-1.54-9.31-1.297 5.852c-.025.111-.133.197-.27.214-.136.017-.27-.039-.334-.139l-.457-.716-.111.167a.339.339 0 0 1-.284.138H4.501c-.178 0-.322-.118-.322-.264 0-.146.144-.264.322-.264h6.294l.309-.465a.338.338 0 0 1 .283-.138h.003c.119 0 .228.055.283.141l.303.474 1.492-6.735c.028-.128.166-.22.325-.217.158.003.29.1.312.229l1.605 9.696 1.24-3.622c.038-.113.163-.191.306-.193h.004c.142 0 .267.076.308.187l.34.907.444-.767a.33.33 0 0 1 .268-.15.35.35 0 0 1 .292.117l.396.486h6.19c.179 0 .323.118.323.264 0 .145-.144.264-.322.264m-.307-9.114H4.808a2.058 2.058 0 0 0-2.055 2.056v10.771c0 1.134.922 2.056 2.055 2.056h20.384a2.058 2.058 0 0 0 2.055-2.056V4.326a2.058 2.058 0 0 0-2.055-2.056M5.344 18.18c-.658 0-1.194.535-1.194 1.193s.536 1.194 1.194 1.194c.659 0 1.194-.536 1.194-1.194 0-.658-.535-1.194-1.194-1.194m3.411 0c-.658 0-1.194.536-1.194 1.194 0 .658.536 1.194 1.194 1.194.659 0 1.194-.536 1.194-1.194 0-.658-.535-1.194-1.194-1.194"/>
</svg>
