<svg xmlns="http://www.w3.org/2000/svg" width="22" height="21" viewBox="0 0 22 21">
    <path fill="#34537D" fill-rule="evenodd" d="M15.755 9.702a1.01 1.01 0 1 1 0-2.02 1.01 1.01 0 0 1 0 2.02m-4.755 0a1.01 1.01 0 1 1 0-2.02 1.01 1.01 0 0 1 0 2.02m-4.756 0a1.01 1.01 0 1 1 0-2.02 1.01 1.01 0 0 1 0 2.02M19.614.43H2.386c-1.158 0-2.1.941-2.1 2.1v12.23c0 1.157.942 2.099 2.1 2.099h14.204c.31 0 .614.127.832.347l2.581 2.61a.996.996 0 0 0 1.092.223.997.997 0 0 0 .62-.925V2.528c0-1.158-.942-2.1-2.1-2.1"/>
</svg>
