<svg xmlns="http://www.w3.org/2000/svg" width="22" height="30" viewBox="0 0 22 30">
    <path fill="#959FA4" fill-rule="evenodd" d="M20.75.237a.609.609 0 0 0-.611.002c-1.854 1.082-3.725 1.608-5.56 1.56-1.395-.035-2.346-.38-3.448-.782C10.184.673 9.111.282 7.663.1 5.366-.19 2.92.15.393 1.109a.61.61 0 0 0-.393.57V29.39a.61.61 0 1 0 1.22 0V12.078c2.197-.777 4.312-1.044 6.29-.795 1.312.165 2.274.515 3.204.854 1.101.4 2.24.814 3.834.855 2.065.053 4.153-.528 6.205-1.727a.61.61 0 0 0 .302-.526V.765a.61.61 0 0 0-.306-.528"/>
</svg>
