<svg xmlns="http://www.w3.org/2000/svg" width="30" height="27" viewBox="0 0 30 27">
    <path fill="#959FA4" fill-rule="evenodd" d="M26.536 8.273c-.258 0-.504-.05-.731-.14l-3.207 5.075a2.003 2.003 0 0 1-3.298 2.265l-3.55 1.556a2.003 2.003 0 0 1-3.826.63l-3.45-.349c-.21.883-1.001 1.541-1.948 1.541a1.996 1.996 0 0 1-1.38-.554l-3.953 2.444v-1.32l3.39-2.095a2.003 2.003 0 0 1 3.833-1.138l3.362.348a2.002 2.002 0 0 1 3.75-.617l3.453-1.523v-.004a2.003 2.003 0 0 1 2.732-1.864l3.212-5.072a2.003 2.003 0 1 1 1.611.817M27.405 0H2.595C1.165 0 0 1.233 0 2.749v20.807c0 1.515 1.165 2.748 2.595 2.748h24.81c1.43 0 2.595-1.233 2.595-2.748V2.749C30 1.233 28.836 0 27.405 0"/>
</svg>
