<svg xmlns="http://www.w3.org/2000/svg" width="22" height="30" viewBox="0 0 22 30">
    <path fill="#4C8CE3" fill-rule="evenodd" d="M16.675 12.087H5.277a.61.61 0 1 1 0-1.221h11.398a.61.61 0 1 1 0 1.221zm0 4.539H5.277a.61.61 0 1 1 0-1.222h11.398a.611.611 0 0 1 0 1.222zm0 4.538H5.277a.61.61 0 1 1 0-1.222h11.398a.61.61 0 1 1 0 1.222zM6.252 2.647V2.64v-.807c0-.337.274-.611.61-.611h8.227c.337 0 .611.274.611.61v1.616a.612.612 0 0 1-.61.611H6.862a.612.612 0 0 1-.611-.61v-.802zm12.94-.618h-2.27v-.197C16.922.822 16.1 0 15.089 0H6.863C5.852 0 5.03.822 5.03 1.832v.197H2.76A2.763 2.763 0 0 0 0 4.79V27.24A2.763 2.763 0 0 0 2.76 30h16.432a2.763 2.763 0 0 0 2.76-2.76V4.79a2.763 2.763 0 0 0-2.76-2.76z"/>
</svg>
