<svg xmlns="http://www.w3.org/2000/svg" width="30" height="30" viewBox="0 0 30 30">
    <path fill="#4C8CE3" fill-rule="evenodd" d="M20.582 12.775c-.405 11.412-9.464 13.499-13.818 14.502a1.268 1.268 0 0 1-.57-2.472c5.573-1.283 11.544-3.384 11.854-12.12.026-.734-.338-1.27-.648-1.592-.575-.595-1.416-.937-2.31-.937-.868 0-1.67.315-2.234.864-.433.422-.604 1.111-.781 1.968-.697 3.34-3.02 7.383-10.132 7.677a1.276 1.276 0 0 1-1.32-1.215c-.028-.7.515-1.29 1.215-1.32 4.462-.184 6.998-2.035 7.753-5.659.2-.957.472-2.27 1.494-3.267 1.035-1.007 2.482-1.584 3.97-1.584 1.612 0 3.12.624 4.17 1.712.92.953 1.402 2.176 1.357 3.443zm6.668 8.767a1.268 1.268 0 0 1-.95 2.351c-2.875-1.162-4.318-3.337-4.29-6.464.009-.823.063-1.376.115-1.91.064-.674.132-1.372.112-2.746-.054-3.548-3.267-6.435-7.163-6.435-3.621 0-6.349 2.175-7.119 5.677-.511 2.324-2.025 5.01-6.352 4.619l-.507-.068a1.267 1.267 0 0 1-1.084-1.428 1.263 1.263 0 0 1 1.428-1.085l.42.058c1.449.126 3.031.029 3.618-2.641 1.025-4.659 4.792-7.669 9.596-7.669 5.273 0 9.624 4.008 9.699 8.934a23.693 23.693 0 0 1-.124 3.029c-.05.503-.095.977-.102 1.688-.019 2.065.815 3.327 2.703 4.09zm1.897-3.38a1.269 1.269 0 0 1-1.495 2.049c-.517-.376-1.689-1.484-1.435-3.63.164-1.393.256-3.81.257-3.834-.001-5.608-5.115-10.21-11.4-10.21-4.67 0-8.943 2.642-10.634 6.576-.18.422-.346 1.016-.49 1.54-.131.477-.235.853-.358 1.138a1.269 1.269 0 0 1-2.329-1.003c.054-.125.158-.504.242-.81.158-.572.356-1.285.606-1.867C4.195 3.26 9.404 0 15.074 0c7.684 0 13.935 5.74 13.935 12.794-.004.151-.098 2.591-.274 4.084-.093.788.218 1.143.412 1.284zM16.34 12.753c-.394 9.078-8.894 10.705-12.523 11.399a1.268 1.268 0 0 1-.477-2.49c4.915-.942 10.182-2.492 10.466-9.019.03-.7.634-1.23 1.322-1.212.7.03 1.242.623 1.212 1.322zm8.086 11.93a1.268 1.268 0 0 1-.907 2.37l-.25-.098c-1.37-.532-2.828-1.521-3.896-2.643a1.268 1.268 0 0 1 1.836-1.749c.812.852 1.955 1.63 2.984 2.03l.233.09zm-4.006 2.433a1.268 1.268 0 0 1-1.066 2.301c-.837-.388-1.524-.646-2.16-.646-.771 0-2.032.366-3.777.872l-1.065.307a1.265 1.265 0 0 1-1.567-.87 1.268 1.268 0 0 1 .87-1.568l1.056-.304c2.018-.586 3.351-.973 4.483-.973 1.1 0 2.085.352 3.226.88z"/>
</svg>
