<svg xmlns="http://www.w3.org/2000/svg" width="30" height="30" viewBox="0 0 30 30">
    <path fill="#1E8FE1" fill-rule="evenodd" d="M29.5 28a.5.5 0 0 1 .5.5v1a.5.5 0 0 1-.5.5h-18a.5.5 0 0 1-.5-.5v-1a.5.5 0 0 1 .5-.5h18zm0-26h-18a.5.5 0 0 1-.5-.5v-1a.5.5 0 0 1 .5-.5h18a.5.5 0 0 1 .5.5v1a.5.5 0 0 1-.5.5zm0 17a.5.5 0 0 1 .5.5v1a.5.5 0 0 1-.5.5h-18a.5.5 0 0 1-.5-.5v-1a.5.5 0 0 1 .5-.5h18zm0-10a.5.5 0 0 1 .5.5v1a.5.5 0 0 1-.5.5h-18a.5.5 0 0 1-.5-.5v-1a.5.5 0 0 1 .5-.5h18zM5 0c.557 0 1 .446 1 .996v25.228l2.38-2.694a.5.5 0 0 1 .706-.042l.747.665a.5.5 0 0 1 .042.706l-4.127 4.668a1.001 1.001 0 0 1-1.494 0L.127 24.859a.5.5 0 0 1 .042-.706l.747-.665a.5.5 0 0 1 .706.042L4 26.224V.996C4 .456 4.448 0 5 0z"/>
</svg>
