<svg xmlns="http://www.w3.org/2000/svg" xmlns:xlink="http://www.w3.org/1999/xlink" width="533" height="739" viewBox="0 0 533 739">
    <defs>
        <path id="b" d="M29.103 0h141.794C186.97 0 200 13.03 200 29.103v353.759c0 16.073-13.03 29.102-29.103 29.102H29.103C13.03 411.964 0 398.934 0 382.862V29.102C0 13.03 13.03 0 29.103 0z"/>
        <filter id="a" width="205%" height="151%" x="-52.5%" y="-16.3%" filterUnits="objectBoundingBox">
            <feOffset dy="30" in="SourceAlpha" result="shadowOffsetOuter1"/>
            <feGaussianBlur in="shadowOffsetOuter1" result="shadowBlurOuter1" stdDeviation="24"/>
            <feColorMatrix in="shadowBlurOuter1" result="shadowMatrixOuter1" values="0 0 0 0 0 0 0 0 0 0 0 0 0 0 0 0 0 0 0.18 0"/>
            <feOffset dy="8" in="SourceAlpha" result="shadowOffsetOuter2"/>
            <feGaussianBlur in="shadowOffsetOuter2" result="shadowBlurOuter2" stdDeviation="9"/>
            <feColorMatrix in="shadowBlurOuter2" result="shadowMatrixOuter2" values="0 0 0 0 0 0 0 0 0 0 0 0 0 0 0 0 0 0 0.16 0"/>
            <feMerge>
                <feMergeNode in="shadowMatrixOuter1"/>
                <feMergeNode in="shadowMatrixOuter2"/>
            </feMerge>
        </filter>
        <filter id="c" width="180%" height="138.8%" x="-40%" y="-10.2%" filterUnits="objectBoundingBox">
            <feGaussianBlur in="SourceAlpha" result="shadowBlurInner1" stdDeviation="5"/>
            <feOffset dy="-18" in="shadowBlurInner1" result="shadowOffsetInner1"/>
            <feComposite in="shadowOffsetInner1" in2="SourceAlpha" k2="-1" k3="1" operator="arithmetic" result="shadowInnerInner1"/>
            <feColorMatrix in="shadowInnerInner1" values="0 0 0 0 0 0 0 0 0 0 0 0 0 0 0 0 0 0 0.08 0"/>
        </filter>
        <path id="d" d="M28.456 9.054h143.088c10.715 0 19.402 8.687 19.402 19.402v355.052c0 10.716-8.687 19.402-19.402 19.402H28.456c-10.715 0-19.402-8.686-19.402-19.402V28.456c0-10.715 8.687-19.402 19.402-19.402z"/>
        <filter id="e" width="111.5%" height="105.3%" x="-5.8%" y="-2.7%" filterUnits="objectBoundingBox">
            <feGaussianBlur in="SourceAlpha" result="shadowBlurInner1" stdDeviation="10"/>
            <feOffset dy="1" in="shadowBlurInner1" result="shadowOffsetInner1"/>
            <feComposite in="shadowOffsetInner1" in2="SourceAlpha" k2="-1" k3="1" operator="arithmetic" result="shadowInnerInner1"/>
            <feColorMatrix in="shadowInnerInner1" values="0 0 0 0 0.925490196 0 0 0 0 0.925490196 0 0 0 0 0.925490196 0 0 0 1 0"/>
        </filter>
        <path id="h" d="M19.09 0h160c10.545 0 19.092 8.547 19.092 19.09v375.455c0 10.544-8.547 19.091-19.091 19.091h-160C8.547 413.636 0 405.09 0 394.546V19.09C0 8.547 8.547 0 19.09 0z"/>
        <filter id="g" width="206%" height="150.8%" x="-53%" y="-16.2%" filterUnits="objectBoundingBox">
            <feOffset dy="30" in="SourceAlpha" result="shadowOffsetOuter1"/>
            <feGaussianBlur in="shadowOffsetOuter1" result="shadowBlurOuter1" stdDeviation="24"/>
            <feColorMatrix in="shadowBlurOuter1" result="shadowMatrixOuter1" values="0 0 0 0 0 0 0 0 0 0 0 0 0 0 0 0 0 0 0.18 0"/>
            <feOffset dy="8" in="SourceAlpha" result="shadowOffsetOuter2"/>
            <feGaussianBlur in="shadowOffsetOuter2" result="shadowBlurOuter2" stdDeviation="9"/>
            <feColorMatrix in="shadowBlurOuter2" result="shadowMatrixOuter2" values="0 0 0 0 0 0 0 0 0 0 0 0 0 0 0 0 0 0 0.16 0"/>
            <feMerge>
                <feMergeNode in="shadowMatrixOuter1"/>
                <feMergeNode in="shadowMatrixOuter2"/>
            </feMerge>
        </filter>
        <filter id="i" width="180.7%" height="138.7%" x="-40.4%" y="-10.2%" filterUnits="objectBoundingBox">
            <feGaussianBlur in="SourceAlpha" result="shadowBlurInner1" stdDeviation="5"/>
            <feOffset dy="-18" in="shadowBlurInner1" result="shadowOffsetInner1"/>
            <feComposite in="shadowOffsetInner1" in2="SourceAlpha" k2="-1" k3="1" operator="arithmetic" result="shadowInnerInner1"/>
            <feColorMatrix in="shadowInnerInner1" values="0 0 0 0 0 0 0 0 0 0 0 0 0 0 0 0 0 0 0.08 0"/>
        </filter>
        <path id="j" d="M10 45.455h178.182a.91.91 0 0 1 .909.909v314.545a.91.91 0 0 1-.91.91H10a.91.91 0 0 1-.91-.91V46.364a.91.91 0 0 1 .91-.91z"/>
        <filter id="k" width="111.7%" height="106.6%" x="-5.8%" y="-3.3%" filterUnits="objectBoundingBox">
            <feGaussianBlur in="SourceAlpha" result="shadowBlurInner1" stdDeviation="10"/>
            <feOffset dy="1" in="shadowBlurInner1" result="shadowOffsetInner1"/>
            <feComposite in="shadowOffsetInner1" in2="SourceAlpha" k2="-1" k3="1" operator="arithmetic" result="shadowInnerInner1"/>
            <feColorMatrix in="shadowInnerInner1" values="0 0 0 0 0.925490196 0 0 0 0 0.925490196 0 0 0 0 0.925490196 0 0 0 0.5 0"/>
        </filter>
        <path id="m" d="M10 0h140c5.523 0 10 4.477 10 10v30c0 5.523-4.477 10-10 10H10C4.477 50 0 45.523 0 40V10C0 4.477 4.477 0 10 0z"/>
        <filter id="l" width="108.8%" height="128%" x="-4.4%" filterUnits="objectBoundingBox">
            <feOffset dy="2" in="SourceAlpha" result="shadowOffsetOuter1"/>
            <feGaussianBlur in="shadowOffsetOuter1" result="shadowBlurOuter1" stdDeviation="2"/>
            <feColorMatrix in="shadowBlurOuter1" values="0 0 0 0 0.767299107 0 0 0 0 0.767299107 0 0 0 0 0.767299107 0 0 0 0.5 0"/>
        </filter>
        <path id="o" d="M10 0h140c5.523 0 10 4.477 10 10v30c0 5.523-4.477 10-10 10H10C4.477 50 0 45.523 0 40V10C0 4.477 4.477 0 10 0z"/>
        <filter id="n" width="108.8%" height="128%" x="-4.4%" filterUnits="objectBoundingBox">
            <feOffset dy="2" in="SourceAlpha" result="shadowOffsetOuter1"/>
            <feGaussianBlur in="shadowOffsetOuter1" result="shadowBlurOuter1" stdDeviation="2"/>
            <feColorMatrix in="shadowBlurOuter1" values="0 0 0 0 0.767299107 0 0 0 0 0.767299107 0 0 0 0 0.767299107 0 0 0 0.5 0"/>
        </filter>
        <path id="q" d="M10 0h140c5.523 0 10 4.477 10 10v30c0 5.523-4.477 10-10 10H10C4.477 50 0 45.523 0 40V10C0 4.477 4.477 0 10 0z"/>
        <filter id="p" width="108.8%" height="128%" x="-4.4%" filterUnits="objectBoundingBox">
            <feOffset dy="2" in="SourceAlpha" result="shadowOffsetOuter1"/>
            <feGaussianBlur in="shadowOffsetOuter1" result="shadowBlurOuter1" stdDeviation="2"/>
            <feColorMatrix in="shadowBlurOuter1" values="0 0 0 0 0.767299107 0 0 0 0 0.767299107 0 0 0 0 0.767299107 0 0 0 0.5 0"/>
        </filter>
        <path id="s" d="M30 0h70c16.569 0 30 13.431 30 30v70c0 16.569-13.431 30-30 30H30c-16.569 0-30-13.431-30-30V30C0 13.431 13.431 0 30 0z"/>
        <filter id="r" width="147.7%" height="147.7%" x="-23.8%" y="-17.7%" filterUnits="objectBoundingBox">
            <feOffset dy="8" in="SourceAlpha" result="shadowOffsetOuter1"/>
            <feGaussianBlur in="shadowOffsetOuter1" result="shadowBlurOuter1" stdDeviation="9"/>
            <feColorMatrix in="shadowBlurOuter1" values="0 0 0 0 0 0 0 0 0 0 0 0 0 0 0 0 0 0 0.16 0"/>
        </filter>
        <filter id="t" width="156.9%" height="156.9%" x="-28.5%" y="-22.3%" filterUnits="objectBoundingBox">
            <feGaussianBlur in="SourceAlpha" result="shadowBlurInner1" stdDeviation="10"/>
            <feOffset dy="-18" in="shadowBlurInner1" result="shadowOffsetInner1"/>
            <feComposite in="shadowOffsetInner1" in2="SourceAlpha" k2="-1" k3="1" operator="arithmetic" result="shadowInnerInner1"/>
            <feColorMatrix in="shadowInnerInner1" values="0 0 0 0 0 0 0 0 0 0 0 0 0 0 0 0 0 0 0.05 0"/>
        </filter>
        <path id="v" d="M20.526 0h208.378c11.336 0 20.526 9.19 20.526 20.526v70.132c0 11.336-9.19 20.526-20.526 20.526H20.526C9.19 111.184 0 101.994 0 90.658V20.526C0 9.19 9.19 0 20.526 0z"/>
        <filter id="u" width="124.9%" height="155.8%" x="-12.4%" y="-20.7%" filterUnits="objectBoundingBox">
            <feOffset dy="8" in="SourceAlpha" result="shadowOffsetOuter1"/>
            <feGaussianBlur in="shadowOffsetOuter1" result="shadowBlurOuter1" stdDeviation="9"/>
            <feColorMatrix in="shadowBlurOuter1" values="0 0 0 0 0 0 0 0 0 0 0 0 0 0 0 0 0 0 0.16 0"/>
        </filter>
    </defs>
    <g fill="none" fill-rule="evenodd">
        <g transform="translate(68 18)">
            <use fill="#000" filter="url(#a)" xlink:href="#b"/>
            <use fill="#FFF" xlink:href="#b"/>
            <use fill="#000" filter="url(#c)" xlink:href="#b"/>
            <mask id="f" fill="#fff">
                <use xlink:href="#d"/>
            </mask>
            <use fill="#FAFAFA" xlink:href="#d"/>
            <use fill="#000" filter="url(#e)" xlink:href="#d"/>
            <path fill="#00524C" d="M9 283h182v120H9z" mask="url(#f)"/>
            <rect width="130" height="30" x="35" y="315" fill="#FFF" mask="url(#f)" rx="15"/>
            <path fill="#003834" d="M69 370h62v5H69z" mask="url(#f)"/>
            <path fill="#E2E7E8" d="M59 328h82v5H59z" mask="url(#f)"/>
            <g mask="url(#f)">
                <path fill="#00524C" d="M134.24 144.973l4.98 7.358 5.151-7.358h1.874l-6.015 8.564 6.36 9.007h-2.022l-5.348-7.752-5.423 7.752h-1.873l6.31-9.056-5.965-8.515zM149.3 144.973v16.144h9.86v1.427h-11.535v-17.571zM162.044 144.973v7.628h10.451v-7.628h1.676v17.571h-1.676v-8.515h-10.451v8.515h-1.676v-17.571z"/>
                <path fill="#43A046" d="M36.962 152.085c.706 0 1.319-.193 1.836-.579.518-.385.777-.963.777-1.735 0-.689-.185-1.16-.555-1.414-.37-.255-.867-.382-1.491-.382h-4.092l-.862 4.11h4.387zm-1.11 7.457c.888 0 1.615-.238 2.182-.714s.85-1.181.85-2.117c0-.459-.094-.82-.283-1.082a1.86 1.86 0 0 0-.727-.603 2.918 2.918 0 0 0-.986-.259c-.362-.032-.715-.05-1.06-.05h-3.796l-1.035 4.825h4.856zm1.874-14.57c.887 0 1.684.058 2.391.173.706.115 1.306.324 1.8.627a3 3 0 0 1 1.133 1.255c.263.534.394 1.219.394 2.055 0 .492-.073.972-.221 1.44a3.968 3.968 0 0 1-.653 1.255c-.288.37-.633.677-1.036.923a3.455 3.455 0 0 1-1.392.468v.049c.838.23 1.482.668 1.935 1.317.451.648.678 1.398.678 2.251 0 .952-.185 1.789-.555 2.51a5.21 5.21 0 0 1-1.491 1.797 6.77 6.77 0 0 1-2.145 1.083 8.641 8.641 0 0 1-2.538.37h-9.367l3.672-17.572h7.395zM61.068 144.973l-.665 3.248h-9.564l-.789 3.765h8.849l-.641 3.003h-8.849l-.912 4.306h9.712l-.69 3.249H43.962l3.672-17.571zM62.473 144.973h3.968l2.637 7.48 5.473-7.48h4.56l-8.578 10.926-1.356 6.645h-3.894l1.405-6.817zM81.465 156.908c.155.542.394 1.022.714 1.44.32.418.731.75 1.233.997.5.246 1.105.369 1.811.369.953 0 1.783-.226 2.49-.677a6.002 6.002 0 0 0 1.775-1.747 8.108 8.108 0 0 0 1.072-2.375c.238-.87.357-1.723.357-2.56 0-.623-.07-1.21-.21-1.759a3.963 3.963 0 0 0-.677-1.44 3.397 3.397 0 0 0-1.208-.984c-.493-.246-1.1-.37-1.824-.37-.986 0-1.845.226-2.576.678a5.715 5.715 0 0 0-1.8 1.747 8.036 8.036 0 0 0-1.047 2.387c-.23.878-.345 1.735-.345 2.572 0 .607.078 1.181.235 1.722m-3.439-5.783a10.452 10.452 0 0 1 1.91-3.384 9.136 9.136 0 0 1 3.032-2.326c1.191-.574 2.526-.86 4.005-.86 1.184 0 2.26.159 3.23.48.969.319 1.79.799 2.465 1.439.673.64 1.195 1.427 1.564 2.362.37.935.555 2.018.555 3.249 0 1.443-.214 2.822-.64 4.134-.428 1.313-1.048 2.47-1.862 3.47a8.797 8.797 0 0 1-3.007 2.375c-1.192.582-2.56.874-4.104.874-2.498 0-4.424-.665-5.78-1.994-1.356-1.328-2.034-3.248-2.034-5.758 0-1.428.222-2.781.666-4.061M102.749 144.973l4.782 12.501h.049l2.514-12.501h3.55l-3.723 17.571h-3.87l-4.83-12.33h-.05l-2.514 12.33h-3.599l3.698-17.571zM120.348 159.295c.986 0 1.86-.18 2.625-.541a5.53 5.53 0 0 0 1.922-1.477 6.59 6.59 0 0 0 1.184-2.165 8.34 8.34 0 0 0 .406-2.634c0-.64-.07-1.218-.21-1.734a3.515 3.515 0 0 0-.677-1.342 3.085 3.085 0 0 0-1.195-.873c-.486-.205-1.073-.308-1.763-.308h-2.909l-2.366 11.074h2.983zm2.539-14.322c2.48 0 4.346.594 5.595 1.784 1.248 1.19 1.873 2.875 1.873 5.057 0 1.526-.214 2.945-.64 4.257-.428 1.313-1.065 2.45-1.911 3.409-.847.96-1.907 1.71-3.18 2.252-1.273.541-2.757.812-4.449.812h-7.345l3.697-17.571h6.36z"/>
            </g>
            <path fill="#FFF" d="M51.091 8.73h97.98v3.234c0 6.072-4.923 10.995-10.995 10.995h-75.99c-6.072 0-10.995-4.923-10.995-10.995V8.731z"/>
            <circle cx="114" cy="15.333" r="1.333" fill="#C1CBCD" opacity=".5"/>
            <rect width="24" height="2.667" x="84.667" y="14" fill="#C1CBCD" opacity=".5" rx="1.333"/>
        </g>
        <g transform="translate(288 248)">
            <use fill="#000" filter="url(#g)" xlink:href="#h"/>
            <use fill="#FFF" xlink:href="#h"/>
            <use fill="#000" filter="url(#i)" xlink:href="#h"/>
        </g>
        <path fill="#FFF" d="M308.91 249.818h156.363c10.543 0 19.09 8.547 19.09 19.091v371.818c0 10.544-8.547 19.091-19.09 19.091H308.909c-10.544 0-19.09-8.547-19.09-19.09V268.908c0-10.544 8.546-19.09 19.09-19.09z"/>
        <g fill="#C1CBCD">
            <path d="M486.182 352.545c1.004 0 1.818.814 1.818 1.819v24.545a1.818 1.818 0 0 1-1.818 1.818v-28.182zM486.182 416.182c1.004 0 1.818.814 1.818 1.818v51.818a1.818 1.818 0 0 1-1.818 1.818v-55.454z"/>
        </g>
        <path fill="#C1CBCD" d="M348.02 635.273h78.141c1.016 0 1.839.814 1.839 1.818a1.828 1.828 0 0 1-1.839 1.818h-78.14a1.828 1.828 0 0 1-1.84-1.818c0-1.004.824-1.818 1.84-1.818zM348.02 270.727h78.141c1.016 0 1.839.814 1.839 1.818a1.828 1.828 0 0 1-1.839 1.819h-78.14a1.828 1.828 0 0 1-1.84-1.819c0-1.004.824-1.818 1.84-1.818z"/>
        <g transform="translate(312.545 268)">
            <circle cx="4.091" cy="4.091" r="4.091" fill="#C1CBCD"/>
            <circle cx="4.091" cy="4.091" r="1.86" fill="#A8A8A8"/>
        </g>
        <g transform="translate(288 248)">
            <use fill="#FAFAFA" xlink:href="#j"/>
            <use fill="#000" filter="url(#k)" xlink:href="#j"/>
        </g>
        <path fill="#FFF" d="M299.889 580H474.11c.491 0 .889.036.889.08v27.84c0 .044-.398.08-.889.08H299.89c-.491 0-.889-.036-.889-.08v-27.84c0-.044.398-.08.889-.08z"/>
        <g fill="#E2E7E8" stroke="#E2E7E8" stroke-width=".5">
            <path d="M468.315 594.138c0 4.461-3.626 8.078-8.098 8.078-4.472 0-8.098-3.617-8.098-8.078 0-4.462 3.626-8.078 8.098-8.078 4.472 0 8.098 3.616 8.098 8.078m-17.096 0c0 4.957 4.029 8.976 8.998 8.976 4.97 0 8.998-4.019 8.998-8.976 0-4.957-4.029-8.976-8.998-8.976-4.969 0-8.998 4.019-8.998 8.976"/>
            <path d="M460.217 598.927a5.542 5.542 0 0 1-4.019-1.718 4.06 4.06 0 0 1 1.253-2.272 4.076 4.076 0 0 1 2.766-1.077c1.028 0 2.01.383 2.766 1.077a4.06 4.06 0 0 1 1.253 2.272 5.542 5.542 0 0 1-4.019 1.718m0-9.578c.999 0 1.811.81 1.811 1.807a1.811 1.811 0 0 1-3.622 0c0-.996.812-1.807 1.811-1.807m1.702 3.911a2.696 2.696 0 0 0 1.01-2.104 2.708 2.708 0 0 0-2.712-2.705 2.708 2.708 0 0 0-2.71 2.705c0 .85.393 1.609 1.008 2.104a4.977 4.977 0 0 0-3.262 4.238 6.443 6.443 0 0 0 4.964 2.326 6.443 6.443 0 0 0 4.964-2.326 4.977 4.977 0 0 0-3.262-4.238"/>
        </g>
        <path fill="#E2E7E8" stroke="#E2E7E8" stroke-width=".5" d="M422.808 592.558l-9.148 2.769c-.346.105-.803.157-1.259.157-.456 0-.913-.052-1.26-.157l-9.147-2.77c-.693-.209-.693-.552 0-.762l9.148-2.77c.346-.104.803-.157 1.259-.157.456 0 .913.053 1.259.158l9.148 2.77c.693.209.693.552 0 .762zm-3.731 7.026s-1.348 1.548-6.676 1.548-6.676-1.548-6.676-1.548v-4.97l6.676 2.074 6.676-2.074v4.97zm-16.474.15h-1.05v-1.096l.525-.911.525.91v1.098zm20.458-8.77l-9.148-2.77c-.415-.125-.952-.194-1.512-.194s-1.097.07-1.512.195l-9.148 2.77c-.99.299-1.137.887-1.137 1.211 0 .314.138.873 1.038 1.18v3.384l-.96 1.666v2.197h2.791v-2.197l-.96-1.666v-3.118l2.341.71v5.577l.214.245c.165.189 1.77 1.846 7.333 1.846 5.564 0 7.168-1.657 7.333-1.846l.213-.245v-5.578l3.114-.942c.99-.3 1.137-.888 1.137-1.213 0-.324-.148-.912-1.137-1.212zM370.064 588.965c0-.576.477-1.045 1.063-1.045s1.064.469 1.064 1.045a1.055 1.055 0 0 1-1.338 1.004 1.062 1.062 0 0 1-.507-.302 1.03 1.03 0 0 1-.282-.702m-6.53 8.825a1.031 1.031 0 0 1 .285-.705 1.06 1.06 0 0 1 1.621.076c.145.186.221.404.221.63 0 .576-.477 1.044-1.063 1.044a1.055 1.055 0 0 1-1.064-1.045m-6.349-2.995c0-.576.477-1.044 1.064-1.044.586 0 1.063.468 1.063 1.044l-.002.021a.483.483 0 0 0-.005.041 1.026 1.026 0 0 1-.2.55 1.059 1.059 0 0 1-1.538.182 1.04 1.04 0 0 1-.329-.486 1.002 1.002 0 0 1-.053-.308m-6.446 5.536c0-.576.477-1.045 1.063-1.045.587 0 1.063.469 1.063 1.045s-.476 1.044-1.063 1.044a1.055 1.055 0 0 1-1.063-1.044m1.063 1.965c1.103 0 2-.882 2-1.965 0-.425-.141-.838-.402-1.178l3.552-2.865c.362.305.818.472 1.297.472.64 0 1.233-.298 1.61-.804l2.792 1.39a1.918 1.918 0 0 0-.053.444c0 1.084.897 1.965 2 1.965s2-.881 2-1.965c0-.461-.165-.904-.467-1.258l4.315-5.72c.218.078.447.117.681.117 1.103 0 2-.88 2-1.964s-.897-1.965-2-1.965-2 .881-2 1.965c0 .501.19.972.538 1.337l-4.287 5.681a1.998 1.998 0 0 0-.78-.157c-.594 0-1.143.253-1.525.698l-2.85-1.418c.017-.104.026-.208.026-.31 0-1.084-.897-1.966-2-1.966s-2 .882-2 1.965c0 .257.05.508.152.747l-3.671 2.961a.445.445 0 0 0-.06.059 2.024 2.024 0 0 0-.868-.196c-1.103 0-2 .881-2 1.965 0 1.083.897 1.965 2 1.965"/>
        <path fill="#00524C" d="M318.323 592.151l-6.002 6.003-.21-.255-3.767-3.768a.575.575 0 0 1-.168-.389l-.003-.003.002-.002a.576.576 0 0 1 .169-.423l.423-.423a.574.574 0 0 1 .817 0l2.76 2.759 4.738-4.74c.11-.108.254-.169.409-.169.154 0 .3.06.408.17l.424.423c.116.117.172.27.168.423l.003.003-.003.002a.575.575 0 0 1-.168.39m-4.99-7.152a9.333 9.333 0 1 0 0 18.667 9.333 9.333 0 0 0 0-18.667"/>
        <g transform="translate(307 503)">
            <use fill="#000" filter="url(#l)" xlink:href="#m"/>
            <use fill="#FFF" xlink:href="#m"/>
        </g>
        <path fill="#E2E7E8" d="M321 531h92v5h-92zM321 521h62v5h-62z"/>
        <g transform="translate(307 443)">
            <use fill="#000" filter="url(#n)" xlink:href="#o"/>
            <use fill="#FFF" xlink:href="#o"/>
        </g>
        <path fill="#E2E7E8" d="M321 471h72v5h-72zM321 461h122v5H321z"/>
        <g transform="translate(307 383)">
            <use fill="#000" filter="url(#p)" xlink:href="#q"/>
            <use fill="#FFF" xlink:href="#q"/>
        </g>
        <path fill="#E2E7E8" d="M321 411h92v5h-92zM321 401h62v5h-62z"/>
        <path fill="#00524C" d="M298 293.455h178.182c.502 0 .909.102.909.23v79.54c0 .127-.407.23-.91.23H298c-.502 0-.91-.103-.91-.23v-79.54c0-.128.408-.23.91-.23z"/>
        <path fill="#003834" d="M341 349h92v5h-92zM356 339h62v5h-62zM366 309h42v5h-42z"/>
        <g>
            <g transform="translate(288 98)">
                <use fill="#000" filter="url(#r)" xlink:href="#s"/>
                <use fill="#00524C" xlink:href="#s"/>
                <use fill="#000" filter="url(#t)" xlink:href="#s"/>
            </g>
            <path fill="#68BC49" d="M346.646 134.827a7.543 7.543 0 1 1-15.086 0 7.543 7.543 0 0 1 15.086 0"/>
            <path fill="#45A041" d="M296 115s17.702 29.715 27.389 49.62c-4.122 11.013-11.505 30.368-17.906 45.207 16.451-22.773 30.1-49.64 30.1-49.64S305.698 128.576 296 115"/>
            <path fill="#95CB6C" d="M335.583 160.187s-13.65 26.867-30.1 49.64c0 0 16.945-14.28 34.504-34.89 4.478-5.256 8.993-10.922 13.28-16.87l-17.684 2.12z"/>
            <path fill="#68BC49" d="M353.267 158.067a263.788 263.788 0 0 1-12.95-7.65C311.954 132.548 296 115 296 115c9.698 13.578 39.583 45.187 39.583 45.187l17.684-2.12z"/>
            <path fill="#95CB6C" d="M355.08 155.499c8.364-11.954 15.674-24.93 19.8-37.913-4.312 7.974-21.912 29.31-21.912 29.31l2.113 8.603z"/>
            <path fill="#45A041" d="M355.02 155.588l.06-.09-2.112-8.601-10.226 1.474a262.205 262.205 0 0 0 11.985 7.055l.292.162z"/>
            <path fill="#68BC49" d="M374.88 117.586s-17.167 17.643-32.172 30.764l.034.02 10.226-1.474s17.6-21.336 21.911-29.31"/>
            <path fill="#95CB6C" d="M358.572 170.962l-15.356 4.826c35.5 9.037 66.361 4.945 66.361 4.945-22.126-1.869-51.005-9.77-51.005-9.77"/>
            <path fill="#45A041" d="M355.942 159.515l-.227.316c-3.771 5.232-7.975 10.594-12.499 15.957l15.355-4.825-2.629-11.448z"/>
            <path fill="#68BC49" d="M409.577 180.732c-20.275-5.27-38.266-12.952-53.634-21.217l2.628 11.447s28.88 7.903 51.006 9.77"/>
        </g>
        <g>
            <g transform="translate(18 451)">
                <use fill="#000" filter="url(#u)" xlink:href="#v"/>
                <use fill="#FFF" xlink:href="#v"/>
            </g>
            <path fill="#4A4A4A" d="M94.823 473.032c.113 0 .207.005.282.014.075.01.143.028.202.057.06.028.118.069.174.122.057.053.12.124.189.212l7.14 9.097a9.367 9.367 0 0 1-.052-.644c-.009-.21-.014-.406-.014-.588v-8.27h2.23v13.604h-1.308c-.2 0-.367-.031-.498-.094a1.11 1.11 0 0 1-.386-.339l-7.112-9.06a13.05 13.05 0 0 1 .056 1.139v8.354h-2.23v-13.604h1.327zm16.755 3.8c.609 0 1.168.098 1.68.293.51.194.951.478 1.321.851s.659.831.866 1.374c.207.542.31 1.161.31 1.858 0 .175-.007.321-.023.437a.7.7 0 0 1-.085.273.343.343 0 0 1-.164.141.702.702 0 0 1-.264.042h-5.964c.069.991.335 1.719.8 2.183.463.464 1.078.696 1.843.696.377 0 .701-.044.974-.132.273-.087.511-.185.715-.291.204-.107.383-.204.536-.292a.9.9 0 0 1 .447-.132c.094 0 .176.02.245.057a.54.54 0 0 1 .178.16l.678.847a3.873 3.873 0 0 1-.866.757c-.32.204-.654.367-1.002.49a5.476 5.476 0 0 1-1.063.258c-.36.05-.71.075-1.049.075a5.156 5.156 0 0 1-1.872-.334 4.19 4.19 0 0 1-1.505-.988c-.427-.436-.762-.975-1.007-1.618-.244-.643-.367-1.388-.367-2.234 0-.659.107-1.278.32-1.858.213-.58.52-1.085.917-1.515.399-.43.885-.77 1.459-1.02.573-.252 1.221-.377 1.942-.377zm.047 1.666c-.677 0-1.207.191-1.59.574-.382.383-.627.925-.733 1.628h4.365c0-.301-.04-.585-.122-.852a1.964 1.964 0 0 0-.377-.7c-.17-.201-.382-.36-.64-.476a2.179 2.179 0 0 0-.903-.174zm4.845-1.515h1.844c.176 0 .323.041.443.123.119.081.194.185.225.31l1.383 5.156c.076.282.137.558.184.828.047.27.092.539.136.809.07-.27.143-.54.221-.81.079-.269.162-.545.25-.827l1.599-5.175a.583.583 0 0 1 .226-.31.657.657 0 0 1 .395-.122h1.025c.17 0 .31.04.424.122a.583.583 0 0 1 .225.31l1.581 5.269c.082.27.155.531.221.785s.13.51.193.767c.044-.27.092-.54.146-.809.053-.27.12-.549.202-.837l1.43-5.156a.525.525 0 0 1 .226-.31.715.715 0 0 1 .414-.123h1.759l-3.058 9.653h-1.872c-.2 0-.345-.138-.432-.414l-1.74-5.579a11.004 11.004 0 0 1-.156-.55 7.195 7.195 0 0 1-.118-.55c-.037.188-.078.374-.122.56a9.913 9.913 0 0 1-.15.559l-1.76 5.56c-.088.276-.257.414-.508.414h-1.778l-3.058-9.653zm27.255 9.653h-1.044c-.22 0-.392-.033-.518-.099-.125-.066-.22-.199-.282-.4l-.207-.686a7.97 7.97 0 0 1-.72.578 4.37 4.37 0 0 1-.729.419c-.25.113-.517.197-.8.254a4.81 4.81 0 0 1-.94.084c-.408 0-.784-.054-1.129-.164a2.434 2.434 0 0 1-.89-.494 2.243 2.243 0 0 1-.578-.819 2.903 2.903 0 0 1-.207-1.138c0-.364.096-.723.287-1.077.192-.354.51-.674.955-.96.446-.285 1.038-.522 1.778-.71.74-.188 1.66-.295 2.757-.32v-.564c0-.646-.137-1.125-.41-1.435-.272-.31-.669-.466-1.19-.466-.376 0-.69.044-.94.132a3.64 3.64 0 0 0-.654.296c-.185.11-.356.209-.513.297a1.04 1.04 0 0 1-.517.131.672.672 0 0 1-.405-.122.963.963 0 0 1-.273-.301l-.423-.743c1.11-1.016 2.45-1.524 4.017-1.524.565 0 1.068.092 1.51.277a3.21 3.21 0 0 1 1.124.772c.308.329.541.723.701 1.18.16.458.24.96.24 1.506v6.096zm-4.516-1.449c.239 0 .458-.022.659-.066.2-.044.39-.11.569-.197.179-.088.351-.196.517-.325.167-.128.334-.28.504-.456v-1.628c-.678.032-1.244.09-1.698.174-.455.085-.82.193-1.096.325-.276.132-.472.285-.588.46a1.02 1.02 0 0 0-.174.575c0 .407.12.7.362.875.241.175.556.263.945.263zm13.585-6.162a1.158 1.158 0 0 1-.202.207.467.467 0 0 1-.287.075.639.639 0 0 1-.348-.108 11.2 11.2 0 0 0-.405-.245 3.024 3.024 0 0 0-.56-.244 2.572 2.572 0 0 0-.804-.108c-.407 0-.765.073-1.072.22-.307.148-.563.36-.767.636-.204.276-.356.61-.456 1.002-.1.392-.15.835-.15 1.33 0 .515.054.973.164 1.374.11.402.268.739.475 1.012.207.273.458.48.753.62.294.142.627.212.997.212s.67-.045.898-.136c.23-.091.422-.191.579-.301.157-.11.293-.21.41-.301a.617.617 0 0 1 .39-.137c.188 0 .329.073.423.217l.668.847a4.201 4.201 0 0 1-.837.757 4.526 4.526 0 0 1-.936.49 4.753 4.753 0 0 1-1.002.258c-.345.05-.687.075-1.026.075a4.281 4.281 0 0 1-1.684-.334 3.931 3.931 0 0 1-1.378-.974 4.692 4.692 0 0 1-.932-1.566c-.228-.618-.343-1.322-.343-2.112 0-.709.102-1.366.306-1.971a4.465 4.465 0 0 1 .898-1.571 4.12 4.12 0 0 1 1.468-1.04c.583-.25 1.254-.376 2.013-.376.721 0 1.353.116 1.896.348.542.232 1.03.565 1.463.997l-.612.847zm5.363 7.761c-.834 0-1.477-.236-1.929-.71-.451-.473-.677-1.127-.677-1.961v-5.391h-.979a.47.47 0 0 1-.324-.122c-.091-.082-.137-.204-.137-.367v-.922l1.553-.254.489-2.634a.465.465 0 0 1 .174-.292.552.552 0 0 1 .343-.104h1.205v3.04h2.54v1.655h-2.54v5.23c0 .302.075.537.225.706.15.17.352.254.602.254.145 0 .265-.017.363-.051.097-.035.182-.071.254-.109.072-.037.136-.073.193-.108a.322.322 0 0 1 .169-.052c.069 0 .125.018.17.052.043.035.09.086.14.155l.697 1.13a3.518 3.518 0 0 1-1.167.64 4.342 4.342 0 0 1-1.364.215zm6.585-9.803v9.653h-2.323v-9.653h2.323zm.348-2.812c0 .2-.04.388-.122.564a1.551 1.551 0 0 1-.8.776 1.458 1.458 0 0 1-.583.118c-.2 0-.39-.04-.569-.118a1.508 1.508 0 0 1-.78-.776 1.458 1.458 0 0 1 0-1.148c.078-.182.183-.338.314-.47.132-.132.287-.237.466-.315.179-.079.368-.118.57-.118.206 0 .4.04.582.118a1.518 1.518 0 0 1 .8.786c.082.181.122.376.122.583zm7.113 12.465h-2.108l-3.838-9.653h1.929c.169 0 .312.041.428.123a.627.627 0 0 1 .24.31l1.862 5.156c.107.3.196.596.268.884.073.289.137.577.193.866.057-.289.121-.577.193-.866.072-.288.165-.583.278-.884l1.91-5.156a.636.636 0 0 1 .235-.31.672.672 0 0 1 .404-.123h1.835l-3.83 9.653zm7.677-9.653v9.653h-2.324v-9.653h2.324zm.348-2.812c0 .2-.041.388-.123.564a1.551 1.551 0 0 1-.8.776 1.458 1.458 0 0 1-.583.118c-.2 0-.39-.04-.569-.118a1.508 1.508 0 0 1-.78-.776 1.458 1.458 0 0 1 0-1.148c.078-.182.183-.338.315-.47.131-.132.287-.237.465-.315.18-.079.369-.118.57-.118.206 0 .4.04.583.118a1.518 1.518 0 0 1 .8.786c.081.181.122.376.122.583zm5.447 12.615c-.834 0-1.477-.236-1.929-.71-.451-.473-.677-1.127-.677-1.961v-5.391h-.978a.47.47 0 0 1-.325-.122c-.091-.082-.136-.204-.136-.367v-.922l1.552-.254.489-2.634a.465.465 0 0 1 .174-.292.552.552 0 0 1 .343-.104h1.205v3.04h2.54v1.655h-2.54v5.23c0 .302.075.537.225.706.151.17.352.254.603.254.144 0 .265-.017.362-.051.097-.035.182-.071.254-.109.072-.037.136-.073.193-.108a.322.322 0 0 1 .169-.052c.069 0 .125.018.17.052.043.035.09.086.14.155l.697 1.13a3.518 3.518 0 0 1-1.167.64 4.342 4.342 0 0 1-1.364.215zm6.585-9.803v9.653h-2.323v-9.653h2.323zm.349-2.812c0 .2-.041.388-.123.564a1.551 1.551 0 0 1-.8.776 1.458 1.458 0 0 1-.583.118c-.2 0-.39-.04-.569-.118a1.508 1.508 0 0 1-.78-.776 1.458 1.458 0 0 1 0-1.148c.078-.182.183-.338.314-.47.132-.132.287-.237.466-.315.179-.079.369-.118.57-.118.206 0 .4.04.583.118a1.518 1.518 0 0 1 .8.786c.08.181.122.376.122.583zm6.265 2.662c.609 0 1.168.097 1.68.292.51.194.951.478 1.321.851s.659.831.866 1.374c.207.542.31 1.161.31 1.858 0 .175-.008.321-.023.437a.7.7 0 0 1-.085.273.343.343 0 0 1-.165.141.702.702 0 0 1-.263.042h-5.965c.07.991.336 1.719.8 2.183.464.464 1.079.696 1.844.696.376 0 .7-.044.974-.132.273-.087.51-.185.715-.291.204-.107.382-.204.536-.292a.9.9 0 0 1 .447-.132c.094 0 .176.02.245.057a.54.54 0 0 1 .178.16l.678.847a3.873 3.873 0 0 1-.866.757c-.32.204-.654.367-1.002.49a5.476 5.476 0 0 1-1.063.258c-.36.05-.71.075-1.049.075a5.156 5.156 0 0 1-1.872-.334 4.19 4.19 0 0 1-1.505-.988c-.427-.436-.762-.975-1.007-1.618-.245-.643-.367-1.388-.367-2.234 0-.659.107-1.278.32-1.858.213-.58.519-1.085.917-1.515.399-.43.885-.77 1.458-1.02.574-.252 1.222-.377 1.943-.377zm.047 1.665c-.677 0-1.207.191-1.59.574-.382.383-.627.925-.734 1.628h4.366c0-.301-.041-.585-.123-.852a1.964 1.964 0 0 0-.376-.7c-.17-.201-.382-.36-.64-.476a2.179 2.179 0 0 0-.903-.174zm11.75.367a.62.62 0 0 1-.197.212.512.512 0 0 1-.263.06.83.83 0 0 1-.363-.093 24.727 24.727 0 0 0-.446-.212 4.093 4.093 0 0 0-.579-.212 2.771 2.771 0 0 0-.767-.094c-.458 0-.818.098-1.082.292a.905.905 0 0 0-.395.762c0 .207.068.381.203.522.134.141.313.265.536.372.222.106.475.202.757.287.282.084.57.177.866.277.294.1.583.215.865.344.282.128.535.291.757.489.223.197.402.434.537.71.135.276.202.609.202.997 0 .465-.085.893-.254 1.285-.17.392-.417.73-.743 1.016-.326.285-.73.508-1.21.668-.479.16-1.03.24-1.65.24-.333 0-.657-.03-.974-.09a5.747 5.747 0 0 1-.913-.25 5.05 5.05 0 0 1-.809-.376 3.927 3.927 0 0 1-.653-.47l.536-.884a.758.758 0 0 1 .244-.245.686.686 0 0 1 .358-.085c.144 0 .28.041.41.123.128.081.277.17.446.263.17.094.369.182.597.264.23.081.52.122.87.122.277 0 .513-.033.711-.099.198-.066.36-.152.49-.259a.971.971 0 0 0 .281-.371c.06-.141.09-.287.09-.438a.78.78 0 0 0-.202-.555 1.77 1.77 0 0 0-.537-.376 5.18 5.18 0 0 0-.762-.287 25.178 25.178 0 0 1-.875-.278c-.298-.1-.59-.217-.875-.352a2.982 2.982 0 0 1-.762-.513 2.32 2.32 0 0 1-.536-.762c-.135-.301-.202-.665-.202-1.091 0-.396.078-.772.235-1.13.157-.357.387-.669.691-.935.305-.267.684-.48 1.139-.64.455-.16.98-.24 1.576-.24.664 0 1.27.11 1.815.33.546.219 1 .507 1.365.865l-.527.837zm13.69 7.771h-1.045c-.22 0-.392-.033-.518-.099-.125-.066-.22-.199-.282-.4l-.207-.686a7.97 7.97 0 0 1-.72.578 4.37 4.37 0 0 1-.729.419c-.25.113-.517.197-.8.254a4.811 4.811 0 0 1-.94.084c-.408 0-.784-.054-1.129-.164a2.434 2.434 0 0 1-.889-.494 2.243 2.243 0 0 1-.579-.819 2.903 2.903 0 0 1-.207-1.138c0-.364.096-.723.287-1.077.192-.354.51-.674.955-.96.446-.285 1.038-.522 1.778-.71.74-.188 1.66-.295 2.757-.32v-.564c0-.646-.137-1.125-.41-1.435-.272-.31-.669-.466-1.19-.466-.376 0-.69.044-.94.132a3.64 3.64 0 0 0-.654.296c-.185.11-.356.209-.513.297a1.04 1.04 0 0 1-.517.131.672.672 0 0 1-.405-.122.963.963 0 0 1-.273-.301l-.423-.743c1.11-1.016 2.45-1.524 4.017-1.524.565 0 1.068.092 1.51.277a3.21 3.21 0 0 1 1.124.772c.308.329.541.723.701 1.18.16.458.24.96.24 1.506v6.096zm-4.517-1.449c.239 0 .458-.022.659-.066.2-.044.39-.11.57-.197.178-.088.35-.196.517-.325.166-.128.334-.28.503-.456v-1.628c-.677.032-1.244.09-1.698.174-.455.085-.82.193-1.096.325-.276.132-.472.285-.588.46a1.02 1.02 0 0 0-.174.575c0 .407.12.7.362.875.241.175.557.263.945.263zm6.802 1.449v-9.653h1.364c.239 0 .405.044.5.132.093.088.156.239.187.452l.141 1.166c.345-.596.75-1.066 1.214-1.41a2.554 2.554 0 0 1 1.562-.518c.476 0 .871.11 1.185.329l-.301 1.74c-.019.113-.06.193-.122.24a.414.414 0 0 1-.254.07c-.094 0-.223-.021-.386-.065a2.582 2.582 0 0 0-.65-.066c-.482 0-.896.133-1.241.4-.345.267-.637.657-.875 1.171v6.012h-2.324zm11.675-9.803c.609 0 1.169.097 1.68.292.511.194.952.478 1.322.851.37.373.658.831.865 1.374.207.542.31 1.161.31 1.858 0 .175-.007.321-.023.437a.7.7 0 0 1-.085.273.343.343 0 0 1-.164.141.702.702 0 0 1-.264.042h-5.964c.069.991.335 1.719.8 2.183.464.464 1.078.696 1.843.696.377 0 .701-.044.974-.132.273-.087.511-.185.715-.291.204-.107.383-.204.536-.292a.9.9 0 0 1 .447-.132c.094 0 .176.02.245.057a.54.54 0 0 1 .179.16l.677.847a3.873 3.873 0 0 1-.866.757c-.32.204-.653.367-1.002.49a5.476 5.476 0 0 1-1.063.258c-.36.05-.71.075-1.049.075a5.156 5.156 0 0 1-1.872-.334 4.19 4.19 0 0 1-1.505-.988c-.427-.436-.762-.975-1.007-1.618-.244-.643-.367-1.388-.367-2.234 0-.659.107-1.278.32-1.858.214-.58.52-1.085.918-1.515.398-.43.884-.77 1.458-1.02.574-.252 1.221-.377 1.942-.377zm.048 1.665c-.678 0-1.208.191-1.59.574-.383.383-.628.925-.734 1.628h4.365c0-.301-.04-.585-.122-.852a1.964 1.964 0 0 0-.377-.7c-.169-.201-.382-.36-.64-.476a2.179 2.179 0 0 0-.902-.174zM93.365 510.583v-9.652h1.364c.238 0 .404.044.498.132.094.087.157.238.189.451l.14 1.167c.346-.596.75-1.067 1.214-1.411a2.554 2.554 0 0 1 1.562-.518c.477 0 .872.11 1.185.33l-.3 1.74c-.02.113-.06.193-.123.24a.414.414 0 0 1-.254.07c-.094 0-.223-.022-.386-.066a2.582 2.582 0 0 0-.649-.065c-.483 0-.897.133-1.242.4-.345.266-.636.656-.875 1.17v6.012h-2.323zm11.675-9.803c.608 0 1.168.098 1.68.292.51.194.95.478 1.321.851.37.374.659.831.865 1.374.207.542.311 1.162.311 1.858 0 .176-.008.321-.024.437a.7.7 0 0 1-.084.273.343.343 0 0 1-.165.141.702.702 0 0 1-.263.043h-5.965c.07.99.336 1.718.8 2.182.464.464 1.079.697 1.844.697.376 0 .7-.044.973-.132.273-.088.512-.185.715-.292.204-.106.383-.204.537-.291a.9.9 0 0 1 .447-.132c.094 0 .175.019.244.056a.54.54 0 0 1 .179.16l.677.847a3.873 3.873 0 0 1-.865.757c-.32.204-.654.367-1.002.49a5.476 5.476 0 0 1-1.063.258c-.36.05-.71.075-1.05.075a5.156 5.156 0 0 1-1.871-.334 4.19 4.19 0 0 1-1.506-.987c-.426-.436-.762-.976-1.006-1.619-.245-.642-.367-1.387-.367-2.234 0-.658.106-1.278.32-1.858.213-.58.519-1.085.917-1.515.398-.43.884-.77 1.458-1.02.574-.251 1.222-.377 1.943-.377zm.047 1.666c-.677 0-1.207.19-1.59.573-.383.383-.627.925-.734 1.628h4.365c0-.301-.04-.585-.122-.851a1.964 1.964 0 0 0-.376-.701c-.17-.201-.383-.36-.64-.475a2.179 2.179 0 0 0-.903-.174zm13.585 8.137h-1.044c-.22 0-.392-.033-.518-.098-.125-.066-.22-.2-.282-.4l-.207-.687a7.97 7.97 0 0 1-.72.579 4.37 4.37 0 0 1-.729.418c-.25.113-.517.198-.8.254a4.81 4.81 0 0 1-.94.085c-.408 0-.784-.055-1.13-.165a2.434 2.434 0 0 1-.888-.494 2.243 2.243 0 0 1-.579-.818 2.903 2.903 0 0 1-.207-1.139c0-.363.096-.722.287-1.077.191-.354.51-.674.955-.96.445-.285 1.038-.521 1.778-.71.74-.188 1.659-.294 2.757-.32v-.564c0-.646-.137-1.124-.41-1.435-.272-.31-.67-.465-1.19-.465-.376 0-.69.044-.94.131a3.64 3.64 0 0 0-.654.297c-.185.11-.356.208-.513.296a1.04 1.04 0 0 1-.518.132.672.672 0 0 1-.404-.123.963.963 0 0 1-.273-.3l-.423-.744c1.11-1.016 2.449-1.524 4.017-1.524.564 0 1.068.093 1.51.278a3.21 3.21 0 0 1 1.124.771c.307.33.541.723.701 1.18.16.459.24.96.24 1.506v6.096zm-4.516-1.448c.238 0 .458-.022.659-.066.2-.044.39-.11.569-.198.179-.088.351-.196.517-.324.166-.13.334-.281.504-.457v-1.627c-.678.031-1.244.09-1.699.174-.454.084-.82.193-1.096.324-.276.132-.472.286-.588.461a1.02 1.02 0 0 0-.174.574c0 .408.121.7.363.875.241.176.556.264.945.264zm13.595 1.448c-.302 0-.5-.14-.593-.423l-.188-.931c-.201.225-.411.43-.63.611-.22.182-.457.339-.711.47a3.701 3.701 0 0 1-.818.306 3.931 3.931 0 0 1-.946.108c-.527 0-1.01-.11-1.449-.329a3.228 3.228 0 0 1-1.133-.955c-.317-.417-.562-.933-.734-1.547-.173-.615-.259-1.317-.259-2.108 0-.715.097-1.38.292-1.994a4.853 4.853 0 0 1 .837-1.6c.364-.451.8-.804 1.308-1.058a3.776 3.776 0 0 1 1.712-.38c.54 0 1 .085 1.383.258.382.172.724.403 1.025.691v-5.099h2.324v13.98h-1.42zm-3.096-1.702c.483 0 .894-.1 1.233-.302.338-.2.658-.486.96-.856v-4.327c-.264-.32-.551-.546-.861-.678a2.539 2.539 0 0 0-1.002-.197c-.352 0-.67.066-.955.197-.286.132-.527.331-.725.598-.197.266-.35.605-.456 1.016-.107.41-.16.895-.16 1.453 0 .565.046 1.043.136 1.435.091.392.222.712.39.96.17.247.377.426.622.536.244.11.517.165.818.165zm10.452 4.355a.898.898 0 0 1-.268.372c-.11.085-.277.127-.503.127h-1.731l1.806-3.867-3.904-8.937h2.032c.188 0 .333.044.433.132.1.087.175.188.226.3l2.06 5.006c.069.163.129.332.179.508.05.175.094.35.131.526.05-.181.106-.357.165-.526.06-.17.124-.342.193-.518l1.938-4.995a.685.685 0 0 1 .25-.31.663.663 0 0 1 .39-.123h1.862l-5.259 12.305zm9.07-12.305h1.844c.175 0 .323.04.442.122.119.082.194.185.226.31l1.383 5.156c.075.282.136.558.183.828.047.27.093.54.136.81.07-.27.143-.54.222-.81.078-.27.161-.546.249-.828l1.6-5.174a.583.583 0 0 1 .225-.31.657.657 0 0 1 .395-.123h1.026c.169 0 .31.04.423.122a.583.583 0 0 1 .226.31l1.58 5.27c.082.269.155.53.221.785.066.254.13.51.193.767.044-.27.093-.54.146-.81.053-.27.12-.548.202-.837l1.43-5.155a.525.525 0 0 1 .226-.31.715.715 0 0 1 .414-.123h1.76l-3.058 9.652h-1.872c-.201 0-.345-.138-.433-.414l-1.74-5.578a11.004 11.004 0 0 1-.156-.55 7.195 7.195 0 0 1-.118-.551c-.037.188-.078.375-.122.56a9.913 9.913 0 0 1-.15.56l-1.76 5.56c-.087.275-.257.413-.508.413h-1.778l-3.057-9.652zm16.059 9.652v-13.98h2.324v5.372c.376-.357.79-.646 1.242-.865.451-.22.981-.33 1.59-.33.526 0 .994.09 1.401.268.408.18.748.43 1.021.753.273.323.48.709.62 1.157.142.449.213.943.213 1.482v6.143h-2.324v-6.143c0-.59-.137-1.046-.41-1.369-.272-.323-.681-.484-1.227-.484-.402 0-.778.09-1.129.272-.351.182-.684.43-.997.744v6.98h-2.324zm14.686-9.803c.608 0 1.168.098 1.679.292.511.194.952.478 1.322.851.37.374.658.831.865 1.374.207.542.31 1.162.31 1.858 0 .176-.007.321-.023.437a.7.7 0 0 1-.084.273.343.343 0 0 1-.165.141.702.702 0 0 1-.263.043h-5.965c.069.99.335 1.718.8 2.182.464.464 1.078.697 1.844.697.376 0 .7-.044.973-.132.273-.088.511-.185.715-.292.204-.106.383-.204.537-.291a.9.9 0 0 1 .446-.132c.094 0 .176.019.245.056a.54.54 0 0 1 .179.16l.677.847a3.873 3.873 0 0 1-.865.757c-.32.204-.654.367-1.002.49a5.476 5.476 0 0 1-1.063.258c-.361.05-.71.075-1.05.075a5.156 5.156 0 0 1-1.872-.334 4.19 4.19 0 0 1-1.505-.987c-.426-.436-.762-.976-1.006-1.619-.245-.642-.367-1.387-.367-2.234 0-.658.106-1.278.32-1.858.213-.58.518-1.085.917-1.515.398-.43.884-.77 1.458-1.02.574-.251 1.221-.377 1.943-.377zm.047 1.666c-.678 0-1.208.19-1.59.573-.383.383-.627.925-.734 1.628h4.365c0-.301-.04-.585-.122-.851a1.964 1.964 0 0 0-.376-.701c-.17-.201-.383-.36-.64-.475a2.179 2.179 0 0 0-.903-.174zm6.02 8.137v-9.652h1.421c.301 0 .499.141.593.423l.16.762c.194-.2.4-.382.616-.545.217-.164.446-.305.687-.424.241-.119.5-.21.776-.273.276-.062.577-.094.903-.094.527 0 .994.09 1.402.268.408.18.748.43 1.02.753.274.323.48.709.622 1.157.14.449.211.943.211 1.482v6.143h-2.323v-6.143c0-.59-.137-1.046-.41-1.369-.272-.323-.682-.484-1.227-.484-.402 0-.778.09-1.13.272-.35.182-.683.43-.996.744v6.98h-2.324zm14.687-9.803c.608 0 1.168.098 1.679.292.511.194.952.478 1.322.851.37.374.658.831.865 1.374.207.542.31 1.162.31 1.858 0 .176-.007.321-.023.437a.7.7 0 0 1-.085.273.343.343 0 0 1-.164.141.702.702 0 0 1-.264.043h-5.964c.069.99.335 1.718.8 2.182.464.464 1.078.697 1.843.697.377 0 .701-.044.974-.132.273-.088.511-.185.715-.292.204-.106.383-.204.536-.291a.9.9 0 0 1 .447-.132c.094 0 .176.019.245.056a.54.54 0 0 1 .179.16l.677.847a3.873 3.873 0 0 1-.866.757c-.32.204-.653.367-1.002.49a5.476 5.476 0 0 1-1.063.258c-.36.05-.71.075-1.049.075a5.156 5.156 0 0 1-1.872-.334 4.19 4.19 0 0 1-1.505-.987c-.427-.436-.762-.976-1.007-1.619-.244-.642-.367-1.387-.367-2.234 0-.658.107-1.278.32-1.858.214-.58.52-1.085.918-1.515.398-.43.884-.77 1.458-1.02.574-.251 1.221-.377 1.943-.377zm.047 1.666c-.678 0-1.208.19-1.59.573-.383.383-.628.925-.734 1.628h4.365c0-.301-.04-.585-.122-.851a1.964 1.964 0 0 0-.377-.701c-.169-.201-.382-.36-.64-.475a2.179 2.179 0 0 0-.902-.174zm10.856 8.137h-2.107l-3.839-9.652h1.93c.168 0 .311.04.427.122a.627.627 0 0 1 .24.31l1.863 5.156c.106.301.196.596.268.884.072.289.136.577.193.866.056-.289.12-.577.193-.866.072-.288.164-.583.277-.884l1.91-5.155a.636.636 0 0 1 .235-.31.672.672 0 0 1 .405-.123h1.834l-3.829 9.652zm9.192-9.803c.608 0 1.168.098 1.68.292.51.194.95.478 1.32.851.37.374.66.831.866 1.374.207.542.31 1.162.31 1.858 0 .176-.007.321-.023.437a.7.7 0 0 1-.084.273.343.343 0 0 1-.165.141.702.702 0 0 1-.263.043h-5.965c.069.99.336 1.718.8 2.182.464.464 1.078.697 1.844.697.376 0 .7-.044.973-.132.273-.088.512-.185.715-.292.204-.106.383-.204.537-.291a.9.9 0 0 1 .446-.132c.095 0 .176.019.245.056a.54.54 0 0 1 .179.16l.677.847a3.873 3.873 0 0 1-.865.757c-.32.204-.654.367-1.002.49a5.476 5.476 0 0 1-1.063.258c-.361.05-.71.075-1.05.075a5.156 5.156 0 0 1-1.872-.334 4.19 4.19 0 0 1-1.505-.987c-.426-.436-.762-.976-1.006-1.619-.245-.642-.367-1.387-.367-2.234 0-.658.106-1.278.32-1.858.213-.58.519-1.085.917-1.515.398-.43.884-.77 1.458-1.02.574-.251 1.221-.377 1.943-.377zm.047 1.666c-.678 0-1.208.19-1.59.573-.383.383-.627.925-.734 1.628h4.365c0-.301-.04-.585-.122-.851a1.964 1.964 0 0 0-.376-.701c-.17-.201-.383-.36-.64-.475a2.179 2.179 0 0 0-.903-.174zm6.02 8.137v-9.652h1.365c.238 0 .405.044.499.132.094.087.156.238.188.451l.14 1.167c.346-.596.75-1.067 1.215-1.411a2.554 2.554 0 0 1 1.561-.518c.477 0 .872.11 1.186.33l-.301 1.74c-.02.113-.06.193-.123.24a.414.414 0 0 1-.254.07c-.094 0-.222-.022-.385-.066a2.582 2.582 0 0 0-.65-.065c-.483 0-.896.133-1.241.4-.345.266-.637.656-.875 1.17v6.012h-2.324zm-125.049 26.6a.898.898 0 0 1-.268.372c-.11.085-.278.127-.503.127h-1.731l1.806-3.866-3.904-8.938h2.032c.188 0 .332.044.433.132.1.088.175.188.225.301l2.06 5.005c.07.163.13.332.18.508.05.176.093.351.131.527.05-.182.105-.358.165-.527.06-.17.124-.342.193-.517l1.938-4.996a.685.685 0 0 1 .249-.31.663.663 0 0 1 .39-.123h1.863l-5.259 12.306zm10.735-12.455c.72 0 1.375.116 1.961.348a4.23 4.23 0 0 1 1.5.988c.415.426.734.947.96 1.561.226.615.339 1.302.339 2.06 0 .766-.113 1.456-.339 2.07a4.47 4.47 0 0 1-.96 1.571 4.169 4.169 0 0 1-1.5.998c-.586.232-1.24.348-1.961.348-.722 0-1.377-.116-1.967-.348a4.206 4.206 0 0 1-1.51-.998 4.489 4.489 0 0 1-.969-1.57c-.229-.615-.343-1.305-.343-2.07 0-.76.114-1.446.343-2.06a4.392 4.392 0 0 1 .97-1.562c.416-.427.92-.756 1.51-.988.589-.232 1.244-.348 1.966-.348zm0 8.156c.802 0 1.397-.27 1.782-.809.386-.54.579-1.33.579-2.37 0-1.042-.193-1.835-.579-2.38-.385-.546-.98-.82-1.782-.82-.816 0-1.418.275-1.807.824-.389.549-.583 1.34-.583 2.375s.194 1.824.583 2.367c.39.542.991.813 1.807.813zm8.702-8.006v6.134c0 .59.136 1.046.41 1.369.272.323.681.485 1.227.485.401 0 .778-.09 1.129-.269.351-.178.683-.425.997-.738v-6.98h2.324v9.652h-1.42c-.302 0-.5-.141-.594-.424l-.16-.771c-.2.2-.407.384-.62.55a3.746 3.746 0 0 1-2.362.795c-.527 0-.992-.09-1.397-.268a2.798 2.798 0 0 1-1.02-.757 3.316 3.316 0 0 1-.626-1.162 4.918 4.918 0 0 1-.212-1.482v-6.134h2.324zm19.766 9.653h-1.044c-.22 0-.392-.033-.518-.1-.125-.065-.22-.198-.282-.399l-.207-.687a7.97 7.97 0 0 1-.72.579 4.37 4.37 0 0 1-.729.419c-.25.112-.517.197-.8.254a4.81 4.81 0 0 1-.94.084c-.408 0-.784-.055-1.13-.164a2.434 2.434 0 0 1-.888-.494 2.243 2.243 0 0 1-.579-.819 2.903 2.903 0 0 1-.207-1.138c0-.364.096-.723.287-1.077.191-.355.51-.675.955-.96.445-.285 1.038-.522 1.778-.71.74-.188 1.659-.295 2.757-.32v-.565c0-.646-.137-1.124-.41-1.434-.273-.31-.67-.466-1.19-.466-.376 0-.69.044-.94.132a3.64 3.64 0 0 0-.654.296c-.185.11-.356.209-.513.296a1.04 1.04 0 0 1-.518.132.672.672 0 0 1-.404-.122.963.963 0 0 1-.273-.301l-.423-.743c1.11-1.017 2.449-1.525 4.017-1.525.564 0 1.068.093 1.51.278a3.21 3.21 0 0 1 1.124.771c.307.33.541.723.7 1.181.16.458.24.96.24 1.505v6.097zm-4.516-1.45c.238 0 .458-.021.659-.065.2-.044.39-.11.569-.198.179-.087.351-.196.517-.324.166-.129.334-.28.504-.456v-1.628c-.678.031-1.244.09-1.699.174-.454.085-.82.193-1.096.325-.276.131-.472.285-.588.46a1.02 1.02 0 0 0-.174.575c0 .407.121.699.363.874.241.176.556.264.945.264zm6.802 1.45v-9.653h1.364c.238 0 .405.044.499.132.094.088.156.238.188.451l.141 1.167c.345-.596.75-1.066 1.214-1.411a2.554 2.554 0 0 1 1.561-.518c.477 0 .872.11 1.186.33l-.301 1.74c-.02.113-.06.193-.123.24a.414.414 0 0 1-.254.07c-.094 0-.222-.021-.385-.065a2.582 2.582 0 0 0-.65-.066c-.482 0-.896.133-1.241.4-.345.266-.637.657-.875 1.171v6.012h-2.324zm11.675-9.803c.609 0 1.168.097 1.68.291.51.195.951.479 1.321.852s.659.83.866 1.373c.207.543.31 1.162.31 1.858 0 .176-.008.322-.023.438a.7.7 0 0 1-.085.273.343.343 0 0 1-.165.14.702.702 0 0 1-.263.043h-5.965c.07.991.336 1.719.8 2.183.464.464 1.079.696 1.844.696.376 0 .7-.044.974-.132.273-.088.51-.185.715-.291.204-.107.382-.204.536-.292a.9.9 0 0 1 .447-.132c.094 0 .175.019.244.057a.54.54 0 0 1 .18.16l.677.846a3.873 3.873 0 0 1-.866.758c-.32.203-.654.367-1.002.489a5.476 5.476 0 0 1-1.063.259c-.36.05-.71.075-1.049.075a5.156 5.156 0 0 1-1.872-.334 4.19 4.19 0 0 1-1.505-.988c-.427-.436-.762-.975-1.007-1.618-.245-.643-.367-1.388-.367-2.235 0-.658.107-1.277.32-1.858.213-.58.519-1.085.917-1.514.398-.43.885-.77 1.458-1.021.574-.25 1.222-.376 1.943-.376zm.047 1.665c-.677 0-1.207.191-1.59.574-.382.382-.627.925-.734 1.627h4.366c0-.3-.041-.585-.123-.851a1.964 1.964 0 0 0-.376-.701c-.17-.2-.383-.359-.64-.475a2.179 2.179 0 0 0-.903-.174zm9.295-5.466v5.381c0 .571-.028 1.13-.084 1.68-.057.548-.132 1.13-.226 1.745h-1.571a35.727 35.727 0 0 1-.226-1.745 16.405 16.405 0 0 1-.085-1.68v-5.381h2.192zm-2.55 12.324c0-.194.037-.38.109-.555.072-.175.172-.326.3-.451.13-.126.282-.226.457-.301.176-.076.364-.113.565-.113.194 0 .38.037.555.113.175.075.326.175.451.3.126.126.226.277.301.452.076.176.113.36.113.555 0 .2-.037.388-.113.56a1.362 1.362 0 0 1-.753.743c-.175.072-.36.108-.554.108a1.471 1.471 0 0 1-1.021-.404 1.338 1.338 0 0 1-.301-.447 1.436 1.436 0 0 1-.108-.56z"/>
            <g fill="#43A046" fill-rule="nonzero">
                <path d="M73.093 499.021a.855.855 0 1 1-1.558-.704c.792-1.754 1.202-3.564 1.202-5.399s-.41-3.645-1.202-5.399a.855.855 0 1 1 1.558-.704c.89 1.97 1.354 4.019 1.354 6.103 0 2.085-.463 4.134-1.354 6.103z"/>
                <path d="M70.933 497.713a.855.855 0 0 1-1.584-.644c.548-1.347.832-2.739.832-4.15 0-1.413-.284-2.804-.832-4.151a.855.855 0 1 1 1.584-.645c.63 1.548.958 3.157.958 4.795s-.328 3.247-.958 4.795zM45.655 489.76v2.369c0 3.78-.584 6.235-1.688 8.2-.271.484-1.096 1.716-1.206 1.918-.185.34-.264.611-.264.932 0 .469 1.495 1.173 4.137 1.644 2.414.43 5.593.659 8.427.659 2.835 0 6.014-.228 8.428-.659 2.642-.471 4.136-1.175 4.136-1.644 0-.32-.08-.592-.263-.932-.11-.202-.935-1.434-1.206-1.918-1.104-1.965-1.688-4.42-1.688-8.2v-2.368a9.406 9.406 0 0 0-9.407-9.406 9.405 9.405 0 0 0-9.406 9.406zm-1.71 0c0-6.14 4.977-11.116 11.116-11.116 6.14 0 11.117 4.977 11.117 11.117v2.368c0 3.5.516 5.665 1.47 7.363.225.402 1.058 1.647 1.217 1.94.312.575.47 1.119.47 1.747 0 2.874-6.39 4.014-14.274 4.014-7.883 0-14.274-1.14-14.274-4.014 0-.628.158-1.172.47-1.748.159-.292.993-1.538 1.218-1.939.954-1.698 1.47-3.864 1.47-7.363v-2.368z"/>
                <path d="M54 479.647a.855.855 0 0 1-1.71 0v-.787a2.773 2.773 0 0 1 5.544 0v.818a.855.855 0 0 1-1.71 0v-.818a1.062 1.062 0 0 0-2.124 0v.787zM57.401 506.247a.855.855 0 1 1 1.71 0c0 1.987-1.837 3.5-4.05 3.5-2.248 0-4.05-1.449-4.05-3.5a.855.855 0 0 1 1.71 0c0 1.015.965 1.79 2.34 1.79 1.334 0 2.34-.829 2.34-1.79zM37.03 486.815a.855.855 0 0 1 1.558.704c-.792 1.754-1.202 3.564-1.202 5.4 0 1.834.41 3.644 1.202 5.398a.855.855 0 1 1-1.559.704c-.89-1.97-1.354-4.018-1.354-6.103 0-2.084.464-4.134 1.354-6.103z"/>
                <path d="M39.19 488.123a.855.855 0 0 1 1.584.645 10.957 10.957 0 0 0-.832 4.15c0 1.412.284 2.804.832 4.15a.855.855 0 0 1-1.585.645 12.665 12.665 0 0 1-.957-4.795c0-1.638.327-3.247.957-4.795z"/>
            </g>
        </g>
    </g>
</svg>
