<svg xmlns="http://www.w3.org/2000/svg" width="100" height="100" viewBox="0 0 100 100">
    <g fill="#43A046" fill-rule="evenodd">
        <path d="M27 45h4V33l-13-7v-7l-1 7.5-3 1.46L27 35z"/>
        <path d="M52 77.5L37 63.354V29l-12-7v-8.003L29 14v6l12 7v34.848l7 6.652V60l10-8.371V43h4v10.577L52 62z"/>
        <path d="M48.118 51.515h2.94v-3.03h-2.94zM52 86h-4V70l20-18v-8h4v10L52 72z"/>
        <path d="M49 95L27 75V48h4v25.046L51 91zM58 40h4v-4h-4zM62 33h-4v-7l13-7v-7h4v8.96L62 28z"/>
        <path d="M48 100h4V56h-4zM48 53h4v-9h-4zM48 41h4V13h-4zM72 41h-4v-7l13-7v-7l1 7.5 3 1.46L72 36z"/>
        <path d="M86.938 32C82.597 32 79 28.414 79 24s3.597-8 7.938-8C91.403 16 95 19.586 95 24s-3.597 8-8.062 8zm0-12C84.723 20 83 21.846 83 24s1.723 4 3.938 4C89.154 28 91 26.154 91 24s-1.846-4-4.062-4zM72.938 16C68.597 16 65 12.414 65 8s3.597-8 7.938-8C77.403 0 81 3.586 81 8s-3.597 8-8.062 8zm0-12C70.723 4 69 5.846 69 8s1.723 4 3.938 4C75.154 12 77 10.154 77 8s-1.846-4-4.062-4zM49.938 16C45.597 16 42 12.414 42 8s3.597-8 7.938-8C54.403 0 58 3.586 58 8s-3.597 8-8.062 8zm0-12C47.723 4 46 5.846 46 8s1.723 4 3.938 4C52.154 12 54 10.154 54 8s-1.846-4-4.062-4zM26.938 16C22.597 16 19 12.414 19 8s3.597-8 7.938-8C31.403 0 35 3.586 35 8s-3.597 8-8.062 8zm0-12C24.723 4 23 5.846 23 8s1.723 4 3.938 4C29.154 12 31 10.154 31 8s-1.846-4-4.062-4zM12.938 32C8.597 32 5 28.414 5 24s3.597-8 7.938-8C17.403 16 21 19.586 21 24s-3.597 8-8.062 8zm0-12C10.723 20 9 21.846 9 24s1.723 4 3.938 4C15.154 28 17 26.154 17 24s-1.846-4-4.062-4z"/>
    </g>
</svg>
