<svg xmlns="http://www.w3.org/2000/svg" width="100" height="100" viewBox="0 0 100 100">
    <path fill="#43A046" fill-rule="evenodd" d="M50.026 95.285c-6.512 0-12.536-.48-17.908-1.601l-.163.16-.814-.16c-12.21-2.402-20.025-6.566-21.815-11.69H9V78.63v-.32c.326-1.441.488-2.882.651-4.164.163-2.402.326-4.644 1.465-6.726 2.93-5.765 9.443-7.206 15.466-8.487 4.233-.961 8.303-1.762 10.908-4.004.488-.48.977-.8 1.302-1.28v-5.446c-.488-.16-.976-.64-1.465-.96-.977-1.122-1.79-2.563-2.605-3.844-.814-1.121-1.465-2.402-2.279-3.363-.488-.64-1.14-1.121-1.628-1.602-1.14-.8-2.279-1.761-2.93-3.523-.326-1.441-.651-2.882-.489-4.324 0-2.722.977-4.964 2.768-6.405V22.1c-.163-1.281-.163-2.402-.163-3.684.163-4.163.489-7.526 1.791-10.249 1.14-2.402 3.093-3.843 5.698-4.644.163-.16.488-.32.814-.32 1.465-.32 2.93-.64 4.233-.8 2.767-.321 5.21-.641 7.326-2.083L50.35 0h3.093c2.442.32 3.42 1.922 4.396 3.043.488.8.814 1.28 1.302 1.441.652.32 1.466.16 2.28.16 1.628-.16 3.256 0 4.558.8 4.07 2.883 3.744 8.809 3.419 14.414-.163 1.761-.326 3.363-.326 4.964.814.16 2.28.64 2.605 2.242l.163.32c.163 3.203.325 5.285 0 8.648l-.163 1.121-1.14.32c-2.279.961-3.581 3.043-5.046 5.285-1.14 1.922-2.28 3.684-4.07 5.285-.652 2.722-.652 4.804.162 6.085 1.466 2.243 5.047 2.883 9.443 3.684.651.16 1.465.32 2.28.48C85.352 60.694 91.05 67.42 91.05 79.271v.8c-.163.962-.488 1.922-.977 2.883-1.14 2.082-3.256 4.164-6.512 5.926l-2.442 1.28-.488-2.722c-1.14-5.925-6.35-10.249-12.373-10.249-7 0-12.698 5.605-12.698 12.491 0 .961.163 2.082.488 3.043l.489 2.402h-2.442c-1.303.16-2.605.16-4.07.16zM31.304 89.68l.814.16c5.372.961 11.396 1.602 17.908 1.602.488 0 1.14-.16 1.628-.16V89.68c0-8.968 7.488-16.334 16.605-16.334 7 0 13.187 4.324 15.63 10.73a11.34 11.34 0 0 0 2.767-2.883c.162-.64.325-.961.488-1.442v-.48c-.163-9.929-4.558-15.053-14.652-17.135-.814-.16-1.628-.32-2.28-.48-4.883-.962-9.604-1.762-11.884-5.446-1.628-2.402-1.79-5.605-.65-9.929l.162-.64.651-.32c1.465-1.121 2.605-2.723 3.745-4.645 1.302-2.242 2.93-4.804 5.698-6.245.162-2.082.162-3.683 0-5.925-.814-.32-2.28-.641-2.605-2.403l-.163-.32c0-1.922.163-4.003.163-6.085.325-4.484.651-9.449-1.465-11.05-.489-.16-1.303-.16-2.117-.16-1.302.16-2.767.16-3.907-.32-1.79-.641-2.605-1.922-3.419-2.883-.651-.961-.814-1.281-1.302-1.442H51.49c-2.768 1.602-5.698 2.082-8.303 2.403-1.465.16-2.768.32-3.907.64l-.489.32c-1.628.48-2.767 1.282-3.418 2.723-1.14 2.082-1.303 4.804-1.303 8.487V26.423l-.977.641c-1.465.64-1.79 2.402-1.79 3.684 0 .96.162 2.081.325 3.042.326.64.814.961 1.628 1.762.651.48 1.465 1.12 2.28 2.082.976 1.12 1.79 2.402 2.604 3.683.651 1.281 1.303 2.402 2.117 3.043.488.48.814.64.814.64l1.628.32v9.61l-.326.48c-.651.96-1.465 1.761-2.442 2.562-3.256 2.722-7.977 3.683-12.373 4.804-5.535 1.121-10.745 2.402-13.024 6.566-.651 1.281-.814 3.043-.977 5.125-.162 1.28-.325 2.882-.65 4.484v.96c.325 3.043 6.023 7.367 18.233 9.77h.163zm36.833-10.193c-5.698 0-10.42 4.559-10.42 10.257 0 .814.164 1.79.327 2.604 1.14 4.396 5.21 7.652 10.093 7.652 5.535 0 10.094-4.558 10.094-10.256 0-.652 0-1.303-.163-1.791-.814-4.884-5.047-8.466-9.93-8.466zm5.21 11.233c0 .326-.163.652-.489.652h-3.744v3.581c0 .326-.163.651-.651.651h-.977c-.488 0-.651-.325-.651-.65v-3.582H63.09c-.325 0-.65-.326-.65-.652v-1.14c0-.325.325-.65.65-.65h3.745v-3.582c0-.488.163-.651.65-.651h.978c.488 0 .651.163.651.651v3.582h3.744c.326 0 .489.325.489.65v1.14z"/>
</svg>
