<svg xmlns="http://www.w3.org/2000/svg" width="250" height="150" viewBox="0 0 250 150">
    <g fill="none" fill-rule="evenodd">
        <path fill="#00524C" d="M58.833 70.995C57.375 85.411 44.507 95.916 30.09 94.458 15.674 93 5.17 80.132 6.628 65.716 8.085 51.3 20.954 40.796 35.37 42.253c14.416 1.458 24.92 14.326 23.463 28.742"/>
        <path fill="#68BC49" d="M38.247 54.392a5.696 5.696 0 1 1-11.393 0 5.696 5.696 0 0 1 11.393 0"/>
        <path fill="#45A041" d="M0 39.419s13.368 22.44 20.683 37.471c-3.113 8.317-8.688 22.933-13.522 34.14 12.424-17.198 22.73-37.488 22.73-37.488S7.325 49.672 0 39.419"/>
        <path fill="#95CB6C" d="M29.892 73.542S19.584 93.832 7.161 111.03c0 0 12.797-10.784 26.056-26.348 3.382-3.969 6.792-8.248 10.03-12.74l-13.355 1.601z"/>
        <path fill="#68BC49" d="M43.246 71.941a199.205 199.205 0 0 1-9.78-5.776C12.049 52.67 0 39.419 0 39.419c7.324 10.253 29.892 34.123 29.892 34.123l13.354-1.6z"/>
        <path fill="#95CB6C" d="M44.616 70.002c6.316-9.027 11.836-18.826 14.951-28.63-3.255 6.021-16.547 22.134-16.547 22.134l1.596 6.496z"/>
        <path fill="#45A041" d="M44.57 70.07l.046-.068-1.596-6.496-7.722 1.113a198.01 198.01 0 0 0 9.05 5.328l.221.122z"/>
        <path fill="#68BC49" d="M59.567 41.372S46.604 54.695 35.272 64.603l.026.016 7.723-1.113s13.291-16.113 16.546-22.134"/>
        <path fill="#95CB6C" d="M47.252 81.68l-11.596 3.644c26.808 6.824 50.114 3.734 50.114 3.734-16.71-1.41-38.518-7.378-38.518-7.378"/>
        <path fill="#45A041" d="M45.267 73.035l-.172.238c-2.848 3.952-6.022 8.001-9.439 12.051l11.596-3.644-1.985-8.645z"/>
        <path fill="#68BC49" d="M85.77 89.058c-15.311-3.98-28.897-9.782-40.503-16.023l1.985 8.645s21.809 5.967 38.518 7.378"/>
        <path fill="#015351" d="M199.367 41.883l6.129 9.058 6.341-9.058h2.306l-7.404 10.542 7.829 11.088h-2.489l-6.583-9.542-6.675 9.542h-2.306l7.767-11.148-7.342-10.482zM217.905 41.883v19.873h12.136v1.757h-14.2v-21.63zM233.59 41.883v9.391h12.866v-9.39h2.062v21.629h-2.062V53.03H233.59v10.482h-2.063v-21.63z"/>
        <path fill="#53A946" d="M79.622 50.638c.87 0 1.623-.237 2.26-.712.638-.474.956-1.186.956-2.135 0-.849-.227-1.429-.682-1.742-.455-.313-1.068-.47-1.836-.47h-5.036l-1.062 5.06h5.4zm-1.365 9.179c1.092 0 1.987-.292 2.685-.879.698-.585 1.047-1.454 1.047-2.605 0-.565-.117-1.01-.35-1.333a2.29 2.29 0 0 0-.894-.742 3.592 3.592 0 0 0-1.214-.318c-.445-.04-.88-.06-1.304-.06h-4.673l-1.274 5.937h5.977zm2.306-17.933c1.092 0 2.073.07 2.943.211.87.142 1.608.4 2.215.773a3.693 3.693 0 0 1 1.395 1.545c.324.656.486 1.5.486 2.53 0 .605-.091 1.196-.273 1.771a4.884 4.884 0 0 1-.804 1.546 4.731 4.731 0 0 1-1.275 1.136 4.253 4.253 0 0 1-1.714.575v.06c1.032.283 1.825.824 2.382 1.621.556.799.835 1.722.835 2.772 0 1.172-.228 2.202-.683 3.09a6.414 6.414 0 0 1-1.836 2.212 8.332 8.332 0 0 1-2.64 1.333c-.991.302-2.032.454-3.125.454H66.94l4.521-21.63h9.103zM109.295 41.883l-.819 4H96.704l-.971 4.634h10.892l-.789 3.696H94.944l-1.123 5.301h11.955l-.85 3.999H88.24l4.52-21.63zM111.025 41.883h4.884l3.247 9.21 6.735-9.21h5.614l-10.56 13.45-1.667 8.18h-4.794l1.73-8.391zM134.402 56.576a5.29 5.29 0 0 0 .88 1.772c.395.515.9.924 1.517 1.227.617.303 1.36.454 2.23.454 1.173 0 2.195-.277 3.065-.833a7.388 7.388 0 0 0 2.184-2.15 9.98 9.98 0 0 0 1.32-2.924c.293-1.07.44-2.12.44-3.15 0-.768-.086-1.49-.258-2.166a4.879 4.879 0 0 0-.834-1.773 4.182 4.182 0 0 0-1.487-1.212c-.607-.302-1.355-.454-2.245-.454-1.214 0-2.271.278-3.171.833a7.034 7.034 0 0 0-2.215 2.15 9.892 9.892 0 0 0-1.29 2.94 12.45 12.45 0 0 0-.424 3.165 7.6 7.6 0 0 0 .288 2.12m-4.232-7.118c.546-1.576 1.33-2.964 2.351-4.166a11.246 11.246 0 0 1 3.732-2.862c1.466-.707 3.11-1.06 4.93-1.06 1.457 0 2.781.196 3.975.59 1.194.394 2.204.985 3.034 1.772.83.788 1.472 1.757 1.927 2.908.455 1.151.683 2.484.683 3.999a16.35 16.35 0 0 1-.79 5.09c-.526 1.615-1.289 3.039-2.29 4.27a10.828 10.828 0 0 1-3.702 2.924c-1.467.717-3.15 1.075-5.052 1.075-3.074 0-5.446-.818-7.114-2.453-1.67-1.636-2.504-3.999-2.504-7.089 0-1.757.273-3.423.82-4.998M160.602 41.883l5.886 15.39h.06l3.095-15.39h4.37l-4.582 21.63h-4.764l-5.946-15.177h-.06l-3.096 15.177h-4.43l4.552-21.63zM182.265 59.514c1.214 0 2.29-.222 3.231-.667a6.807 6.807 0 0 0 2.367-1.817 8.111 8.111 0 0 0 1.457-2.666c.333-1.01.5-2.09.5-3.241 0-.788-.086-1.5-.258-2.136a4.327 4.327 0 0 0-.834-1.65 3.798 3.798 0 0 0-1.472-1.076c-.597-.252-1.32-.379-2.17-.379h-3.58l-2.912 13.632h3.671zm3.125-17.63c3.054 0 5.35.731 6.888 2.196 1.537 1.464 2.306 3.54 2.306 6.225 0 1.878-.264 3.625-.79 5.24-.525 1.617-1.309 3.015-2.35 4.196-1.043 1.182-2.348 2.106-3.915 2.772-1.567.667-3.393 1-5.476 1h-9.042l4.552-21.63h7.827z"/>
        <path fill="#58585B" d="M69.955 74.122c.372-.002.661-.105.87-.306.208-.202.311-.48.309-.834 0-.206-.04-.377-.118-.512a.894.894 0 0 0-.307-.321 1.291 1.291 0 0 0-.439-.166 2.675 2.675 0 0 0-.513-.046l-1.92.012.013 2.185 2.105-.012zm-.44-2.891c.477-.003.82-.089 1.028-.258.208-.17.312-.422.31-.758-.001-.224-.038-.401-.11-.53a.76.76 0 0 0-.293-.3 1.16 1.16 0 0 0-.43-.134 4.064 4.064 0 0 0-.517-.028l-1.681.01.011 2.008 1.681-.01zm-.247-2.715c.136 0 .282 0 .438.002.157.002.311.01.465.024.153.013.297.035.43.064.132.029.246.072.34.13.208.123.384.293.53.51.146.218.22.486.221.804.002.337-.077.628-.238.874a1.435 1.435 0 0 1-.691.548v.017c.39.08.688.256.897.526.207.27.312.6.315.99.001.23-.04.454-.12.672a1.692 1.692 0 0 1-.364.582c-.161.169-.36.306-.599.41a2.075 2.075 0 0 1-.827.16l-3.052.017-.036-6.316 2.291-.014zM75.852 74.796l-.005-.726h-.017a1.54 1.54 0 0 1-.607.628 1.838 1.838 0 0 1-.875.204 2.056 2.056 0 0 1-.753-.116 1.196 1.196 0 0 1-.488-.338 1.287 1.287 0 0 1-.264-.524 2.81 2.81 0 0 1-.08-.677l-.017-3.008.753-.004.017 3.097c.002.283.086.506.252.67.166.165.393.246.682.244.23-.001.43-.037.597-.11.168-.071.307-.172.418-.302.112-.13.195-.283.25-.458.055-.174.082-.364.08-.57l-.014-2.584.752-.004.026 4.573-.707.005zM78.285 70.208l.026 4.573-.752.005-.026-4.574.752-.004zm-.757-.82l-.005-.92.752-.003.005.92-.752.004zM80.062 68.454l.036 6.317-.752.005-.036-6.317zM81.712 73.139c.057.203.143.384.26.542.115.159.264.285.444.378.18.093.392.14.633.138.254-.001.469-.053.646-.154a1.29 1.29 0 0 0 .43-.396c.112-.163.192-.348.24-.554a2.649 2.649 0 0 0-.01-1.279 1.598 1.598 0 0 0-.256-.551 1.284 1.284 0 0 0-.45-.383 1.393 1.393 0 0 0-.663-.142 1.294 1.294 0 0 0-.646.154 1.197 1.197 0 0 0-.422.4c-.105.167-.18.355-.227.568a3.009 3.009 0 0 0-.067.655c.002.213.03.42.088.624zm2.712 1.607l-.004-.619h-.017a1.104 1.104 0 0 1-.581.552 2.227 2.227 0 0 1-.875.173 2.071 2.071 0 0 1-.926-.189 1.906 1.906 0 0 1-.658-.518 2.274 2.274 0 0 1-.397-.759 3.122 3.122 0 0 1-.138-.92 3.21 3.21 0 0 1 .123-.92c.084-.29.212-.542.385-.759.172-.216.39-.388.651-.517a2.08 2.08 0 0 1 .915-.195c.118 0 .245.01.38.033.136.023.272.062.408.117.136.056.265.129.386.219.122.091.224.204.307.339h.018l-.013-2.353.752-.005.036 6.317-.752.004zM86.928 70.158l.026 4.574-.752.004-.026-4.574.752-.004zm-.757-.819l-.005-.92.752-.004.005.92-.752.004zM88.627 70.148l.004.726h.018c.31-.556.803-.837 1.481-.84.3-.003.552.038.753.119.2.082.364.195.488.342.125.147.213.322.265.525.05.203.077.429.079.676l.017 3.008-.752.005-.018-3.096c-.002-.284-.086-.507-.252-.672-.166-.164-.393-.245-.682-.243-.23.001-.43.037-.597.109a1.128 1.128 0 0 0-.418.303c-.112.13-.195.283-.25.458a1.87 1.87 0 0 0-.08.57l.014 2.584-.752.004-.026-4.573.708-.005zM95.155 73.92c.174-.104.313-.24.418-.41.106-.168.183-.359.232-.572.049-.212.072-.425.071-.637a2.5 2.5 0 0 0-.074-.592 1.658 1.658 0 0 0-.229-.526 1.171 1.171 0 0 0-.405-.373 1.195 1.195 0 0 0-.602-.138 1.294 1.294 0 0 0-.618.14c-.171.093-.31.216-.419.37a1.568 1.568 0 0 0-.235.532c-.05.201-.073.41-.072.629.001.206.023.412.066.619.042.206.114.393.215.56.101.168.235.303.4.405.166.102.373.153.621.15.247 0 .458-.053.631-.157m.972 2.051c-.34.374-.876.563-1.607.567a3.1 3.1 0 0 1-.65-.067 1.997 1.997 0 0 1-.604-.227 1.396 1.396 0 0 1-.448-.414 1.182 1.182 0 0 1-.199-.626l.752-.005c.007.136.05.25.13.345a.94.94 0 0 0 .293.228c.116.058.242.1.377.126.136.026.266.038.39.038.248-.002.457-.046.628-.132.17-.087.311-.206.422-.356a1.46 1.46 0 0 0 .24-.546c.049-.213.073-.446.072-.7l-.002-.3h-.018a1.263 1.263 0 0 1-.585.627 1.83 1.83 0 0 1-.835.204 2.013 2.013 0 0 1-.894-.18 1.868 1.868 0 0 1-.64-.497 2.127 2.127 0 0 1-.39-.732 3.024 3.024 0 0 1-.133-.888c-.001-.271.033-.55.102-.837.069-.287.185-.547.35-.78a1.94 1.94 0 0 1 .65-.58c.271-.151.604-.228 1-.231.288-.002.554.06.796.186.243.125.433.314.57.567h.009l-.004-.654.708-.004.024 4.184c.004.75-.164 1.31-.504 1.684M102.689 72.28a.941.941 0 0 1-.371.156c-.153.033-.314.06-.482.082-.168.022-.337.046-.508.073-.171.028-.324.07-.46.13a.83.83 0 0 0-.33.253c-.084.11-.126.258-.125.446 0 .123.026.227.077.312.05.085.115.153.195.205.08.053.173.09.28.114.106.023.218.033.336.033a1.79 1.79 0 0 0 .636-.105c.177-.069.321-.155.433-.258.11-.103.193-.215.245-.336a.839.839 0 0 0 .078-.34l-.004-.765zm1.234 2.337c-.13.078-.309.117-.539.118a.649.649 0 0 1-.465-.161c-.116-.108-.175-.286-.176-.534a1.8 1.8 0 0 1-.718.54 2.39 2.39 0 0 1-.888.168c-.207.001-.403-.022-.589-.068a1.354 1.354 0 0 1-.483-.218c-.136-.1-.245-.23-.325-.391a1.316 1.316 0 0 1-.123-.588c-.002-.26.042-.472.129-.638.087-.166.203-.3.347-.405.144-.103.309-.183.494-.237.185-.054.375-.1.57-.136.206-.042.402-.074.588-.096.185-.022.349-.052.49-.091a.821.821 0 0 0 .336-.17c.082-.074.122-.183.121-.324a.747.747 0 0 0-.095-.397.633.633 0 0 0-.24-.23.96.96 0 0 0-.328-.103 2.488 2.488 0 0 0-.358-.025c-.319.002-.584.064-.796.186-.211.122-.325.351-.34.687l-.753.005c.01-.283.068-.523.173-.718.106-.195.246-.354.422-.475.176-.122.378-.21.604-.265.227-.055.47-.083.73-.084.206-.001.411.013.615.04.204.03.389.088.554.179.166.09.299.217.4.381.102.164.153.38.154.644l.014 2.348c.001.177.012.306.033.388.021.083.09.124.209.123a.904.904 0 0 0 .23-.037l.003.584zM109.983 69.145c-.281-.201-.64-.301-1.076-.299-.178.002-.351.02-.522.057a1.39 1.39 0 0 0-.455.18.925.925 0 0 0-.317.333 1.025 1.025 0 0 0-.116.518c0 .195.06.352.175.472.116.12.27.218.462.294.192.076.41.138.652.187.242.048.488.101.74.16.25.057.497.124.74.203.241.078.459.184.651.319s.347.305.463.51c.116.206.175.465.177.778.002.336-.072.624-.22.864-.15.24-.342.435-.577.587a2.527 2.527 0 0 1-.79.332 3.814 3.814 0 0 1-1.875-.02 2.461 2.461 0 0 1-.834-.398 1.904 1.904 0 0 1-.57-.687c-.14-.28-.212-.61-.214-.994l.796-.004c.002.265.054.493.159.684.104.191.24.348.41.471.168.123.365.213.59.27.224.059.454.087.69.086.189-.001.379-.02.57-.057.192-.036.364-.098.517-.184a1.03 1.03 0 0 0 .37-.352c.093-.148.14-.337.138-.567a.794.794 0 0 0-.176-.53 1.275 1.275 0 0 0-.462-.329 3.343 3.343 0 0 0-.651-.204 205.62 205.62 0 0 1-.74-.16c-.25-.054-.497-.117-.74-.19a2.658 2.658 0 0 1-.652-.288 1.395 1.395 0 0 1-.462-.466c-.117-.191-.175-.431-.177-.72a1.68 1.68 0 0 1 .19-.829c.128-.233.3-.426.514-.578.214-.151.459-.265.732-.34.275-.076.556-.114.845-.116.324-.001.625.035.903.11s.522.195.732.359c.21.164.376.37.499.62.122.25.19.55.204.897l-.796.005c-.05-.453-.215-.782-.497-.984M114.213 70.002l.003.663-.91.005.015 2.84c0 .089.008.16.023.213a.217.217 0 0 0 .085.123c.042.03.1.048.173.056.074.009.17.013.288.012l.345-.002.004.663-.575.004a2.704 2.704 0 0 1-.5-.037.73.73 0 0 1-.338-.144.625.625 0 0 1-.192-.3c-.042-.129-.063-.3-.064-.513l-.017-2.91-.779.004-.004-.663.78-.005-.009-1.371.752-.005.008 1.372.912-.005zM115.548 69.994l.006.964h.018c.18-.372.403-.648.667-.826.265-.179.6-.263 1.007-.254l.005.796a2.13 2.13 0 0 0-.77.129 1.21 1.21 0 0 0-.51.366c-.13.16-.222.353-.28.58a3.123 3.123 0 0 0-.084.784l.012 2.035-.752.004-.026-4.574.707-.004zM118.154 73.01c.075.215.177.393.308.537a1.327 1.327 0 0 0 1.01.441c.196 0 .38-.04.554-.118.173-.077.324-.189.453-.334.13-.146.23-.326.302-.542.073-.215.109-.462.107-.74a2.278 2.278 0 0 0-.115-.737 1.592 1.592 0 0 0-.309-.542 1.305 1.305 0 0 0-.457-.334 1.37 1.37 0 0 0-.554-.112c-.195.001-.379.04-.552.118a1.301 1.301 0 0 0-.454.339c-.129.148-.23.33-.302.546a2.275 2.275 0 0 0-.106.74c.001.277.04.523.115.737m-.775-1.676c.092-.293.232-.547.42-.764.188-.216.42-.387.696-.512.276-.126.595-.19.954-.192.366-.002.686.058.961.18.275.123.508.291.698.505.19.215.333.467.429.759.096.291.145.605.147.942.002.336-.044.649-.137.938-.092.29-.232.543-.42.76a1.964 1.964 0 0 1-.691.507 2.367 2.367 0 0 1-.959.187 2.37 2.37 0 0 1-.957-.176 1.95 1.95 0 0 1-.702-.5 2.138 2.138 0 0 1-.428-.754 3.002 3.002 0 0 1-.147-.937c-.003-.337.043-.65.136-.943M123.086 69.95l.004.726h.018c.31-.556.803-.836 1.481-.84.301-.002.552.038.753.12.2.081.364.195.489.342.124.147.212.322.264.525.05.203.078.429.079.676l.017 3.008-.752.005-.018-3.097c-.001-.283-.085-.507-.251-.671-.166-.164-.394-.245-.683-.244-.23.002-.429.038-.597.11a1.122 1.122 0 0 0-.418.303c-.112.13-.195.283-.25.457a1.87 1.87 0 0 0-.08.571l.014 2.584-.752.004-.026-4.574.708-.004zM129.615 73.722a1.23 1.23 0 0 0 .418-.41 1.84 1.84 0 0 0 .231-.571c.05-.213.073-.425.072-.638-.001-.2-.026-.397-.074-.592a1.66 1.66 0 0 0-.229-.525 1.172 1.172 0 0 0-.405-.374 1.195 1.195 0 0 0-.602-.138 1.294 1.294 0 0 0-.619.14 1.2 1.2 0 0 0-.418.37 1.56 1.56 0 0 0-.236.533c-.049.2-.073.41-.071.628 0 .207.023.413.065.62.043.206.114.392.216.56.101.167.235.302.4.404.166.103.373.153.62.152.248-.002.459-.054.632-.159m.972 2.051c-.34.374-.876.563-1.607.567a3.1 3.1 0 0 1-.65-.067 1.997 1.997 0 0 1-.604-.227 1.4 1.4 0 0 1-.449-.413 1.183 1.183 0 0 1-.198-.627l.752-.004c.006.136.05.25.13.344a.94.94 0 0 0 .293.228c.116.059.241.101.377.127.136.026.266.038.39.037.247-.001.456-.045.627-.131.17-.087.312-.206.423-.357.111-.15.191-.333.24-.545.049-.213.073-.446.071-.7l-.001-.3h-.018a1.265 1.265 0 0 1-.585.627c-.262.134-.54.201-.835.204a2.02 2.02 0 0 1-.895-.18 1.868 1.868 0 0 1-.64-.497 2.131 2.131 0 0 1-.389-.732 3.027 3.027 0 0 1-.133-.889c-.002-.27.032-.55.101-.836.07-.287.186-.547.35-.781.164-.234.38-.427.651-.579.27-.152.604-.229.999-.231.288-.002.554.06.797.186.243.125.432.314.57.567h.009l-.004-.655.707-.004.024 4.185c.005.749-.163 1.31-.503 1.683M135.086 71.227a1.285 1.285 0 0 0-.685-.682c-.157-.067-.33-.1-.519-.099-.194.002-.37.036-.525.105-.156.069-.29.163-.4.281-.113.119-.2.256-.264.413a1.568 1.568 0 0 0-.112.5l2.627-.014a1.532 1.532 0 0 0-.122-.504m.198 2.936c-.34.262-.77.394-1.289.396a2.356 2.356 0 0 1-.952-.17 1.875 1.875 0 0 1-.68-.492 2.1 2.1 0 0 1-.416-.759 3.657 3.657 0 0 1-.16-.963 2.75 2.75 0 0 1 .154-.957c.104-.29.251-.54.442-.754a2.027 2.027 0 0 1 1.54-.682c.407-.002.745.08 1.015.247.269.167.485.379.65.638.163.258.276.54.34.847.064.306.09.598.08.875l-3.424.02c-.004.2.02.39.074.57a1.258 1.258 0 0 0 .713.805c.183.082.399.122.646.12.319 0 .58-.076.782-.225.203-.148.336-.373.399-.674l.743-.005c-.097.514-.317.902-.657 1.163M137.277 69.87l.005.964h.018c.18-.373.404-.648.668-.827.264-.178.6-.263 1.007-.254l.005.797c-.301.002-.558.044-.77.128a1.21 1.21 0 0 0-.51.366c-.13.16-.223.353-.28.58a3.123 3.123 0 0 0-.084.784l.011 2.035-.752.004-.026-4.573.708-.005zM142.602 68.096l.032 5.61 3.344-.02.004.708-4.185.024-.036-6.317zM147.186 69.813l.026 4.574-.752.004-.026-4.574.752-.004zm-.757-.819l-.005-.92.752-.004.005.92-.752.004zM147.72 70.473l-.004-.663.77-.005-.004-.681c-.002-.371.104-.654.319-.847.214-.193.527-.29.94-.292.07 0 .152.005.243.015.092.012.173.03.244.052l.004.655a.947.947 0 0 0-.213-.047 1.773 1.773 0 0 0-.213-.013c-.182.002-.324.038-.423.109-.1.072-.15.208-.148.408l.003.637.885-.005.004.663-.885.005.023 3.91-.753.005-.022-3.91-.77.004zM153.682 71.12a1.285 1.285 0 0 0-.685-.681c-.157-.067-.33-.1-.518-.1-.194.002-.37.037-.526.106-.155.068-.29.162-.4.28-.112.12-.2.257-.264.413a1.567 1.567 0 0 0-.112.5l2.628-.014a1.532 1.532 0 0 0-.123-.504m.199 2.937c-.341.261-.77.393-1.29.396a2.356 2.356 0 0 1-.952-.171 1.878 1.878 0 0 1-.68-.492 2.1 2.1 0 0 1-.415-.758 3.657 3.657 0 0 1-.16-.964c-.002-.348.049-.667.153-.956.105-.29.252-.541.443-.755a2.031 2.031 0 0 1 1.54-.681c.407-.002.744.08 1.014.246.27.167.485.38.65.638.163.258.277.541.34.848.064.306.09.598.08.875l-3.423.02c-.004.2.02.39.074.57a1.253 1.253 0 0 0 .712.805c.184.082.4.122.647.12.318-.001.579-.077.782-.225.202-.149.335-.374.398-.675l.743-.004c-.097.513-.316.901-.656 1.163M161.234 74.306l-.95-3.63h-.017l-.9 3.64-.814.006-1.494-4.566.832-.005 1.056 3.737h.018l.898-3.748.823-.005.977 3.738h.018l1.004-3.75.78-.003-1.435 4.582zM164.8 69.712l.026 4.574-.752.004-.026-4.574.752-.004zm-.757-.819l-.005-.92.752-.004.005.92-.752.004zM167.746 69.695l.004.663-.911.006.016 2.84c0 .088.008.159.023.212a.219.219 0 0 0 .085.123c.042.03.099.048.173.057.073.008.17.012.287.011l.345-.002.004.664-.575.003a2.704 2.704 0 0 1-.5-.037.73.73 0 0 1-.337-.144.624.624 0 0 1-.192-.3 1.742 1.742 0 0 1-.065-.512l-.016-2.911-.78.005-.003-.664.779-.005-.008-1.37.752-.005.008 1.371.911-.005zM169.143 67.944l.013 2.415h.018a.996.996 0 0 1 .246-.36 1.4 1.4 0 0 1 .357-.24c.132-.063.27-.11.415-.14.144-.03.284-.046.42-.047.3-.002.551.039.752.12.201.081.364.195.49.342.124.147.211.322.263.525.051.203.078.429.08.676l.016 3.008-.751.005-.018-3.097c-.002-.283-.086-.506-.252-.67-.166-.165-.394-.246-.683-.244-.23 0-.428.037-.596.109a1.123 1.123 0 0 0-.419.303c-.111.13-.194.283-.25.457a1.843 1.843 0 0 0-.08.572l.015 2.583-.752.004-.037-6.317.753-.004zM176.38 67.902l.015 2.717 3.327-.02-.016-2.715.84-.005.037 6.317-.84.004-.017-2.893-3.326.02.016 2.892-.84.005-.037-6.317zM183.462 74.79a4.772 4.772 0 0 1-.258.567c-.085.154-.179.28-.281.378a.958.958 0 0 1-.344.214 1.326 1.326 0 0 1-.437.07c-.089 0-.177-.006-.266-.017a1.226 1.226 0 0 1-.257-.061l-.004-.69a1.269 1.269 0 0 0 .443.104.644.644 0 0 0 .384-.113.682.682 0 0 0 .233-.315l.305-.772-1.84-4.537.85-.005 1.357 3.735h.018l1.261-3.75.797-.005-1.961 5.196zM189.373 71.195a1.692 1.692 0 0 0-.26-.543 1.258 1.258 0 0 0-.444-.378 1.35 1.35 0 0 0-.633-.138 1.292 1.292 0 0 0-.645.154c-.177.101-.32.233-.431.396a1.646 1.646 0 0 0-.24.555 2.649 2.649 0 0 0 .011 1.278c.055.21.14.393.256.552.116.158.265.286.448.382.184.096.405.144.665.142.26-.001.476-.053.65-.154.172-.101.312-.235.417-.4.106-.166.18-.355.227-.568.046-.213.068-.431.067-.655 0-.213-.03-.42-.088-.623zm-2.712-1.608l.004.619h.018c.122-.254.316-.44.58-.557a2.18 2.18 0 0 1 .875-.177c.354-.002.663.061.926.19.263.128.482.302.658.522.175.22.307.475.398.763.09.288.136.595.137.92.003.324-.038.63-.122.92-.084.29-.213.543-.385.759-.173.216-.39.387-.652.512s-.567.19-.915.191a2.25 2.25 0 0 1-.788-.146 1.609 1.609 0 0 1-.386-.214 1.21 1.21 0 0 1-.307-.339h-.018l.014 2.354-.752.004-.036-6.317.751-.004zM191.629 72.588c.075.216.177.394.308.538a1.327 1.327 0 0 0 1.01.441c.195 0 .38-.04.553-.118.173-.077.325-.189.454-.334.129-.146.23-.326.302-.542.072-.215.108-.462.106-.74a2.278 2.278 0 0 0-.114-.737 1.599 1.599 0 0 0-.309-.542 1.307 1.307 0 0 0-.457-.334 1.367 1.367 0 0 0-.554-.112c-.195.001-.379.04-.552.118a1.301 1.301 0 0 0-.454.339c-.129.148-.23.33-.302.546a2.275 2.275 0 0 0-.106.739c.001.278.04.523.115.738m-.775-1.676c.092-.293.232-.547.42-.764.188-.216.42-.387.696-.512.276-.126.594-.19.954-.192.366-.002.686.058.961.18.275.123.507.291.698.505.19.215.332.467.429.759.096.291.145.605.147.942.001.336-.044.649-.137.938-.092.29-.233.543-.42.76a1.97 1.97 0 0 1-.692.507 2.365 2.365 0 0 1-.958.187 2.37 2.37 0 0 1-.957-.176 1.95 1.95 0 0 1-.702-.5 2.138 2.138 0 0 1-.429-.754 3.002 3.002 0 0 1-.147-.937c-.002-.337.044-.65.137-.943M199.344 71.137a1.69 1.69 0 0 0-.26-.542 1.258 1.258 0 0 0-.444-.378 1.339 1.339 0 0 0-.634-.138 1.292 1.292 0 0 0-.644.154c-.177.102-.321.234-.432.396a1.64 1.64 0 0 0-.24.554 2.649 2.649 0 0 0 .012 1.28c.054.208.14.392.255.55.116.16.266.286.449.383.183.096.405.143.664.142.26-.002.476-.053.65-.154.173-.101.312-.235.418-.4.105-.167.18-.355.227-.568.046-.213.068-.431.067-.655-.001-.213-.03-.42-.088-.624zm-2.712-1.608l.003.62h.018c.122-.254.316-.44.58-.557.266-.116.557-.175.876-.177.354-.002.662.06.926.189.263.128.482.303.657.523.175.22.308.474.398.763.09.288.136.595.138.92.002.324-.039.63-.123.92-.084.29-.212.543-.385.759-.172.216-.39.387-.652.512a2.121 2.121 0 0 1-.914.19 2.206 2.206 0 0 1-.789-.145 1.595 1.595 0 0 1-.386-.214 1.21 1.21 0 0 1-.307-.34h-.017l.013 2.354-.752.005-.036-6.317.752-.005zM201.665 67.758l.014 2.415h.018a1 1 0 0 1 .245-.36c.106-.098.225-.178.357-.24.133-.063.27-.11.415-.14.144-.03.284-.046.42-.047.3-.002.551.038.752.12.201.081.365.195.489.342.125.147.213.321.264.525.051.203.078.429.08.676l.017 3.008-.753.004-.017-3.096c-.002-.283-.086-.507-.252-.67-.166-.165-.394-.246-.683-.245-.23.002-.428.038-.596.11a1.118 1.118 0 0 0-.418.303c-.112.13-.195.283-.25.457a1.848 1.848 0 0 0-.08.571l.014 2.583-.752.005-.036-6.317.752-.004zM206.341 72.504c.075.215.178.394.308.538a1.35 1.35 0 0 0 1.01.441c.196-.001.38-.04.554-.118.174-.078.325-.19.454-.335.129-.145.23-.325.302-.541.072-.215.108-.462.106-.74a2.276 2.276 0 0 0-.115-.737 1.594 1.594 0 0 0-.308-.543 1.305 1.305 0 0 0-.457-.334 1.362 1.362 0 0 0-.554-.111c-.195 0-.38.04-.552.118a1.306 1.306 0 0 0-.454.338c-.13.15-.23.33-.303.546a2.277 2.277 0 0 0-.105.74c0 .277.04.523.114.738m-.775-1.676c.093-.293.233-.548.42-.764a2 2 0 0 1 .697-.513c.276-.125.594-.189.954-.19.366-.003.686.057.961.18a2.018 2.018 0 0 1 1.126 1.262c.097.292.145.606.147.942.003.336-.043.65-.136.939-.093.29-.232.542-.42.759a1.965 1.965 0 0 1-.691.508 2.375 2.375 0 0 1-.96.186 2.37 2.37 0 0 1-.956-.175 1.946 1.946 0 0 1-.702-.5 2.138 2.138 0 0 1-.429-.755 2.998 2.998 0 0 1-.147-.936c-.002-.337.044-.651.136-.943M211.162 72.998a.802.802 0 0 0 .28.273c.115.067.245.115.39.144.144.028.294.043.447.041.118 0 .242-.01.371-.028.13-.018.249-.052.358-.1a.671.671 0 0 0 .269-.21.555.555 0 0 0 .104-.35.5.5 0 0 0-.224-.44c-.148-.1-.333-.18-.554-.24a8.998 8.998 0 0 0-.722-.164c-.26-.049-.5-.118-.722-.208a1.49 1.49 0 0 1-.556-.382c-.148-.164-.223-.394-.225-.69-.001-.23.05-.427.152-.593.102-.165.234-.3.396-.404.161-.104.344-.182.547-.234.203-.05.405-.077.605-.078.26-.002.499.019.718.062.218.043.411.119.58.226.169.109.304.256.405.44.102.186.162.417.18.694l-.75.005a.768.768 0 0 0-.118-.367.756.756 0 0 0-.249-.233c-.1-.058-.211-.1-.332-.126a1.72 1.72 0 0 0-.368-.038c-.112 0-.225.01-.34.028-.115.019-.22.05-.314.095a.629.629 0 0 0-.229.178.445.445 0 0 0-.087.288c0 .13.047.237.14.323.091.085.208.154.35.21.142.055.302.101.479.139.177.037.354.076.531.116.189.04.373.09.554.147.18.058.34.135.479.232.139.096.252.218.338.365.086.147.13.33.132.548.001.278-.055.508-.17.691a1.345 1.345 0 0 1-.448.445 1.895 1.895 0 0 1-.627.238c-.232.046-.464.07-.693.07a3.22 3.22 0 0 1-.727-.075 1.776 1.776 0 0 1-.611-.258 1.33 1.33 0 0 1-.428-.474 1.664 1.664 0 0 1-.181-.72l.752-.005a.85.85 0 0 0 .118.42M218.303 71.029a1.696 1.696 0 0 0-.26-.543 1.257 1.257 0 0 0-.444-.378 1.344 1.344 0 0 0-.633-.138 1.292 1.292 0 0 0-.645.154c-.177.102-.32.234-.431.397a1.64 1.64 0 0 0-.24.554 2.649 2.649 0 0 0 .011 1.278c.054.21.14.393.255.552.116.159.266.286.45.382.183.097.404.144.663.142.26-.001.477-.053.65-.154.173-.1.313-.234.418-.4.105-.166.18-.355.227-.568.046-.212.068-.43.067-.655-.001-.212-.03-.42-.088-.623zm-2.712-1.608l.004.62h.017c.123-.255.317-.441.581-.557a2.18 2.18 0 0 1 .875-.178c.354-.002.662.061.926.19.263.128.482.302.658.522.175.22.307.475.398.763.09.289.136.595.137.92.002.324-.039.631-.122.92-.085.29-.213.543-.386.76-.172.216-.39.387-.651.511-.262.126-.567.19-.915.191a2.206 2.206 0 0 1-.788-.145 1.595 1.595 0 0 1-.386-.215 1.21 1.21 0 0 1-.307-.339h-.018l.013 2.354-.752.004-.036-6.317.752-.004zM220.624 67.649l.014 2.415h.018c.058-.142.14-.261.245-.36a1.41 1.41 0 0 1 .357-.24c.133-.063.27-.11.415-.14.145-.03.285-.046.42-.047.301-.002.552.039.753.12.2.081.364.195.489.342.124.147.212.322.264.525.05.203.077.429.079.676l.017 3.008-.752.004-.018-3.096c-.001-.283-.085-.507-.251-.67-.167-.165-.394-.246-.683-.244-.23 0-.43.037-.597.109a1.124 1.124 0 0 0-.418.303c-.112.13-.195.283-.25.457a1.858 1.858 0 0 0-.08.572l.014 2.582-.752.005-.036-6.317.752-.004zM227.468 71.565a.943.943 0 0 1-.371.156c-.153.033-.314.06-.481.082-.168.022-.338.046-.509.073a1.911 1.911 0 0 0-.46.13.836.836 0 0 0-.33.253c-.084.11-.126.258-.125.446 0 .123.026.227.077.312.05.085.116.153.196.205.08.053.173.09.28.113.105.024.217.034.336.034.247-.002.46-.036.636-.105.177-.068.32-.155.432-.258a1.01 1.01 0 0 0 .246-.336.847.847 0 0 0 .078-.34l-.005-.765zm1.235 2.337c-.13.078-.31.117-.54.118a.646.646 0 0 1-.465-.161c-.116-.108-.174-.287-.176-.534a1.802 1.802 0 0 1-.718.54 2.39 2.39 0 0 1-.888.168c-.206.001-.403-.022-.589-.067a1.369 1.369 0 0 1-.483-.219c-.136-.1-.245-.23-.325-.391a1.325 1.325 0 0 1-.123-.588c-.002-.26.041-.472.13-.638.087-.166.202-.3.346-.405.144-.104.309-.183.494-.237.186-.054.376-.1.57-.136.206-.042.403-.074.588-.096.186-.022.349-.052.49-.091a.818.818 0 0 0 .336-.17c.082-.075.123-.183.122-.324a.747.747 0 0 0-.096-.398.633.633 0 0 0-.24-.228.96.96 0 0 0-.327-.104 2.484 2.484 0 0 0-.359-.025c-.318.002-.584.064-.795.186-.212.122-.325.351-.341.687l-.752.005c.01-.283.067-.523.172-.718.106-.195.246-.354.422-.475.176-.122.378-.21.605-.265.227-.055.47-.083.73-.084.206-.001.41.013.614.04.204.03.389.088.555.179.165.09.299.217.4.381.101.165.152.38.154.644l.013 2.348c.001.177.012.306.034.388.02.083.09.124.208.123a.901.901 0 0 0 .23-.037l.004.584zM231.153 69.332l.004.663-.911.005.016 2.84c0 .089.009.16.023.213a.217.217 0 0 0 .085.123.37.37 0 0 0 .173.056c.074.009.17.013.288.012l.345-.002.003.663-.575.004a2.702 2.702 0 0 1-.5-.037.734.734 0 0 1-.337-.144.621.621 0 0 1-.192-.3c-.042-.129-.064-.3-.065-.513l-.016-2.91-.779.004-.004-.664.779-.004-.008-1.371.752-.005.008 1.372.911-.005zM234.872 70.655a1.285 1.285 0 0 0-.685-.682c-.157-.067-.33-.1-.518-.098-.194 0-.37.036-.526.104-.155.069-.289.163-.4.281-.112.119-.2.257-.264.413a1.567 1.567 0 0 0-.112.5l2.628-.014a1.533 1.533 0 0 0-.123-.504m.199 2.937c-.341.26-.77.393-1.29.396a2.349 2.349 0 0 1-.952-.172 1.876 1.876 0 0 1-.68-.491 2.103 2.103 0 0 1-.415-.759 3.657 3.657 0 0 1-.16-.963 2.747 2.747 0 0 1 .153-.957 2.29 2.29 0 0 1 .443-.754 2.036 2.036 0 0 1 1.54-.681c.407-.003.745.08 1.014.246.27.167.486.38.65.638.163.258.277.541.34.848.064.306.091.597.08.875l-3.423.02c-.004.2.02.39.074.57a1.261 1.261 0 0 0 .712.805c.184.082.4.121.647.12.318-.001.579-.077.782-.226.202-.148.335-.373.399-.674l.743-.004c-.098.513-.317.9-.657 1.163M237.09 69.298l.004.672h.017c.34-.521.83-.784 1.473-.787.284-.002.54.055.772.172.23.117.393.317.49.6.151-.25.352-.442.603-.58.249-.137.524-.206.825-.208.23-.001.439.023.624.072.187.05.347.126.48.232.133.105.236.242.31.41.077.167.115.369.116.605l.019 3.353-.752.004-.017-2.999c-.001-.142-.014-.274-.038-.398a.815.815 0 0 0-.134-.322.672.672 0 0 0-.271-.215 1.08 1.08 0 0 0-.448-.078c-.371.003-.663.11-.874.324-.211.214-.316.497-.314.851l.017 2.849-.752.005-.017-3a1.95 1.95 0 0 0-.043-.407.867.867 0 0 0-.139-.322.642.642 0 0 0-.262-.21 1.02 1.02 0 0 0-.42-.073 1.12 1.12 0 0 0-.562.136 1.274 1.274 0 0 0-.653 1.038l.016 2.85-.752.003-.026-4.573.708-.004zM244.548 69.255l.026 4.573-.751.005-.027-4.574.752-.004zm-.757-.819l-.005-.92.752-.004.005.92-.752.004zM248.383 71.445a.943.943 0 0 1-.37.156c-.154.033-.315.06-.482.082-.169.022-.338.046-.509.073-.171.028-.324.071-.46.13a.836.836 0 0 0-.33.253c-.085.11-.126.258-.125.446 0 .123.026.227.077.312.05.085.115.153.196.206.08.052.173.09.279.113.106.023.218.034.336.033.248-.002.46-.037.637-.105s.32-.155.432-.258c.111-.103.193-.215.245-.336a.84.84 0 0 0 .079-.34l-.005-.765zm1.234 2.337c-.13.078-.31.117-.54.118a.646.646 0 0 1-.464-.16c-.116-.109-.174-.287-.176-.535a1.801 1.801 0 0 1-.718.54c-.273.11-.57.166-.888.168-.207.001-.403-.022-.589-.067a1.365 1.365 0 0 1-.483-.219c-.136-.099-.245-.23-.325-.391a1.327 1.327 0 0 1-.123-.588c-.002-.26.042-.472.13-.638.087-.165.202-.3.346-.405.144-.103.308-.183.494-.237.186-.054.376-.1.57-.136.206-.042.402-.074.588-.096.185-.022.35-.052.49-.091a.813.813 0 0 0 .336-.17c.082-.074.122-.182.122-.324a.747.747 0 0 0-.096-.397.636.636 0 0 0-.24-.229.963.963 0 0 0-.327-.104 2.486 2.486 0 0 0-.36-.025c-.317.002-.583.064-.794.186-.212.122-.325.351-.342.688l-.751.004c.01-.283.067-.522.172-.718.106-.195.246-.353.422-.475a1.78 1.78 0 0 1 .605-.265c.227-.054.47-.082.73-.084.205-.001.411.013.615.04.203.03.388.088.554.179.165.09.298.217.4.381.1.165.152.38.154.644l.013 2.348c0 .177.012.307.033.389.021.082.09.123.209.122a.901.901 0 0 0 .23-.037l.003.584z"/>
    </g>
</svg>
