<?xml version="1.0" encoding="utf-8"?>
<!-- Generator: Adobe Illustrator 16.0.0, SVG Export Plug-In . SVG Version: 6.00 Build 0)  -->
<!DOCTYPE svg PUBLIC "-//W3C//DTD SVG 1.1//EN" "http://www.w3.org/Graphics/SVG/1.1/DTD/svg11.dtd">
<svg version="1.1" id="Layer_1" xmlns="http://www.w3.org/2000/svg" xmlns:xlink="http://www.w3.org/1999/xlink" x="0px" y="0px"
	 width="200px" height="150px" viewBox="0 0 200 150" enable-background="new 0 0 200 150" xml:space="preserve">
<g>
	<path fill="#AFAFAF" d="M78.334,82.327c-0.869,1.219-2.043,2.174-3.523,2.868c-1.481,0.69-3.077,1.039-4.787,1.039
		c-3.185,0-5.837-1.059-7.955-3.17c-2.12-2.113-3.178-4.724-3.178-7.824c0-3.154,1.082-5.792,3.246-7.91
		c2.166-2.12,4.873-3.18,8.125-3.18c1.67,0,3.203,0.33,4.599,0.991c1.378,0.648,2.572,1.631,3.473,2.86v-3.394l2.735-0.001v21.089
		h-2.735V82.327z M78.334,75.01c0-2.229-0.823-4.174-2.47-5.835c-1.647-1.663-3.545-2.494-5.692-2.494
		c-2.331,0-4.318,0.831-5.958,2.494c-1.64,1.66-2.46,3.72-2.46,6.179c0,2.344,0.817,4.32,2.45,5.932
		c1.633,1.61,3.598,2.415,5.889,2.415c2.213,0,4.14-0.85,5.781-2.551C77.513,79.451,78.334,77.405,78.334,75.01L78.334,75.01z
		 M10,64.606h2.734v11.199c0,2.873,0.481,4.91,1.441,6.104s2.54,1.793,4.738,1.793c1.25,0,2.348-0.246,3.296-0.74
		c0.945-0.487,1.737-1.228,2.29-2.136c0.33-0.551,0.566-1.198,0.71-1.945c0.144-0.748,0.217-2.05,0.217-3.903V64.606h2.778v21.089
		h-2.778v-2.281c-0.842,0.992-1.782,1.709-2.82,2.152c-1.04,0.444-2.296,0.668-3.768,0.668c-3.13,0-5.386-0.82-6.767-2.461
		C10.69,82.134,10,79.414,10,75.609V64.606z M31.319,85.693h2.778V49.787h-2.778V85.693z M40.844,85.693V67.345h-4.145v-2.74h4.145
		v-6.848h2.778v6.848h4.145v2.74h-4.145v18.351L40.844,85.693z M53.187,85.693h-2.82V64.605h2.623v2.426
		c0.683-0.938,1.43-1.627,2.238-2.063c0.809-0.437,1.752-0.668,2.832-0.695l0.018,2.948c-1.75,0.153-3.001,0.662-3.757,1.526
		c-0.756,0.863-1.134,2.266-1.134,4.21V85.693z M88.121,87.438c0.396,1.201,1.207,2.22,2.288,2.873
		c1.102,0.687,2.442,1.029,4.02,1.029c2.468,0,4.45-0.802,5.94-2.404c1.49-1.604,2.236-3.744,2.236-6.424v-0.556
		c-1.054,1.399-2.25,2.456-3.59,3.168c-1.342,0.711-2.821,1.067-4.44,1.067c-3.264,0-5.972-1.059-8.131-3.176
		c-2.158-2.115-3.236-4.755-3.236-7.915c0-3.108,1.065-5.718,3.196-7.828c2.13-2.11,4.769-3.166,7.914-3.166
		c1.828,0,3.41,0.32,4.746,0.962c1.335,0.642,2.515,1.643,3.54,3.002v-3.467h2.74v17.6c0,3.687-0.949,6.563-2.851,8.64
		c-1.903,2.073-4.525,3.11-7.867,3.11c-2.461,0-4.573-0.593-6.338-1.772c-1.763-1.183-2.901-2.764-3.414-4.744H88.121L88.121,87.438
		z M86.156,74.985c0,2.464,0.805,4.526,2.42,6.186c1.612,1.66,3.558,2.49,5.834,2.49c2.146,0,4.043-0.833,5.687-2.5
		c1.647-1.665,2.469-3.622,2.469-5.869c0-2.4-0.812-4.448-2.43-6.147c-1.619-1.697-3.527-2.547-5.726-2.547
		c-2.265,0-4.206,0.807-5.825,2.423C86.965,70.636,86.155,72.624,86.156,74.985L86.156,74.985z M130.705,76.021h-19.613
		c0.17,2.293,1.027,4.146,2.567,5.561c1.544,1.413,3.465,2.12,5.772,2.12c1.633,0,3.101-0.41,4.403-1.229
		c1.304-0.82,2.312-1.959,3.022-3.421h3.164c-1.002,2.325-2.404,4.11-4.215,5.356c-1.81,1.246-3.906,1.867-6.287,1.867
		c-3.158,0-5.83-1.092-8.016-3.277c-2.186-2.184-3.277-4.811-3.277-7.876c0-3.207,1.069-5.86,3.207-7.954
		c2.14-2.094,4.871-3.143,8.199-3.143c3.264,0,5.922,1.092,7.983,3.277c2.058,2.184,3.087,5.024,3.087,8.521v0.198H130.705z
		 M127.629,73.655c-0.527-2.354-1.495-4.123-2.904-5.313c-1.408-1.19-3.248-1.785-5.513-1.785c-2.106,0-3.894,0.64-5.354,1.918
		c-1.463,1.279-2.355,3.005-2.688,5.18L127.629,73.655L127.629,73.655z M152.775,64.606h3.189l6.715,17.121l7.027-17.121h3.24
		l-11.73,27.896h-2.98l2.902-6.859L152.775,64.606z M149.018,73.88v11.897h2.735v-11.11c0-1.979-0.11-3.476-0.326-4.492
		c-0.218-1.014-0.579-1.899-1.079-2.652c-0.726-1.072-1.714-1.896-2.959-2.47c-1.246-0.575-2.666-0.862-4.262-0.862
		c-1.449,0-2.74,0.229-3.865,0.686c-1.129,0.458-2.121,1.165-2.979,2.118v-2.389h-2.692v21.087h2.692V75.434
		c0-1.829,0.068-3.11,0.21-3.846c0.122-0.693,0.366-1.358,0.722-1.966c0.54-0.907,1.327-1.643,2.27-2.12
		c0.955-0.491,2.066-0.737,3.336-0.737c2.166,0,3.74,0.562,4.724,1.687C148.525,69.578,149.018,71.386,149.018,73.88
		 M173.105,64.606l5.625,8.796l1.845-1.956l-4.345-6.84H173.105z M183.534,75.749l-1.667,2.3l4.847,7.646h3.166L183.534,75.749z"/>
	<path fill="#AFAFAF" d="M186.465,41.115c-0.127-0.143-0.346-0.155-0.488-0.027c-0.009,0.008-0.017,0.016-0.023,0.024
		c-0.146,0.15-0.164,0.398-0.067,0.595c5.99,12.205-1.202,22.575-8.353,33.01c-3.307,4.823-4.045,5.604-5.582,7.793
		c-10.458,14.881-4.104,25.577-4.012,25.663c0.14,0.132,0.357,0.124,0.488-0.016c0.002-0.001,0.002-0.001,0.002-0.002
		c0.141-0.14,0.17-0.376,0.086-0.567c-4.982-11.25,3.95-21.379,9.66-29.264c1.979-2.732,2.357-3.026,4.573-6.506
		C195.052,52.494,186.586,41.243,186.465,41.115 M81.985,98.58v1.018c0.466-0.769,1.505-1.146,2.36-1.146
		c0.865,0,1.666,0.336,2.425,1.146c0.355,0.324,0.702,1.104,0.702,1.969c0,1.765-1.482,3.074-3.202,3.074
		c-0.877,0-1.851-0.423-2.241-1.244v3.181h-0.801V98.58H81.985z M86.672,101.557c0.002-1.289-1.04-2.334-2.328-2.338
		c-1.299,0-2.37,0.963-2.37,2.272c0,0.649,0.164,1.19,0.63,1.655c0.438,0.463,1.048,0.725,1.686,0.725
		C85.612,103.871,86.672,102.887,86.672,101.557L86.672,101.557z M88.283,96.502h0.802v2.934c0.345-0.648,1.081-0.984,1.795-0.984
		c0.769,0,1.515,0.322,2.024,0.908c0.508,0.584,0.618,1.268,0.618,2.022v3.118H92.72v-3.118c0-0.519-0.044-0.983-0.346-1.416
		c-0.346-0.487-0.93-0.747-1.525-0.747c-0.553,0-1.126,0.281-1.463,0.725c-0.3,0.41-0.3,0.94-0.3,1.439v3.117h-0.803V96.502z
		 M100.587,104.5H99.82v-1.116c-0.455,0.833-1.364,1.257-2.295,1.257c-0.888,0-1.85-0.391-2.608-1.257
		c-0.217-0.237-0.585-0.983-0.585-1.882c0-0.79,0.4-1.602,0.618-1.796c0.897-0.963,1.73-1.255,2.555-1.255
		c0.93,0,1.87,0.41,2.315,1.255V98.58h0.767V104.5z M95.135,101.566c0,1.3,1.124,2.306,2.39,2.306c1.233,0,2.295-1.06,2.295-2.295
		c0-1.308-0.997-2.358-2.315-2.358C96.205,99.219,95.135,100.257,95.135,101.566z M101.626,98.58h0.758v0.855
		c0.313-0.705,0.994-0.963,1.72-0.985v0.79c-0.432,0.031-0.735,0.13-1.069,0.41c-0.554,0.467-0.606,0.867-0.606,1.537v3.313h-0.8
		L101.626,98.58L101.626,98.58z M104.859,98.58h0.759v0.77c0.29-0.619,0.92-0.898,1.58-0.898c0.778,0,1.437,0.324,1.915,0.898
		l0.15,0.228l0.119-0.228c0.41-0.574,1.182-0.898,1.871-0.898c0.641,0,1.258,0.313,1.842,0.898c0.475,0.477,0.553,1.08,0.553,1.773
		v3.377h-0.803v-3.3c0-0.433-0.031-0.909-0.291-1.277c-0.326-0.454-0.789-0.703-1.344-0.703c-0.509,0-1.018,0.259-1.311,0.671
		c-0.26,0.368-0.25,0.877-0.25,1.311v3.301h-0.799v-3.388c0-0.443-0.021-0.79-0.281-1.181c-0.303-0.438-0.799-0.705-1.33-0.714
		c-0.499,0-0.997,0.218-1.301,0.628c-0.271,0.389-0.279,0.812-0.279,1.267v3.388h-0.803V98.58H104.859z M120.713,104.5h-0.768
		v-1.116c-0.455,0.833-1.365,1.257-2.295,1.257c-0.887,0-1.852-0.391-2.607-1.257c-0.217-0.237-0.586-0.983-0.586-1.882
		c0-0.79,0.4-1.602,0.619-1.796c0.896-0.963,1.73-1.255,2.553-1.255c0.932,0,1.871,0.41,2.316,1.255V98.58h0.768V104.5z
		 M115.26,101.566c0,1.3,1.124,2.306,2.391,2.306c1.233,0,2.295-1.06,2.295-2.295c0-1.308-0.997-2.358-2.315-2.358
		C116.33,99.219,115.26,100.257,115.26,101.566z M127.639,102.768c-0.529,1.158-1.601,1.873-2.88,1.873
		c-1.763,0-3.233-1.3-3.233-3.104c0-1.754,1.492-3.085,3.203-3.085c1.254,0,2.467,0.734,2.922,1.926h-0.897
		c-0.424-0.71-1.187-1.146-2.015-1.157c-1.309,0-2.412,0.974-2.412,2.306c-0.012,1.285,1.021,2.336,2.305,2.348
		c0.016,0,0.028,0,0.043,0c0.92,0,1.561-0.377,2.079-1.104h0.886V102.768z M129.001,101.826c0.044,1.126,1.136,2.046,2.229,2.046
		c0.877,0,1.765-0.488,2.123-1.3h0.832c-0.412,1.188-1.623,2.066-2.879,2.066c-1.699,0.018-3.091-1.348-3.106-3.046
		c-0.001-0.017-0.001-0.032,0-0.049c-0.015-1.696,1.351-3.082,3.048-3.096c0.012,0,0.023,0,0.037,0c0.93,0,1.785,0.423,2.38,1.147
		c0.552,0.68,0.672,1.375,0.692,2.229L129.001,101.826L129.001,101.826z M133.559,101.102c-0.205-1.05-1.17-1.884-2.264-1.884
		c-1.113,0-2.098,0.79-2.294,1.884H133.559z M140.354,104.5h-0.758v-0.92c-0.39,0.757-1.137,1.061-1.957,1.061
		c-0.76,0-1.408-0.271-2.078-1.061c-0.357-0.38-0.422-1.094-0.422-1.873V98.58h0.799v3.127c0,0.455,0.021,0.91,0.263,1.311
		c0.323,0.563,0.896,0.854,1.546,0.854c0.57,0.003,1.109-0.267,1.449-0.726c0.304-0.422,0.356-0.931,0.356-1.439V98.58h0.802V104.5z
		 M142.074,99.305h-1.233v-0.726h1.233v-2.077h0.801v2.077h1.374v0.726h-1.374v5.194h-0.8L142.074,99.305z M144.736,97.865h0.802
		v-1.363h-0.802V97.865z M144.736,104.5h0.802v-5.92h-0.802V104.5z M152.463,102.768c-0.531,1.158-1.602,1.873-2.88,1.873
		c-1.763,0-3.235-1.3-3.235-3.104c0-1.754,1.494-3.085,3.204-3.085c1.255,0,2.468,0.734,2.921,1.926h-0.897
		c-0.425-0.71-1.187-1.146-2.013-1.157c-1.31,0-2.414,0.974-2.414,2.306c-0.012,1.285,1.021,2.336,2.308,2.348
		c0.015,0,0.028,0,0.043,0c0.918,0,1.558-0.377,2.076-1.104h0.888V102.768z M159.279,104.5h-0.766v-1.116
		c-0.457,0.833-1.365,1.257-2.297,1.257c-0.889,0-1.85-0.391-2.607-1.257c-0.215-0.237-0.584-0.983-0.584-1.882
		c0-0.79,0.398-1.602,0.617-1.796c0.896-0.963,1.729-1.255,2.555-1.255c0.93,0,1.871,0.41,2.316,1.255V98.58h0.766V104.5
		L159.279,104.5z M153.827,101.566c0,1.3,1.124,2.306,2.391,2.306c1.233,0,2.296-1.06,2.296-2.295c0-1.308-0.998-2.358-2.315-2.358
		C154.896,99.219,153.827,100.257,153.827,101.566L153.827,101.566z M160.318,104.5h0.8v-7.998h-0.8V104.5z"/>
</g>
</svg>
