<?xml version="1.0" encoding="utf-8"?>
<!-- Generator: Adobe Illustrator 16.0.0, SVG Export Plug-In . SVG Version: 6.00 Build 0)  -->
<!DOCTYPE svg PUBLIC "-//W3C//DTD SVG 1.1//EN" "http://www.w3.org/Graphics/SVG/1.1/DTD/svg11.dtd">
<svg version="1.1" id="Layer_1" xmlns="http://www.w3.org/2000/svg" xmlns:xlink="http://www.w3.org/1999/xlink" x="0px" y="0px"
	 width="140px" height="70px" viewBox="0 0 140 70" enable-background="new 0 0 140 70" xml:space="preserve">
<g>
	<path fill="#AFAFAF" d="M93.219,34.834c3.471,0,9.643,0.647,9.643,1.678c0,1.154-4.362,2.768-6.299,3.547
		c-1.104,0.445-0.664,0.717,0.101,0.717c0.767,0,33.291,1.873,33.139,8.164h-14.338c0.306-1.834,1.317-4.026-17.603-5.627
		c-15.69-1.328,2.093-5.086,2.377-6.353c0.154-0.687-0.897-1.654-12.122-1.392C91.025,35.254,93.219,34.834,93.219,34.834
		 M13.575,9.232l-2.03-1.353l9.082,18.067L10,46.814l3.092-1.063l9.95-19.42L13.575,9.232z M49.346,11.55l-2.029-1.642v29.467
		l-0.096,2.393l2.222-1.136L49.346,11.55z M75.529,12.71l-1.74-1.063l0.29,26.569l1.933-0.942L75.529,12.71z M92.895,13.87
		l-0.869-0.484v21.352l1.631-0.29L92.895,13.87z"/>
	<path fill="#AFAFAF" d="M49.129,9.618l12.27,0.677l0.386,21.158l10.918-0.58l0.193,7.15l-23.478,3.091L49.129,9.618z M75.505,11.26
		l12.366,0.677v8.019c0,0,5.314,0.58,5.12,0c-0.192-0.58,0-7.633,0-7.633l12.368,0.87l0.289,20.579l-12.366,1.352V27.01
		l-5.024,0.193l-0.193,8.502l-12.174,2.029L75.505,11.26L75.505,11.26z M13.092,7.396l13.042,0.87l4.348,9.95l4.058-9.274
		l12.367,0.483l-9.082,16.038l10.048,15.844c0,0-12.946,1.838-13.043,1.45c-0.097-0.387-4.734-9.469-4.734-9.469l-4.348,10.628
		l-12.463,1.643l9.565-19.419L13.092,7.396z M11.758,49.298h2.76l8.417,9.047h0.051v-9.047h2.078v11.236h-2.79l-8.621-9.24h-0.051
		v9.24h-1.844V49.298z M28.542,49.49h8.238v1.174h-6.457v3.3h5.91v1.172h-5.91v3.646h6.457v1.173h-8.238V49.49z M43.682,50.47
		h-4.934v-1.173h11.685v1.173h-4.97v9.558h-1.78L43.682,50.47z M82.461,58.643c3.393,0,5.426-1.998,5.426-4.068
		c0-2.117-2.181-4.084-5.426-4.069c-3.244-0.015-5.426,1.952-5.426,4.069C77.035,56.645,79.068,58.643,82.461,58.643 M82.461,49.193
		c4.466,0,7.66,2.296,7.66,5.381c0,3.158-3.172,5.38-7.66,5.38s-7.66-2.222-7.66-5.38C74.801,51.489,77.994,49.193,82.461,49.193
		 M95.176,54.105h1.99c1.525,0,2.214-0.633,2.214-1.642c0-0.95-0.688-1.552-1.985-1.552h-2.219V54.105z M93.309,49.587h3.565
		c2.58,0,4.571,0.332,4.571,2.847c0,1.28-0.688,2.395-1.924,2.395v0.029c0.646,0.181,0.959,0.408,1.418,1.055l3.332,4.188h-2.377
		l-2.89-3.564c-0.647-1.025-1.599-1.105-2.704-1.105h-1.125v4.67h-1.867V49.587L93.309,49.587z M106.557,49.55h1.95v4.093
		l6.923-4.92h2.596l-7.508,5.228l8.305,6.04h-2.848l-7.467-5.693v5.73h-1.949L106.557,49.55z M67.294,60.354l-4.832-9.457H62.42
		l-4.896,9.384l-5.708-10.898h2.059l3.649,7.384l3.597-7.384h2.609l3.564,7.384l3.771-7.297h2.027L67.294,60.354z"/>
</g>
</svg>
