<?xml version="1.0" encoding="utf-8"?>
<!-- Generator: Adobe Illustrator 16.0.0, SVG Export Plug-In . SVG Version: 6.00 Build 0)  -->
<!DOCTYPE svg PUBLIC "-//W3C//DTD SVG 1.1//EN" "http://www.w3.org/Graphics/SVG/1.1/DTD/svg11.dtd">
<svg version="1.1" id="Layer_1" xmlns="http://www.w3.org/2000/svg" xmlns:xlink="http://www.w3.org/1999/xlink" x="0px" y="0px"
	 width="100px" height="44px" viewBox="0 0 100 44" enable-background="new 0 0 100 44" xml:space="preserve">
<title>Fill 1</title>
<desc>Created with Sketch.</desc>
<g id="Landing">
	<g id="Recruitment_Website_Template" transform="translate(-1190.000000, -1663.000000)">
		<g id="Footer" transform="translate(0.000000, 1620.000000)">
			<path id="Fill-1" fill="#AFAFAF" d="M1279.075,61.025c-3.091,0-5.247,2.466-5.987,6.355l10.864-0.121
				C1283.952,63.988,1281.914,61.025,1279.075,61.025z M1278.516,86.15c-6.479,0-11.479-5.127-11.479-12.285
				c0-8.767,5.373-14.754,12.965-14.754c6.109,0,9.507,3.456,9.507,8.949v1.111l-16.671-0.121c-0.121,0.678-0.184,1.789-0.184,3.148
				c0,6.295,3.952,10.429,9.199,10.429c3.148,0,4.751-1.108,7.223-3.206L1290,80.84C1286.479,84.051,1283.582,86.15,1278.516,86.15z
				 M1250.002,85.653v-1.418c2.777-0.185,3.579-0.802,4.07-1.852V50.406c0-2.098-0.305-2.962-4.564-3.333v-1.232L1260.803,43
				l0.373,1.05l-1.791,2.222v36.112c0.617,1.234,1.791,1.667,4.317,1.852v1.418H1250.002z M1231.172,76.149
				c-0.245,0.987-0.431,1.849-0.431,3.206c0,1.854,1.048,3.706,3.085,3.706c1.849,0,2.899-0.617,4.569-1.915l0.061-8.332
				C1236.853,73.558,1232.903,75.283,1231.172,76.149z M1243.521,86.21c-3.333,0-4.94-2.284-5.063-3.89
				c-2.098,2.223-4.813,3.89-7.406,3.89c-3.335,0-6.174-2.038-6.174-5.557c0-1.728,0.433-3.517,1.297-4.937l12.282-4.446v-4.567
				c0-2.778-1.295-5.431-4.073-5.431c-1.667,0-3.274,2.035-3.396,5.185l-5.554,0.924v-0.617c1.849-5.554,7.962-7.713,10.925-7.713
				c5.615,0,7.655,2.962,7.592,7.529l-0.187,12.965c-0.061,2.529,1.3,3.148,2.528,3.148c0.99,0,1.979-0.619,3.149-1.791v1.791
				C1248.084,84.296,1245.677,86.21,1243.521,86.21z M1223.273,52.073l-10.187,17.161v11.545c1.174,2.775,4.136,3.146,6.978,3.271
				v1.603h-19.94v-1.603c2.841-0.125,6.297-0.557,7.222-2.407V69.729l-10.371-17.532c-1.789-2.962-3.517-3.95-6.975-4.197v-1.607
				h17.346V48c-3.27,0.184-4.32,0.801-5.247,1.542l9.63,16.667l9.446-16.604c-0.988-0.74-2.285-1.42-5.557-1.604v-1.607h14.812V48
				C1227.099,48.124,1225.001,49.234,1223.273,52.073z"/>
		</g>
	</g>
</g>
</svg>
