<svg width="131" height="78" viewBox="0 0 131 78" fill="none" xmlns="http://www.w3.org/2000/svg">
<path fill-rule="evenodd" clip-rule="evenodd" d="M17.6577 63.4469H113.343V4.15145H17.6577V63.4469ZM15.5813 67.6H115.418C116.565 67.6 117.494 66.67 117.494 65.5235V2.07581C117.494 0.929311 116.565 0 115.418 0H15.5813C14.4348 0 13.5061 0.929311 13.5061 2.07581V65.5235C13.5061 66.67 14.4348 67.6 15.5813 67.6Z" fill="#34537D"/>
<path fill-rule="evenodd" clip-rule="evenodd" d="M128.924 73.8477H2.07645C0.929955 73.8477 0 74.777 0 75.9242C0 77.07 0.929955 78 2.07645 78H128.924C130.07 78 131 77.07 131 75.9242C131 74.777 130.07 73.8477 128.924 73.8477Z" fill="#34537D"/>
</svg>
