<svg width="300" height="344" viewBox="0 0 300 344" fill="none" xmlns="http://www.w3.org/2000/svg">
<g filter="url(#filter0_d)">
<rect x="20" y="16" width="259.846" height="303.64" fill="#F5F8FA"/>
<rect x="20" y="287.525" width="259.846" height="32.1158" fill="#D3DFE4"/>
<rect x="20" y="149.885" width="259.846" height="52.9702" fill="#D3DFE4"/>
<g filter="url(#filter1_d)">
<rect x="35.4323" y="144.463" width="71.1136" height="67.1512" rx="5" fill="white"/>
</g>
<rect x="45.0253" y="179.916" width="52.3446" height="3.33671" fill="#C4C4C4"/>
<rect x="45.0253" y="188.258" width="52.3446" height="3.33671" fill="#C4C4C4"/>
<rect x="45.0253" y="196.599" width="52.3446" height="3.33671" fill="#C4C4C4"/>
<path d="M175.783 80.6286C175.783 69.5829 184.737 60.6285 195.783 60.6285H243.58C254.625 60.6285 263.58 69.5828 263.58 80.6285V149.885H175.783V80.6286Z" fill="#C4C4C4"/>
<g filter="url(#filter2_d)">
<rect x="113.845" y="144.463" width="71.3221" height="67.1512" rx="5" fill="white"/>
</g>
<g filter="url(#filter3_d)">
<rect x="192.466" y="144.463" width="71.1136" height="67.1512" rx="5" fill="white"/>
</g>
<rect x="123.438" y="179.916" width="52.3446" height="3.33671" fill="#C4C4C4"/>
<rect x="123.438" y="188.258" width="52.3446" height="3.33671" fill="#C4C4C4"/>
<rect x="123.438" y="196.599" width="52.3446" height="3.33671" fill="#C4C4C4"/>
</g>
<rect x="202.059" y="179.916" width="52.3446" height="3.33671" fill="#C4C4C4"/>
<rect x="202.059" y="188.258" width="52.3446" height="3.33671" fill="#C4C4C4"/>
<rect x="202.059" y="196.599" width="52.3446" height="3.33671" fill="#C4C4C4"/>
<path d="M69.0413 36.6917H48.3286C46.8497 36.6917 45.4313 37.2423 44.3855 38.2223C43.3397 39.2024 42.7522 40.5317 42.7522 41.9178V55.3564C42.7522 56.7424 43.3397 58.0717 44.3855 59.0518C45.4313 60.0319 46.8497 60.5825 48.3286 60.5825H69.0413C70.5202 60.5825 71.9386 60.0319 72.9844 59.0518C74.0302 58.0717 74.6177 56.7424 74.6177 55.3564V41.9178C74.6177 40.5317 74.0302 39.2024 72.9844 38.2223C71.9386 37.2423 70.5202 36.6917 69.0413 36.6917ZM44.3454 41.9178C44.3454 40.9277 44.7651 39.9782 45.5121 39.2782C46.2591 38.5781 47.2722 38.1848 48.3286 38.1848H69.0413C70.0977 38.1848 71.1108 38.5781 71.8578 39.2782C72.6048 39.9782 73.0244 40.9277 73.0244 41.9178V54.3186L65.6237 47.3604C65.5492 47.2912 65.461 47.2365 65.3639 47.1993C65.2668 47.1622 65.1629 47.1433 65.0581 47.1439C64.9532 47.1433 64.8493 47.1622 64.7522 47.1993C64.6552 47.2365 64.5669 47.2912 64.4924 47.3604L56.295 55.0503L51.2842 50.3468C51.2101 50.2768 51.122 50.2212 51.0249 50.1833C50.9278 50.1454 50.8237 50.1259 50.7186 50.1259C50.6134 50.1259 50.5093 50.1454 50.4122 50.1833C50.3151 50.2212 50.227 50.2768 50.1529 50.3468L44.3853 55.7521C44.3641 55.621 44.3508 55.4888 44.3454 55.3564V41.9178ZM69.0413 59.0893H48.3286C47.6537 59.0872 46.9903 58.9245 46.4009 58.6163C45.8114 58.3081 45.3152 57.8646 44.9589 57.3274L50.7186 51.9295L55.7294 56.633C55.8035 56.703 55.8916 56.7585 55.9887 56.7964C56.0857 56.8343 56.1899 56.8539 56.295 56.8539C56.4002 56.8539 56.5043 56.8343 56.6014 56.7964C56.6985 56.7585 56.7866 56.703 56.8606 56.633L65.0581 48.9506L72.8811 56.2971C72.6595 57.0943 72.1628 57.8006 71.4682 58.3056C70.7737 58.8107 69.9204 59.0862 69.0413 59.0893Z" fill="#959FA4"/>
<path d="M53.9051 47.1439C54.5354 47.1439 55.1515 46.9687 55.6755 46.6406C56.1995 46.3124 56.6079 45.846 56.8491 45.3003C57.0903 44.7546 57.1534 44.1542 57.0305 43.5749C56.9075 42.9956 56.604 42.4635 56.1584 42.0458C55.7127 41.6282 55.1449 41.3438 54.5268 41.2285C53.9087 41.1133 53.2679 41.1724 52.6857 41.3985C52.1034 41.6245 51.6057 42.0073 51.2556 42.4984C50.9055 42.9895 50.7186 43.5669 50.7186 44.1575C50.7186 44.9495 51.0543 45.7091 51.6519 46.2692C52.2495 46.8292 53.06 47.1439 53.9051 47.1439ZM53.9051 42.6643C54.2202 42.6643 54.5283 42.7519 54.7903 42.916C55.0523 43.08 55.2565 43.3132 55.3771 43.5861C55.4977 43.8589 55.5293 44.1592 55.4678 44.4488C55.4063 44.7385 55.2546 45.0045 55.0317 45.2133C54.8089 45.4222 54.525 45.5644 54.216 45.622C53.9069 45.6796 53.5865 45.65 53.2954 45.537C53.0043 45.424 52.7554 45.2326 52.5804 44.9871C52.4053 44.7415 52.3118 44.4528 52.3118 44.1575C52.3118 43.7615 52.4797 43.3817 52.7785 43.1017C53.0773 42.8216 53.4826 42.6643 53.9051 42.6643Z" fill="#959FA4"/>
<path d="M76.6406 158.34H64.7119C63.8601 158.34 63.0432 158.657 62.441 159.221C61.8387 159.785 61.5003 160.549 61.5003 161.347V169.08C61.5003 169.877 61.8387 170.642 62.441 171.206C63.0432 171.77 63.8601 172.087 64.7119 172.087H76.6406C77.4924 172.087 78.3093 171.77 78.9115 171.206C79.5138 170.642 79.8522 169.877 79.8522 169.08V161.347C79.8522 160.549 79.5138 159.785 78.9115 159.221C78.3093 158.657 77.4924 158.34 76.6406 158.34ZM62.4179 161.347C62.4179 160.777 62.6596 160.231 63.0898 159.828C63.52 159.425 64.1035 159.199 64.7119 159.199H76.6406C77.249 159.199 77.8325 159.425 78.2627 159.828C78.6929 160.231 78.9346 160.777 78.9346 161.347V168.483L74.6724 164.479C74.6295 164.439 74.5787 164.408 74.5228 164.386C74.4669 164.365 74.407 164.354 74.3466 164.354C74.2862 164.354 74.2264 164.365 74.1705 164.386C74.1146 164.408 74.0638 164.439 74.0209 164.479L69.2999 168.904L66.414 166.197C66.3714 166.157 66.3206 166.125 66.2647 166.103C66.2088 166.081 66.1488 166.07 66.0883 166.07C66.0277 166.07 65.9677 166.081 65.9118 166.103C65.8559 166.125 65.8052 166.157 65.7625 166.197L62.4408 169.308C62.4287 169.232 62.421 169.156 62.4179 169.08V161.347ZM76.6406 171.228H64.7119C64.3232 171.227 63.9411 171.133 63.6017 170.956C63.2622 170.778 62.9764 170.523 62.7712 170.214L66.0883 167.108L68.9741 169.814C69.0168 169.855 69.0675 169.887 69.1234 169.909C69.1793 169.93 69.2393 169.942 69.2999 169.942C69.3604 169.942 69.4204 169.93 69.4763 169.909C69.5322 169.887 69.583 169.855 69.6256 169.814L74.3466 165.394L78.852 169.621C78.7244 170.08 78.4384 170.486 78.0383 170.777C77.6383 171.068 77.1469 171.226 76.6406 171.228Z" fill="#959FA4"/>
<path d="M67.9235 164.354C68.2864 164.354 68.6413 164.254 68.9431 164.065C69.2448 163.876 69.4801 163.607 69.619 163.293C69.7579 162.979 69.7942 162.634 69.7234 162.301C69.6526 161.967 69.4778 161.661 69.2212 161.421C68.9645 161.18 68.6375 161.017 68.2815 160.95C67.9255 160.884 67.5565 160.918 67.2212 161.048C66.8858 161.178 66.5992 161.399 66.3976 161.681C66.1959 161.964 66.0883 162.296 66.0883 162.636C66.0883 163.092 66.2816 163.529 66.6258 163.851C66.97 164.173 67.4368 164.354 67.9235 164.354ZM67.9235 161.777C68.105 161.777 68.2824 161.827 68.4333 161.921C68.5842 162.016 68.7018 162.15 68.7712 162.307C68.8407 162.464 68.8588 162.637 68.8234 162.804C68.788 162.97 68.7006 163.123 68.5723 163.243C68.444 163.364 68.2805 163.445 68.1025 163.479C67.9245 163.512 67.74 163.495 67.5723 163.43C67.4047 163.365 67.2614 163.255 67.1605 163.113C67.0597 162.972 67.0059 162.806 67.0059 162.636C67.0059 162.408 67.1026 162.189 67.2746 162.028C67.4467 161.867 67.6801 161.777 67.9235 161.777Z" fill="#959FA4"/>
<path d="M156.305 158.34H144.376C143.524 158.34 142.707 158.657 142.105 159.221C141.503 159.785 141.164 160.549 141.164 161.347V169.08C141.164 169.877 141.503 170.642 142.105 171.206C142.707 171.77 143.524 172.087 144.376 172.087H156.305C157.156 172.087 157.973 171.77 158.575 171.206C159.178 170.642 159.516 169.877 159.516 169.08V161.347C159.516 160.549 159.178 159.785 158.575 159.221C157.973 158.657 157.156 158.34 156.305 158.34ZM142.082 161.347C142.082 160.777 142.323 160.231 142.754 159.828C143.184 159.425 143.767 159.199 144.376 159.199H156.305C156.913 159.199 157.496 159.425 157.927 159.828C158.357 160.231 158.599 160.777 158.599 161.347V168.483L154.336 164.479C154.293 164.439 154.243 164.408 154.187 164.386C154.131 164.365 154.071 164.354 154.011 164.354C153.95 164.354 153.89 164.365 153.834 164.386C153.779 164.408 153.728 164.439 153.685 164.479L148.964 168.904L146.078 166.197C146.035 166.157 145.985 166.125 145.929 166.103C145.873 166.081 145.813 166.07 145.752 166.07C145.692 166.07 145.632 166.081 145.576 166.103C145.52 166.125 145.469 166.157 145.426 166.197L142.105 169.308C142.093 169.232 142.085 169.156 142.082 169.08V161.347ZM156.305 171.228H144.376C143.987 171.227 143.605 171.133 143.266 170.956C142.926 170.778 142.64 170.523 142.435 170.214L145.752 167.108L148.638 169.814C148.681 169.855 148.731 169.887 148.787 169.909C148.843 169.93 148.903 169.942 148.964 169.942C149.024 169.942 149.084 169.93 149.14 169.909C149.196 169.887 149.247 169.855 149.29 169.814L154.011 165.394L158.516 169.621C158.388 170.08 158.102 170.486 157.702 170.777C157.302 171.068 156.811 171.226 156.305 171.228Z" fill="#959FA4"/>
<path d="M147.587 164.354C147.95 164.354 148.305 164.254 148.607 164.065C148.909 163.876 149.144 163.607 149.283 163.293C149.422 162.979 149.458 162.634 149.387 162.301C149.317 161.967 149.142 161.661 148.885 161.421C148.628 161.18 148.301 161.017 147.945 160.95C147.589 160.884 147.22 160.918 146.885 161.048C146.55 161.178 146.263 161.399 146.061 161.681C145.86 161.964 145.752 162.296 145.752 162.636C145.752 163.092 145.946 163.529 146.29 163.851C146.634 164.173 147.101 164.354 147.587 164.354ZM147.587 161.777C147.769 161.777 147.946 161.827 148.097 161.921C148.248 162.016 148.366 162.15 148.435 162.307C148.505 162.464 148.523 162.637 148.487 162.804C148.452 162.97 148.365 163.123 148.236 163.243C148.108 163.364 147.944 163.445 147.766 163.479C147.588 163.512 147.404 163.495 147.236 163.43C147.069 163.365 146.925 163.255 146.824 163.113C146.724 162.972 146.67 162.806 146.67 162.636C146.67 162.408 146.766 162.189 146.939 162.028C147.111 161.867 147.344 161.777 147.587 161.777Z" fill="#959FA4"/>
<path d="M233.883 158.34H221.954C221.102 158.34 220.286 158.657 219.683 159.221C219.081 159.785 218.743 160.549 218.743 161.347V169.08C218.743 169.877 219.081 170.642 219.683 171.206C220.286 171.77 221.102 172.087 221.954 172.087H233.883C234.735 172.087 235.552 171.77 236.154 171.206C236.756 170.642 237.095 169.877 237.095 169.08V161.347C237.095 160.549 236.756 159.785 236.154 159.221C235.552 158.657 234.735 158.34 233.883 158.34ZM219.66 161.347C219.66 160.777 219.902 160.231 220.332 159.828C220.762 159.425 221.346 159.199 221.954 159.199H233.883C234.491 159.199 235.075 159.425 235.505 159.828C235.935 160.231 236.177 160.777 236.177 161.347V168.483L231.915 164.479C231.872 164.439 231.821 164.408 231.765 164.386C231.709 164.365 231.649 164.354 231.589 164.354C231.529 164.354 231.469 164.365 231.413 164.386C231.357 164.408 231.306 164.439 231.263 164.479L226.542 168.904L223.656 166.197C223.614 166.157 223.563 166.125 223.507 166.103C223.451 166.081 223.391 166.07 223.331 166.07C223.27 166.07 223.21 166.081 223.154 166.103C223.098 166.125 223.048 166.157 223.005 166.197L219.683 169.308C219.671 169.232 219.663 169.156 219.66 169.08V161.347ZM233.883 171.228H221.954C221.565 171.227 221.183 171.133 220.844 170.956C220.505 170.778 220.219 170.523 220.014 170.214L223.331 167.108L226.216 169.814C226.259 169.855 226.31 169.887 226.366 169.909C226.422 169.93 226.482 169.942 226.542 169.942C226.603 169.942 226.663 169.93 226.719 169.909C226.775 169.887 226.825 169.855 226.868 169.814L231.589 165.394L236.094 169.621C235.967 170.08 235.681 170.486 235.281 170.777C234.881 171.068 234.389 171.226 233.883 171.228Z" fill="#959FA4"/>
<path d="M225.166 164.354C225.529 164.354 225.884 164.254 226.185 164.065C226.487 163.876 226.722 163.607 226.861 163.293C227 162.979 227.037 162.634 226.966 162.301C226.895 161.967 226.72 161.661 226.463 161.421C226.207 161.18 225.88 161.017 225.524 160.95C225.168 160.884 224.799 160.918 224.464 161.048C224.128 161.178 223.842 161.399 223.64 161.681C223.438 161.964 223.331 162.296 223.331 162.636C223.331 163.092 223.524 163.529 223.868 163.851C224.212 164.173 224.679 164.354 225.166 164.354ZM225.166 161.777C225.347 161.777 225.525 161.827 225.676 161.921C225.827 162.016 225.944 162.15 226.014 162.307C226.083 162.464 226.101 162.637 226.066 162.804C226.03 162.97 225.943 163.123 225.815 163.243C225.686 163.364 225.523 163.445 225.345 163.479C225.167 163.512 224.982 163.495 224.815 163.43C224.647 163.365 224.504 163.255 224.403 163.113C224.302 162.972 224.248 162.806 224.248 162.636C224.248 162.408 224.345 162.189 224.517 162.028C224.689 161.867 224.922 161.777 225.166 161.777Z" fill="#959FA4"/>
<rect x="43.9826" y="77.3069" width="113.031" height="6.25633" fill="#C4C4C4"/>
<rect x="43.9826" y="93.6689" width="85.2946" height="3.33671" fill="#C4C4C4"/>
<rect x="43.9826" y="102.845" width="85.2946" height="3.33671" fill="#C4C4C4"/>
<rect x="43.9826" y="228.378" width="113.031" height="6.25633" fill="#C4C4C4"/>
<rect x="43.9826" y="242.559" width="210.421" height="3.33671" fill="#C4C4C4"/>
<rect x="43.9826" y="251.735" width="210.421" height="3.33671" fill="#C4C4C4"/>
<rect x="43.9826" y="260.911" width="210.421" height="3.33671" fill="#C4C4C4"/>
<rect x="43.9826" y="270.087" width="210.421" height="3.33671" fill="#C4C4C4"/>
<rect x="43.9826" y="113.689" width="53.1788" height="12.0956" fill="#C4C4C4"/>
<defs>
<filter id="filter0_d" x="0" y="0" width="299.846" height="343.64" filterUnits="userSpaceOnUse" color-interpolation-filters="sRGB">
<feFlood flood-opacity="0" result="BackgroundImageFix"/>
<feColorMatrix in="SourceAlpha" type="matrix" values="0 0 0 0 0 0 0 0 0 0 0 0 0 0 0 0 0 0 127 0"/>
<feOffset dy="4"/>
<feGaussianBlur stdDeviation="10"/>
<feColorMatrix type="matrix" values="0 0 0 0 0 0 0 0 0 0 0 0 0 0 0 0 0 0 0.25 0"/>
<feBlend mode="normal" in2="BackgroundImageFix" result="effect1_dropShadow"/>
<feBlend mode="normal" in="SourceGraphic" in2="effect1_dropShadow" result="shape"/>
</filter>
<filter id="filter1_d" x="25.4323" y="138.463" width="91.1136" height="87.1512" filterUnits="userSpaceOnUse" color-interpolation-filters="sRGB">
<feFlood flood-opacity="0" result="BackgroundImageFix"/>
<feColorMatrix in="SourceAlpha" type="matrix" values="0 0 0 0 0 0 0 0 0 0 0 0 0 0 0 0 0 0 127 0"/>
<feOffset dy="4"/>
<feGaussianBlur stdDeviation="5"/>
<feColorMatrix type="matrix" values="0 0 0 0 0 0 0 0 0 0 0 0 0 0 0 0 0 0 0.25 0"/>
<feBlend mode="normal" in2="BackgroundImageFix" result="effect1_dropShadow"/>
<feBlend mode="normal" in="SourceGraphic" in2="effect1_dropShadow" result="shape"/>
</filter>
<filter id="filter2_d" x="103.845" y="138.463" width="91.3221" height="87.1512" filterUnits="userSpaceOnUse" color-interpolation-filters="sRGB">
<feFlood flood-opacity="0" result="BackgroundImageFix"/>
<feColorMatrix in="SourceAlpha" type="matrix" values="0 0 0 0 0 0 0 0 0 0 0 0 0 0 0 0 0 0 127 0"/>
<feOffset dy="4"/>
<feGaussianBlur stdDeviation="5"/>
<feColorMatrix type="matrix" values="0 0 0 0 0 0 0 0 0 0 0 0 0 0 0 0 0 0 0.25 0"/>
<feBlend mode="normal" in2="BackgroundImageFix" result="effect1_dropShadow"/>
<feBlend mode="normal" in="SourceGraphic" in2="effect1_dropShadow" result="shape"/>
</filter>
<filter id="filter3_d" x="182.466" y="138.463" width="91.1136" height="87.1512" filterUnits="userSpaceOnUse" color-interpolation-filters="sRGB">
<feFlood flood-opacity="0" result="BackgroundImageFix"/>
<feColorMatrix in="SourceAlpha" type="matrix" values="0 0 0 0 0 0 0 0 0 0 0 0 0 0 0 0 0 0 127 0"/>
<feOffset dy="4"/>
<feGaussianBlur stdDeviation="5"/>
<feColorMatrix type="matrix" values="0 0 0 0 0 0 0 0 0 0 0 0 0 0 0 0 0 0 0.25 0"/>
<feBlend mode="normal" in2="BackgroundImageFix" result="effect1_dropShadow"/>
<feBlend mode="normal" in="SourceGraphic" in2="effect1_dropShadow" result="shape"/>
</filter>
</defs>
</svg>
