<svg width="48" height="48" viewBox="0 0 48 48" fill="none" xmlns="http://www.w3.org/2000/svg">
<g clip-path="url(#clip0)">
<path d="M48 23C47.8502 19.5292 46.9399 16.1336 45.3333 13.0533C44.9976 12.3637 44.6191 11.6957 44.2 11.0533C42.1232 7.80389 39.2939 5.10277 35.9517 3.1787C32.6095 1.25464 28.8529 0.164292 25 0L24 0H23C19.1471 0.164292 15.3905 1.25464 12.0483 3.1787C8.70613 5.10277 5.87683 7.80389 3.8 11.0533C3.38088 11.6957 3.00236 12.3637 2.66667 13.0533C1.0601 16.1336 0.149763 19.5292 0 23H0V25C0.15992 28.8717 1.25808 32.6467 3.2 36C3.4 36.3333 3.6 36.68 3.81333 37C5.89495 40.2377 8.72479 42.9273 12.0641 44.8418C15.4034 46.7563 19.1542 47.8395 23 48H24H25C27.3209 47.9011 29.6136 47.4516 31.8 46.6667L31.2 44.7733C30.7631 44.942 30.3181 45.0889 29.8667 45.2133C30.2713 44.7961 30.6456 44.3506 30.9867 43.88L30.2 41.4533C29.6753 42.4865 28.9517 43.4058 28.0708 44.1586C27.1899 44.9114 26.169 45.4828 25.0667 45.84V36.9067H28.6667L28.36 36L28 34.9467H25V25H34.3333C34.3333 25.9333 34.3333 26.8667 34.2 27.7733L36.1467 28.4C36.2533 27.2933 36.32 26.1467 36.32 25H46C45.8978 27.1145 45.4891 29.203 44.7867 31.2L46.68 31.8C47.4585 29.6118 47.9078 27.3202 48.0133 25C48.0133 24.6667 48.0133 24.3333 48.0133 24C48.0133 23.6667 48 23.3333 48 23ZM41.8133 11H34.4C33.5144 7.93255 31.9515 5.103 29.8267 2.72C34.6386 4.07052 38.8531 7.00706 41.7867 11.0533L41.8133 11ZM15.1467 13H23.0133V22.9467H13.68C13.7584 19.6019 14.2465 16.2794 15.1333 13.0533L15.1467 13ZM15.76 11C17.4533 6.09333 20.08 2.68 23.0133 2.04V11.0533L15.76 11ZM25.0133 2.04C27.9467 2.68 30.5733 6.04 32.2667 11H25L25.0133 2.04ZM18.1867 2.72C16.0501 5.11718 14.4822 7.96576 13.6 11.0533H6.21333C9.15549 7.02696 13.369 4.10991 18.1733 2.77333L18.1867 2.72ZM4.85333 13H12.9867C12.1505 16.2512 11.7029 19.5901 11.6533 22.9467H2.02667C2.1818 19.466 3.16942 16.0734 4.90667 13.0533L4.85333 13ZM1.96 25H11.7333C11.7827 28.3566 12.2303 31.6955 13.0667 34.9467H4.93333C3.16801 31.9169 2.16589 28.5033 2.01333 25H1.96ZM6.17333 37H13.56C14.438 40.0735 16.0068 42.9056 18.1467 45.28C13.3458 43.9291 9.14412 40.9917 6.22667 36.9467L6.17333 37ZM22.9467 45.9333C20.0133 45.2933 17.4 41.9333 15.7067 37H22.9467V45.9333ZM22.9467 35H15.08C14.2015 31.7552 13.7268 28.4144 13.6667 25.0533H23L22.9467 35ZM24.9467 23V13.0533H32.8133C33.6909 16.2983 34.1656 19.639 34.2267 23H24.9467ZM36.2133 23C36.1637 19.6434 35.7161 16.3045 34.88 13.0533H43.0133C44.7588 16.0892 45.7467 19.5012 45.8933 23H36.2133Z" fill="#34537D"/>
<path d="M47.1999 34.0667L45.9599 33.6667L43.9999 33.0533L35.7866 30.3867L33.8533 29.76L29.6266 28.4267C29.5252 28.4087 29.4214 28.4087 29.3199 28.4267C29.0575 28.4275 28.8051 28.5275 28.6133 28.7067C28.4863 28.8386 28.3981 29.0029 28.3581 29.1816C28.3181 29.3603 28.328 29.5465 28.3866 29.72L30.0799 34.9867L30.7199 36.9867L31.3866 39.0533L32.2666 41.8133L33.0533 44L33.6666 45.9067L34.0666 47.1467C34.1273 47.3419 34.2471 47.5135 34.4095 47.6377C34.5719 47.762 34.7689 47.8326 34.9733 47.84C35.1719 47.8403 35.3659 47.7806 35.5301 47.6688C35.6942 47.557 35.8208 47.3983 35.8933 47.2133L37.3333 44L38.4533 41.24L39.5466 42.3333L43.1333 45.9067C43.4825 46.271 43.962 46.482 44.4666 46.4933C44.7294 46.4946 44.9897 46.4433 45.2324 46.3426C45.4751 46.2418 45.6953 46.0936 45.8799 45.9067C46.2441 45.5289 46.4476 45.0247 46.4476 44.5C46.4476 43.9753 46.2441 43.4711 45.8799 43.0933L42.3066 39.52L41.2133 38.4267L43.9999 37.3333L44.8533 36.9867L47.2533 36C47.4445 35.9223 47.6065 35.7866 47.7165 35.612C47.8265 35.4374 47.879 35.2327 47.8666 35.0267C47.8744 34.816 47.8136 34.6086 47.6934 34.4355C47.5732 34.2623 47.4 34.1329 47.1999 34.0667Z" fill="#34537D"/>
</g>
<defs>
<clipPath id="clip0">
<rect width="48" height="48" fill="white"/>
</clipPath>
</defs>
</svg>
