<svg width="69" height="59" viewBox="0 0 69 59" fill="none" xmlns="http://www.w3.org/2000/svg">
<path d="M4.41077 10.9319V57.1624H5.27271H64.5892V10.9319H4.41077ZM6.13464 12.4058H62.8654V55.6884H6.13464V12.4058Z" fill="#34537D"/>
<path d="M29.2161 4.33472C27.4547 4.33472 26.0097 5.57053 26.0098 7.07626C26.0097 8.58211 27.4547 9.81795 29.2161 9.81795C30.9774 9.81795 32.4252 8.58211 32.4252 7.07626C32.4252 5.57053 30.9774 4.33472 29.2161 4.33472ZM29.2161 5.81108C30.0461 5.81108 30.7013 6.36851 30.7013 7.07626C30.7013 7.78414 30.0461 8.34391 29.2161 8.34391C28.3861 8.34391 27.7336 7.78414 27.7336 7.07626C27.7336 6.36851 28.3861 5.81108 29.2161 5.81108Z" fill="#34537D"/>
<path d="M20.2233 4.33472C18.4619 4.33472 17.0141 5.57053 17.0142 7.07626C17.0141 8.58211 18.4619 9.81795 20.2233 9.81795C21.9846 9.81795 23.4324 8.58211 23.4324 7.07626C23.4324 5.57053 21.9846 4.33472 20.2233 4.33472ZM20.2233 5.81108C21.0533 5.81108 21.7085 6.36851 21.7085 7.07626C21.7085 7.78414 21.0533 8.34391 20.2233 8.34391C19.3933 8.34391 18.7408 7.78414 18.7408 7.07626C18.7408 6.36851 19.3933 5.81108 20.2233 5.81108Z" fill="#34537D"/>
<path d="M11.2305 4.33472C9.46912 4.33472 8.0213 5.57053 8.02136 7.07626C8.0213 8.58211 9.46912 9.81795 11.2305 9.81795C12.9918 9.81795 14.4396 8.58211 14.4396 7.07626C14.4396 5.57053 12.9918 4.33472 11.2305 4.33472ZM11.2305 5.81108C12.0605 5.81108 12.7157 6.36851 12.7157 7.07626C12.7157 7.78414 12.0605 8.34391 11.2305 8.34391C10.4005 8.34391 9.74802 7.78414 9.74805 7.07626C9.74802 6.36851 10.4005 5.81108 11.2305 5.81108Z" fill="#34537D"/>
<path fill-rule="evenodd" clip-rule="evenodd" d="M53.4037 19.1615C53.2246 19.1655 53.0523 19.2213 52.9152 19.32L27.8768 37.4214L16.214 25.4226C16.1104 25.3151 15.9706 25.2375 15.8136 25.2005C15.6566 25.1636 15.49 25.169 15.3367 25.216C15.1834 25.263 15.0508 25.3494 14.9571 25.4632C14.8634 25.5771 14.813 25.7131 14.813 25.8523L14.7821 37.0372C14.7825 37.1996 14.8513 37.3564 14.9758 37.479L26.2596 48.6999C26.3944 48.8336 26.585 48.9169 26.7906 48.932C26.9963 48.9472 27.2007 48.8929 27.3602 48.7809L53.895 30.238C53.9857 30.175 54.0589 30.0956 54.1094 30.0055C54.1598 29.9155 54.1864 29.8169 54.187 29.717L54.2179 19.8381C54.2181 19.7475 54.197 19.6578 54.1558 19.5744C54.1147 19.4909 54.0544 19.4153 53.9784 19.3521C53.9025 19.289 53.8125 19.2396 53.7137 19.2068C53.615 19.1739 53.5096 19.1584 53.4037 19.1611L53.4037 19.1615ZM52.6288 21.2982L52.6063 29.3958L26.9559 47.3171L16.3656 36.7876L16.3909 27.7225L27.1721 38.8114C27.2389 38.8798 27.3208 38.9363 27.4132 38.9776C27.5056 39.0189 27.6066 39.0441 27.7105 39.0519C27.8144 39.0597 27.919 39.0499 28.0184 39.0229C28.1177 38.996 28.2099 38.9525 28.2896 38.8949L52.6288 21.2977L52.6288 21.2982Z" fill="#34537D"/>
<path d="M4.41077 1.83789V11.2943H6.13464V3.31186H62.8654V11.2943H64.5892V1.83789H4.41077Z" fill="#34537D"/>
</svg>
