<svg width="60" height="36" viewBox="0 0 60 36" fill="none" xmlns="http://www.w3.org/2000/svg">
<path fill-rule="evenodd" clip-rule="evenodd" d="M8.05877 28.9559H51.7273V1.89471H8.05877V28.9559ZM7.11112 30.8512H52.6744C53.1979 30.8512 53.622 30.4268 53.622 29.9035V0.947353C53.622 0.424118 53.1979 0 52.6744 0H7.11112C6.58789 0 6.16406 0.424118 6.16406 0.947353V29.9035C6.16406 30.4268 6.58789 30.8512 7.11112 30.8512V30.8512Z" fill="#959FA4"/>
<path fill-rule="evenodd" clip-rule="evenodd" d="M47.5807 4.33291H12.2042C11.681 4.33291 11.2568 4.75703 11.2568 5.28026V25.5706C11.2568 26.0938 11.681 26.5182 12.2042 26.5182H47.5807C48.1036 26.5182 48.528 26.0938 48.528 25.5706V5.28026C48.528 4.75703 48.1036 4.33291 47.5807 4.33291" fill="#959FA4"/>
<path fill-rule="evenodd" clip-rule="evenodd" d="M58.8382 33.7025H0.947647C0.424412 33.7025 0 34.1266 0 34.6501C0 35.1731 0.424412 35.5975 0.947647 35.5975H58.8382C59.3612 35.5975 59.7856 35.1731 59.7856 34.6501C59.7856 34.1266 59.3612 33.7025 58.8382 33.7025" fill="#959FA4"/>
</svg>
